<svg width="24" height="23" viewBox="0 0 24 23" fill="none" xmlns="http://www.w3.org/2000/svg">
<g clip-path="url(#clip0_233_1835)">
<circle cx="12.1443" cy="11.4377" r="11.4382" fill="#FA0EAA"/>
<path d="M22.7505 18.2622C21.3122 19.1261 20.917 20.8171 20.986 22.1129C21.0595 23.4088 21.9234 25.3847 22.0658 26.1796C22.2083 26.97 22.3875 28.808 22.7505 29.5249C23.1089 30.2463 23.3616 32.2222 23.3616 32.2222V32.6542C23.3616 32.6542 23.8258 32.3141 25.6408 31.7306C27.9017 31.0045 29.3721 31.1791 30.2681 31.2159C31.1688 31.2527 31.8856 31.3951 31.8856 31.3951C31.8856 31.3951 31.1504 27.3008 30.8425 26.5381C30.5347 25.7707 30.3463 24.2772 30.3463 23.9326" stroke="#151924" stroke-width="0.289494" stroke-miterlimit="10"/>
<path d="M12.5069 4.60205C13.9598 4.60205 15.7462 6.28115 15.8216 7.81235C15.897 9.34065 16.4567 10.1034 16.2595 10.6834C16.0623 11.2634 15.8274 11.9478 16.3001 12.4466C16.7728 12.9454 16.7728 13.9285 16.7728 13.9285C16.7728 13.9285 14.1309 14.3055 12.9013 14.1257C11.6717 13.943 10.764 14.3461 9.71133 14.175C8.65863 14.0039 8.05253 13.7632 7.41743 13.7922C6.78233 13.8212 6.43433 13.566 6.43433 13.566C6.43433 13.566 6.82873 12.7192 7.02593 12.0522C7.22313 11.3852 7.01143 10.9502 7.04043 10.4398C7.06943 9.93225 8.25263 8.58375 8.38893 7.51075C8.52523 6.43485 8.99503 4.60495 12.5069 4.60495V4.60205Z" fill="#151924"/>
<path d="M13.3394 13.6113L13.3402 13.6102C13.4136 13.6456 13.5184 13.6999 13.6464 13.7664C13.6742 13.7808 13.7031 13.7958 13.7331 13.8113C13.9025 13.899 14.1026 14.0018 14.3151 14.1048C14.7384 14.3101 15.216 14.5193 15.5988 14.6113C15.7731 14.6539 16.0464 14.7887 16.3766 14.9967C16.7046 15.2034 17.0822 15.4782 17.4632 15.7943C18.2267 16.4278 18.9964 17.2211 19.4102 17.9588C19.6148 18.3236 19.8073 18.9444 19.9926 19.696C20.1773 20.4452 20.3529 21.3156 20.5261 22.1746L20.5276 22.1824C20.7001 23.0378 20.8702 23.8817 21.0442 24.5788C21.1314 24.9284 21.2199 25.2425 21.3106 25.5033C21.4008 25.7628 21.495 25.975 21.5951 26.1173C21.9757 26.658 22.2494 26.8755 22.4485 27.0035C22.4865 27.028 22.5218 27.0491 22.5532 27.068C22.5621 27.0733 22.5706 27.0785 22.5789 27.0834C22.6171 27.1065 22.648 27.1261 22.6746 27.1465C22.7247 27.1849 22.7609 27.2274 22.7896 27.3038C22.8541 27.4753 22.9776 28.0452 22.9747 28.5711C22.9733 28.8343 22.9401 29.0768 22.8588 29.2508C22.8186 29.3369 22.768 29.4031 22.7065 29.4478C22.6459 29.4919 22.5708 29.5179 22.4752 29.5179H3.6513C3.34577 29.5179 3.10087 29.3969 2.9132 29.1592C2.72298 28.9183 2.58895 28.5537 2.5203 28.0653C2.38303 27.0887 2.51113 25.6465 2.93095 23.7994C3.07134 23.1816 3.20212 22.5959 3.32524 22.0444C3.5712 20.9427 3.78658 19.978 3.98693 19.1691C4.13719 18.5625 4.27857 18.0453 4.41751 17.6252C4.55679 17.204 4.69215 16.8851 4.82895 16.6722C5.10291 16.2459 5.60585 15.8619 6.20349 15.5319C6.79938 15.2029 7.48119 14.9321 8.10327 14.7286C8.73331 14.5224 9.25907 14.2763 9.68585 14.0654C9.76556 14.026 9.84144 13.9881 9.91364 13.952C10.2322 13.7928 10.4791 13.6693 10.667 13.6158L10.6671 13.6158C10.9011 13.5487 11.3547 13.4441 11.8589 13.4087C12.3649 13.3731 12.9119 13.408 13.3394 13.6113Z" fill="white" stroke="#151924" stroke-width="0.152289"/>
<path d="M11.883 13.8188C12.4894 13.8188 13.0504 13.8531 13.5074 13.9914C13.9621 14.129 14.3066 14.3672 14.4934 14.7722C14.5128 14.8143 14.5281 14.8821 14.5363 14.9781C14.5444 15.0728 14.5452 15.1894 14.5389 15.3252C14.5264 15.5968 14.486 15.94 14.4232 16.3297C14.2978 17.1086 14.084 18.0672 13.8301 18.9974C13.5761 19.9278 13.2826 20.8272 12.9984 21.4885C12.856 21.8196 12.7175 22.0876 12.5891 22.2695C12.5249 22.3606 12.4654 22.4268 12.4119 22.4687C12.358 22.5109 12.3177 22.5226 12.2889 22.5204L12.2889 22.5204C12.2066 22.5143 12.0997 22.4532 11.9709 22.3232C11.8447 22.1958 11.7082 22.0132 11.5662 21.7881C11.2826 21.3383 10.9839 20.7295 10.7071 20.0812C10.1525 18.7822 9.69377 17.3429 9.62118 16.7294C9.54729 16.105 9.51954 15.3765 9.80402 14.8058C9.94508 14.5228 10.1635 14.2776 10.4951 14.1023C10.8277 13.9264 11.2782 13.8188 11.8859 13.8188V13.7427C13.0998 13.7429 14.1656 13.8797 14.5626 14.7403L11.883 13.8188Z" fill="white" stroke="#151924" stroke-width="0.152289"/>
<path d="M6.26416 16.9902C6.26416 16.9902 7.17186 18.3532 7.28496 19.4639C7.39806 20.5775 7.05876 23.6196 6.98916 24.4142C6.92246 25.2088 6.78616 26.4152 6.78616 26.4152" stroke="#151924" stroke-width="0.0899001" stroke-miterlimit="10"/>
<path d="M7.30682 16.7637C7.30682 16.7637 7.39672 17.1958 7.44312 17.7845C7.48952 18.3761 7.64613 19.2838 7.60263 19.4868C7.55623 19.6898 7.30103 20.4873 7.30103 20.4873" stroke="#151924" stroke-width="0.0899001" stroke-miterlimit="10"/>
<path d="M8.13348 18.8525C8.13348 18.8525 8.06388 20.9202 7.19678 22.144" stroke="#151924" stroke-width="0.0899001" stroke-miterlimit="10"/>
<path d="M17.532 19.209C17.532 19.209 18.199 21.1781 17.9873 22.5991C17.7756 24.0201 17.532 26.6243 17.532 27.532C17.532 28.4397 17.6538 29.591 17.6538 29.591" stroke="#151924" stroke-width="0.0899001" stroke-miterlimit="10"/>
<path d="M11.3995 6.33954C11.1403 6.852 10.7392 7.09517 10.4449 7.27356C10.3557 7.32766 10.2763 7.3758 10.2136 7.42369C10.1529 7.47064 10.1218 7.52084 10.1061 7.57561C10.0897 7.63279 10.0888 7.69958 10.0969 7.78131C10.102 7.83208 10.1098 7.88309 10.1183 7.9386C10.1239 7.97517 10.1298 8.0137 10.1355 8.0554C10.1491 8.15675 10.1595 8.2682 10.1534 8.38801C10.141 8.63 10.0448 8.86824 9.95509 9.04247C9.90985 9.13033 9.86539 9.20356 9.83216 9.25495C9.8166 9.27902 9.80345 9.29836 9.7938 9.31223L9.79556 9.32763C9.79886 9.35612 9.8037 9.39727 9.80987 9.4478C9.8222 9.54889 9.83981 9.68742 9.86093 9.83726C9.90353 10.1394 9.95937 10.4797 10.0138 10.6555C10.0389 10.7366 10.0924 10.8363 10.1625 10.9431C10.232 11.0489 10.3148 11.1574 10.3948 11.2556C10.4748 11.3536 10.5513 11.4404 10.6079 11.5028C10.6362 11.534 10.6595 11.559 10.6756 11.5762L10.6942 11.5958L10.699 11.6008L10.7001 11.602L10.7004 11.6023L10.7005 11.6024L10.7005 11.6024L10.7005 11.6024L10.7246 11.6273L10.7216 11.6619L10.6457 11.6553L10.7216 11.662L10.7216 11.662L10.7216 11.6624L10.7215 11.6636L10.721 11.6687L10.7193 11.6885L10.7128 11.764C10.7072 11.8293 10.6993 11.9231 10.6898 12.0369C10.6709 12.2644 10.6459 12.5721 10.6216 12.8925C10.5973 13.2129 10.5738 13.5458 10.5578 13.8239C10.5417 14.1041 10.5336 14.3235 10.5391 14.4205L10.5391 14.4211C10.5399 14.4369 10.5468 14.4642 10.5653 14.5047C10.5833 14.544 10.6098 14.5907 10.6444 14.644C10.7135 14.7506 10.811 14.8782 10.9262 15.0171C11.1564 15.2947 11.452 15.6121 11.7185 15.8887C12.0815 16.2652 12.6803 16.2832 13.0583 15.924L13.0585 15.9238C13.3081 15.6887 13.5568 15.4222 13.7081 15.1795C13.7839 15.0579 13.8318 14.9476 13.8462 14.8539C13.8603 14.7628 13.8424 14.6917 13.7912 14.6357L13.8473 14.5843L13.7913 14.6359C13.65 14.4823 13.5731 14.2375 13.5319 13.9722C13.4902 13.7039 13.4832 13.4007 13.4918 13.1175C13.5004 12.8338 13.5248 12.5677 13.547 12.3727C13.5581 12.2751 13.5687 12.1952 13.5765 12.1395C13.5804 12.1117 13.5837 12.09 13.5859 12.0751L13.5885 12.0581L13.5892 12.0537L13.5894 12.0525L13.5895 12.0522L13.5895 12.0521L13.6646 12.0642L13.5895 12.0521L13.5941 12.0232L13.617 12.0048L11.3995 6.33954ZM11.3995 6.33954C12.0309 6.14985 12.6013 6.18419 13.0531 6.30653C13.5141 6.43135 13.8471 6.64643 13.9949 6.80357C14.0577 6.87041 14.0936 6.9779 14.1126 7.12175C14.1284 7.24206 14.1314 7.37642 14.1344 7.5169C14.135 7.54311 14.1356 7.56954 14.1363 7.59613C14.1404 7.76184 14.1481 7.93354 14.1839 8.08201C14.2198 8.23091 14.2868 8.36824 14.4186 8.45141C14.615 8.57531 14.7021 8.74433 14.7408 8.88368C14.7602 8.95367 14.7672 9.01591 14.7694 9.06038C14.7705 9.08256 14.7704 9.10015 14.77 9.11185L14.7694 9.12479L14.7693 9.12574M11.3995 6.33954L13.617 12.0048L13.617 12.0048L13.6174 12.0045L13.6187 12.0034L13.6243 11.9989L13.6462 11.9807C13.6652 11.9647 13.6927 11.9413 13.726 11.9118C13.7928 11.8526 13.8828 11.7691 13.9762 11.6718C14.0697 11.5744 14.1656 11.4641 14.2446 11.3513C14.3241 11.2378 14.3835 11.1259 14.4085 11.0251C14.4644 10.8002 14.5546 10.3258 14.6312 9.90494C14.6694 9.69507 14.7041 9.4994 14.7292 9.35618L14.759 9.18553L14.7671 9.1387L14.7692 9.12648L14.7693 9.12574M14.7693 9.12574L14.7692 9.1276L14.7692 9.12788L14.8449 9.13521M14.7693 9.12574L14.7697 9.12337L14.7699 9.12259L14.7699 9.12239L14.7699 9.12234L14.8449 9.13521M14.8449 9.13521C14.8449 9.13521 14.8913 8.65961 14.4592 8.38701C14.2263 8.24007 14.2184 7.87487 14.2106 7.51627C14.2039 7.20963 14.1974 6.90781 14.0503 6.75141C13.7344 6.41539 12.6847 5.87744 11.3857 6.26421M14.8449 9.13521L11.3857 6.26421M11.3857 6.26421L11.4237 6.27291V6.27581H11.3536" fill="white" stroke="#151924" stroke-width="0.152289"/>
<path d="M10.6418 11.6553C11.0043 12.041 12.3296 12.7051 13.1155 12.3368" stroke="#151924" stroke-width="0.0899001" stroke-miterlimit="10"/>
<path d="M14.7152 9.86539C14.7152 9.86539 14.8573 9.22449 15.1502 9.24769C15.4431 9.27089 15.5475 9.78129 15.3648 10.0887C15.1821 10.3961 14.5586 10.6832 14.5586 10.6803L14.7123 9.86539H14.7152Z" fill="white"/>
<path d="M9.8359 9.86539C9.8359 9.86539 9.6938 9.22449 9.4009 9.24769C9.1051 9.27089 9.0036 9.78129 9.1863 10.0887C9.369 10.3961 9.9925 10.6832 9.9925 10.6803L9.8388 9.86539H9.8359Z" fill="white"/>
<path d="M11.7007 10.7212C11.7007 10.7212 11.8202 11.2598 12.517 11.2598C13.2138 11.2598 13.3625 10.7212 13.3625 10.7212" stroke="#151924" stroke-width="0.10514"/>
<path d="M12.4449 8.88525C12.4449 8.88525 12.3376 9.51165 12.4449 9.58125C12.5522 9.65085 12.8364 9.67985 12.8161 9.77845C12.7958 9.87705 12.4449 9.96695 12.4449 9.96695" stroke="#151924" stroke-width="0.0899001" stroke-miterlimit="10"/>
<path d="M11.5505 8.79775C11.5505 9.01525 11.4925 9.18925 11.4171 9.18925C11.3417 9.18925 11.2837 9.01525 11.2837 8.79775C11.2837 8.58025 11.3417 8.40625 11.4171 8.40625C11.4925 8.40625 11.5505 8.58025 11.5505 8.79775Z" fill="#151924"/>
<path d="M13.3828 8.79775C13.3828 9.01525 13.3248 9.18925 13.2494 9.18925C13.174 9.18925 13.116 9.01525 13.116 8.79775C13.116 8.58025 13.174 8.40625 13.2494 8.40625C13.3248 8.40625 13.3828 8.58025 13.3828 8.79775Z" fill="#151924"/>
<path d="M12.9021 8.1225C12.9021 8.1225 13.3748 7.7397 13.8214 7.9253" stroke="#151924" stroke-width="0.2175" stroke-miterlimit="10"/>
<path d="M11.649 8.1225C11.649 8.1225 11.1763 7.7397 10.7297 7.9253" stroke="#151924" stroke-width="0.2175" stroke-miterlimit="10"/>
<path d="M12.4444 16.2168C12.4444 16.2168 12.3893 17.0549 12.398 17.6784C12.4067 18.3019 12.1921 19.4619 12.398 20.1376C12.6039 20.8133 12.282 22.6026 12.282 22.6026" stroke="#151924" stroke-width="0.0899001" stroke-miterlimit="10"/>
</g>
<defs>
<clipPath id="clip0_233_1835">
<rect x="0.706055" width="22.8764" height="22.8764" rx="11.4382" fill="white"/>
</clipPath>
</defs>
</svg>
