<svg width="24" height="23" viewBox="0 0 24 23" fill="none" xmlns="http://www.w3.org/2000/svg">
<g clip-path="url(#clip0_233_1921)">
<circle cx="11.8972" cy="11.4377" r="11.4382" fill="#03FFFF"/>
<path d="M11.8941 3.15869C13.8726 3.22251 15.3555 6.27839 15.8886 8.44829C16.4216 10.6182 17.3714 11.9359 18.0585 12.5891C18.7417 13.2423 18.3625 15.1832 18.0585 16.287C17.7544 17.3907 18.8243 18.4118 18.4414 20.2025C18.0585 21.9933 14.6722 22.6653 11.2484 22.7103C7.82464 22.7554 4.40086 22.9468 4.20939 21.1185C4.01793 19.294 4.13431 17.9988 4.47594 16.3245C4.81757 14.6501 3.94285 13.4188 4.51348 12.2475C5.08411 11.0762 6.18783 10.2015 6.567 8.33566C6.94617 6.46985 8.31643 3.04607 11.8941 3.16245V3.15869Z" fill="#151924"/>
<path d="M18.9676 35.5226H4.2131L4.21351 35.4459L4.21632 34.9488C4.21882 34.5203 4.22258 33.9075 4.22766 33.1704C4.23781 31.6963 4.25317 29.7254 4.27406 27.738C4.29494 25.7505 4.32133 23.7468 4.35352 22.207C4.36962 21.437 4.38716 20.7835 4.40616 20.3063C4.41567 20.0675 4.42551 19.8736 4.43567 19.7316C4.44076 19.6605 4.44586 19.6032 4.45093 19.5603C4.45347 19.5388 4.45591 19.5216 4.4582 19.5085C4.45934 19.5019 4.46038 19.4968 4.46126 19.4929L4.46236 19.4885C4.46266 19.4874 4.46282 19.4869 4.46281 19.4869C4.47297 19.4565 4.5142 19.4078 4.61647 19.3452C4.71382 19.2856 4.84802 19.2241 5.01159 19.1595C5.22536 19.075 5.47935 18.9887 5.75312 18.8957C5.89972 18.8459 6.05199 18.7942 6.20679 18.7397C6.64677 18.5851 7.10259 18.4102 7.48087 18.2023C7.85591 17.9961 8.17248 17.7482 8.31102 17.4388L8.31107 17.4387C8.55882 16.8835 8.81952 16.4364 9.3506 16.1598C9.8862 15.8808 10.7141 15.7665 12.1177 15.9309L12.1178 15.9309C12.3822 15.9616 12.6421 15.968 12.8874 15.9701C12.9407 15.9705 12.9931 15.9708 13.0446 15.971C13.2326 15.972 13.4096 15.9729 13.576 15.983C14.0017 16.009 14.319 16.0944 14.5164 16.361L14.5166 16.3613C14.6193 16.4988 14.6667 16.6349 14.7043 16.7759C14.7123 16.8057 14.7199 16.8365 14.7278 16.868C14.7558 16.981 14.786 17.1025 14.84 17.2178C14.9865 17.5313 15.2993 17.7951 16.1359 18.0156L16.136 18.0157C16.4347 18.0942 16.6955 18.1589 16.9243 18.2156C17.3358 18.3176 17.6437 18.3939 17.8829 18.4796C18.0661 18.5452 18.2001 18.6136 18.3034 18.6978C18.4055 18.781 18.4821 18.8832 18.5452 19.0232L18.6351 18.9828M18.9676 35.5226L18.9671 35.4433L18.9637 34.9383C18.9606 34.5029 18.9557 33.8799 18.9488 33.13C18.935 31.6301 18.9131 29.6224 18.8805 27.5907C18.8479 25.559 18.8046 23.5039 18.7481 21.9091C18.7199 21.1116 18.6884 20.43 18.6534 19.9244C18.6358 19.6714 18.6175 19.4636 18.5984 19.3078C18.5888 19.2299 18.5792 19.166 18.5696 19.1166C18.5596 19.0653 18.5509 19.036 18.545 19.0229L18.6351 18.9828M18.9676 35.5226H19.0662C19.0579 34.1868 18.9609 19.7132 18.6351 18.9828M18.9676 35.5226L14.5956 16.3023M18.6351 18.9828C18.4095 18.4822 18.0009 18.3809 16.9405 18.118C16.7124 18.0614 16.4541 17.9974 16.1611 17.9203C15.0163 17.6185 14.9245 17.25 14.8249 16.8498C14.7807 16.6725 14.735 16.489 14.5956 16.3023M14.5956 16.3023C14.2818 15.8786 13.7111 15.8758 13.0435 15.8725C12.7527 15.871 12.4435 15.8695 12.1291 15.833C9.30976 15.5027 8.72036 16.2798 8.22105 17.3985L14.5956 16.3023Z" fill="white" stroke="#151924" stroke-width="0.197143"/>
<path d="M8.37988 17.7031C8.37988 17.7031 8.43995 17.8683 8.90922 18.1912C9.37849 18.514 10.0542 18.6304 10.6136 18.8068C11.173 18.9833 12.318 18.8857 12.9149 18.8256C13.5118 18.7655 15.0022 18.2362 15.0022 18.2362" stroke="#151924" stroke-width="0.197143" stroke-miterlimit="10" stroke-linecap="round"/>
<path d="M6.95969 20.7056C6.95969 20.7056 6.85832 21.8956 6.75321 22.41C6.64809 22.9243 6.44537 23.615 6.25391 24.0993" stroke="#151924" stroke-width="0.116379" stroke-miterlimit="10"/>
<path d="M16.0859 20.7959C16.0859 20.7959 16.3224 21.9747 16.6753 22.5829C17.0282 23.191 17.3023 24.4637 17.4975 24.6777" stroke="#151924" stroke-width="0.197143" stroke-miterlimit="10" stroke-linecap="round"/>
<path d="M6.25656 25.8606L6.15809 25.8649L6.17043 26.1475L6.33639 25.9184L6.25656 25.8606ZM6.25656 25.8606L6.15808 25.8648L6.15808 25.8647L6.15806 25.8643L6.15798 25.8625L6.15766 25.8553L6.15642 25.8271L6.15157 25.7191C6.14735 25.6256 6.14117 25.4909 6.13341 25.3263C6.11787 24.9971 6.09594 24.5481 6.07038 24.069C6.01916 23.1091 5.95362 22.0335 5.89591 21.5551L5.89591 21.5551C5.8239 20.9563 5.74146 20.3201 5.52503 19.8985C5.41821 19.6904 5.28461 19.5467 5.11451 19.4807C4.96892 19.4243 4.7821 19.4192 4.5379 19.5002L4.41759 19.5507C3.06639 20.117 2.75173 21.5244 2.91951 23.0643C2.97953 23.615 2.94251 24.6778 2.89824 25.949L2.89803 25.9548L2.89779 25.9617C2.85331 27.2389 2.80122 28.7344 2.82856 30.1619C2.85599 31.5936 2.96329 32.9487 3.23495 33.9433C3.37086 34.441 3.54579 34.8401 3.76591 35.113C3.98362 35.3829 4.24253 35.5266 4.55593 35.5266C4.86977 35.5266 5.19912 35.3619 5.54041 35.0462C5.8808 34.7313 6.22288 34.2753 6.56034 33.7152C7.235 32.5956 7.88072 31.078 8.45294 29.493C9.59715 26.3237 10.4405 22.9049 10.6309 21.9114L10.6409 21.8597L10.6893 21.8392C11.0568 21.6835 11.4664 21.3861 11.7883 21.1226C11.9482 20.9917 12.0847 20.8706 12.1811 20.7824C12.2293 20.7383 12.2674 20.7024 12.2935 20.6777L12.3231 20.6492L12.3306 20.6419L12.3325 20.6401L12.3329 20.6397L12.333 20.6396L12.333 20.6396L12.333 20.6396L12.4092 20.5646L12.4778 20.6467L13.4463 21.8067L13.462 21.8254L13.4671 21.8492L13.3707 21.8699L13.4671 21.8493L13.4671 21.8496L13.4674 21.8506L13.4683 21.8549L13.4718 21.8715L13.4858 21.9364L13.5389 22.1841L13.7303 23.0778C13.8898 23.8231 14.105 24.8301 14.3282 25.8776C14.7743 27.9718 15.2523 30.2292 15.3783 30.876L15.3783 30.8762C15.5536 31.7827 15.896 32.9527 16.4893 33.8935C17.0821 34.8334 17.915 35.5303 19.0732 35.5303C19.4395 35.5303 19.7372 35.3845 19.9821 35.12C20.2296 34.8526 20.4241 34.4625 20.5724 33.9769C20.869 33.0058 20.9719 31.684 20.9719 30.2938C20.9719 28.2579 20.7524 26.1039 20.6114 24.721C20.5597 24.2136 20.5186 23.81 20.5028 23.5541C20.445 22.6203 20.2558 21.4919 19.9118 20.5649C19.7399 20.1014 19.5308 19.6926 19.2836 19.3841C19.0365 19.0758 18.7562 18.8736 18.4416 18.8093C18.1289 18.7454 17.9059 18.8302 17.7378 19.0008C17.5638 19.1775 17.4423 19.4531 17.3598 19.7791C17.2029 20.3981 17.1973 21.1507 17.1939 21.6102C17.1937 21.6341 17.1935 21.6571 17.1934 21.6793C17.1896 22.1225 17.2504 23.5483 17.3125 24.8677C17.3434 25.5264 17.3746 26.1572 17.3981 26.6233C17.4098 26.8564 17.4196 27.0483 17.4265 27.1819L17.4344 27.3365L17.4365 27.377L17.4371 27.3874L17.4372 27.39L17.4372 27.3907L17.4372 27.3908L17.3388 27.396L17.4372 27.3909L17.2476 27.4333L14.9162 21.7308L14.9108 21.7176L14.9118 21.7173L14.4501 19.8665L14.4013 19.6709L14.5856 19.7525L14.7793 19.8383C14.7091 19.7359 14.578 19.5932 14.3942 19.4468C14.3728 19.4297 14.3509 19.4122 14.3284 19.3942C14.1154 19.2238 13.8544 19.015 13.5824 18.8565C13.2776 18.6788 12.9852 18.5803 12.7462 18.6429C12.693 18.6568 12.6057 18.7011 12.4861 18.7793C12.3694 18.8558 12.2303 18.9589 12.0758 19.082C11.767 19.3279 11.4016 19.6495 11.0389 19.9867C10.3107 20.6636 9.60565 21.3921 9.39268 21.6907C9.17282 21.9988 8.40858 23.056 7.69964 24.0357C7.3451 24.5256 7.00429 24.9963 6.75211 25.3445L6.44968 25.762L6.36588 25.8777L6.34391 25.908L6.33828 25.9158L6.33686 25.9178L6.3365 25.9182L6.33642 25.9184L6.25656 25.8606ZM14.8341 19.9442C14.834 19.9441 14.8339 19.9436 14.8339 19.9426L14.8341 19.9442Z" fill="white" stroke="#151924" stroke-width="0.197143"/>
<path d="M13.7396 11.4852C13.737 11.4665 13.736 11.451 13.7355 11.4403L14.0135 10.7473C14.031 10.7211 14.0483 10.6949 14.0655 10.6688C14.1511 10.5387 14.2339 10.413 14.334 10.327C14.3925 10.2769 14.451 10.2461 14.5127 10.2366C14.5733 10.2272 14.6471 10.2368 14.7398 10.2851C14.7956 10.3146 14.8388 10.3947 14.8378 10.5509C14.8369 10.7009 14.794 10.889 14.7206 11.0764C14.6473 11.2633 14.5465 11.442 14.436 11.5742C14.3221 11.7104 14.213 11.7793 14.1259 11.7851C14.0135 11.7924 13.9387 11.7706 13.8881 11.7407C13.8372 11.7106 13.8032 11.6679 13.7799 11.6213C13.7564 11.574 13.7449 11.5243 13.7396 11.4852Z" fill="white" stroke="#151924" stroke-width="0.197143"/>
<path d="M13.5193 16.3248H13.4207C13.4207 16.3248 13.4207 16.3248 13.4207 16.3248L13.5193 16.3248ZM13.4207 16.301L13.4207 16.3163C13.4188 16.3192 13.4151 16.3245 13.4079 16.3322C13.3897 16.3516 13.3592 16.3765 13.3144 16.4059C13.2254 16.4645 13.0944 16.5315 12.9324 16.6013C12.6094 16.7404 12.1765 16.8845 11.743 16.9887C11.3079 17.0933 10.8809 17.1555 10.5668 17.136C10.4089 17.1262 10.2907 17.0964 10.2148 17.0502C10.1453 17.0078 10.1115 16.9529 10.1115 16.8729V13.9146V13.8463L10.0477 13.8224L10.0476 13.8224L10.0476 13.8224L10.0475 13.8224L10.0475 13.8223L10.0464 13.8219L10.0401 13.8194C10.0343 13.8169 10.0253 13.813 10.0134 13.8075C9.98968 13.7965 9.95468 13.7791 9.91162 13.7543C9.82543 13.7045 9.70735 13.625 9.58261 13.5074C9.33399 13.273 9.05682 12.8854 8.95381 12.2727C8.8475 11.6405 8.78396 10.9924 8.74701 10.5017C8.72854 10.2566 8.71674 10.0511 8.70956 9.90692C8.70597 9.83486 8.70354 9.77816 8.702 9.73954L8.7012 9.71828L8.70377 9.71527C8.72152 9.69473 8.74805 9.6646 8.78272 9.62685C8.85209 9.55133 8.95391 9.44546 9.08296 9.32496C9.3415 9.08353 9.70716 8.78539 10.1383 8.55423C10.9597 8.11384 11.8056 7.61636 12.2937 6.92185C12.3166 6.96827 12.3445 7.02374 12.3769 7.08675C12.4793 7.28574 12.6273 7.56029 12.8098 7.86273C13.1649 8.45098 13.6564 9.15435 14.2029 9.60834C14.1782 10.0421 14.0651 10.7994 13.9168 11.5265C13.8399 11.9034 13.754 12.2701 13.6669 12.577C13.5789 12.8869 13.492 13.1267 13.4156 13.2564L13.4014 13.2805L13.4019 13.3085C13.4113 13.7674 13.416 14.5212 13.4183 15.1609C13.4195 15.4806 13.4201 15.7716 13.4204 15.9827L13.4206 16.2329L13.4207 16.301Z" fill="white" stroke="#151924" stroke-width="0.197143"/>
<path d="M10.165 13.9594C10.165 13.9594 10.7394 14.2372 11.4565 14.2221C12.1773 14.2071 12.9318 13.8017 13.251 13.4863" stroke="#151924" stroke-width="0.116379" stroke-miterlimit="10"/>
<path d="M10.1157 11.5979C10.1157 11.5979 10.7126 12.2061 12.143 11.519" stroke="#151924" stroke-width="0.116379" stroke-miterlimit="10"/>
<path d="M12.0063 11.2866L12.2579 11.7259" stroke="#151924" stroke-width="0.116379" stroke-miterlimit="10"/>
<path d="M10.762 9.71045C10.7245 9.9357 10.762 10.3975 10.6231 10.4838C10.4842 10.5701 10.1614 10.5213 10.1614 10.6715C10.1614 10.8217 10.5443 11.0131 10.5443 11.0131" stroke="#151924" stroke-width="0.116379" stroke-miterlimit="10"/>
<path d="M12.2094 9.96807C12.2094 10.1821 12.1268 10.3585 12.0217 10.3585C11.9166 10.3585 11.834 10.1858 11.834 9.96807C11.834 9.75033 11.9166 9.57764 12.0217 9.57764C12.1268 9.57764 12.2094 9.75033 12.2094 9.96807Z" fill="#151924"/>
<path d="M10.1186 9.70977C10.1186 9.92375 10.036 10.1002 9.93087 10.1002C9.82576 10.1002 9.74316 9.92751 9.74316 9.70977C9.74316 9.49203 9.82576 9.31934 9.93087 9.31934C10.036 9.31934 10.1186 9.49203 10.1186 9.70977Z" fill="#151924"/>
<path d="M11.8376 8.91762C11.8376 8.91762 12.3595 8.88008 12.8588 9.24048Z" fill="#151924"/>
<path d="M11.8376 8.91762C11.8376 8.91762 12.3595 8.88008 12.8588 9.24048" stroke="#151924" stroke-width="0.281561" stroke-linecap="round" stroke-linejoin="round"/>
<path d="M22.5034 18.2622C21.0652 19.1261 20.67 20.8171 20.7389 22.1129C20.8124 23.4088 21.6763 25.3847 21.8187 26.1796C21.9612 26.97 22.1404 28.808 22.5034 29.5249C22.8619 30.2463 23.1146 32.2222 23.1146 32.2222V32.6542C23.1146 32.6542 23.5787 32.3141 25.3938 31.7306C27.6546 31.0045 29.125 31.1791 30.0211 31.2159C30.9217 31.2527 31.6386 31.3951 31.6386 31.3951C31.6386 31.3951 30.9033 27.3008 30.5955 26.5381C30.2876 25.7707 30.0992 24.2772 30.0992 23.9326" stroke="#151924" stroke-width="0.289494" stroke-miterlimit="10"/>
</g>
<defs>
<clipPath id="clip0_233_1921">
<rect x="0.458984" width="22.8764" height="22.8764" rx="11.4382" fill="white"/>
</clipPath>
</defs>
</svg>
