<svg width="24" height="23" viewBox="0 0 24 23" fill="none" xmlns="http://www.w3.org/2000/svg">
<g clip-path="url(#clip0_233_1897)">
<circle cx="11.7737" cy="11.4377" r="11.4382" fill="#FF900E"/>
<path d="M22.3799 18.2622C20.9416 19.1261 20.5464 20.8171 20.6154 22.1129C20.6889 23.4088 21.5528 25.3847 21.6952 26.1796C21.8377 26.97 22.0169 28.808 22.3799 29.5249C22.7383 30.2463 22.991 32.2222 22.991 32.2222V32.6542C22.991 32.6542 23.4552 32.3141 25.2702 31.7306C27.531 31.0045 29.0015 31.1791 29.8975 31.2159C30.7982 31.2527 31.515 31.3951 31.515 31.3951C31.515 31.3951 30.7798 27.3008 30.4719 26.5381C30.1641 25.7707 29.9757 24.2772 29.9757 23.9326" stroke="#151924" stroke-width="0.289494" stroke-miterlimit="10"/>
<path d="M12.1275 14.5189L12.1273 14.5189C11.9811 14.5313 11.8018 14.5425 11.5984 14.5552C11.0062 14.5922 10.2098 14.6419 9.43254 14.7721C8.91168 14.8593 8.40596 14.9818 7.98309 15.1582C7.55868 15.3353 7.22949 15.5618 7.0462 15.8497C6.66244 16.4524 6.58186 17.1796 6.60066 17.7649C6.61002 18.0563 6.64391 18.3093 6.67544 18.4894C6.69119 18.5793 6.70632 18.6509 6.71743 18.6996C6.72299 18.724 6.72753 18.7427 6.73065 18.7551L6.7342 18.769L6.73506 18.7722L6.73525 18.7729L6.73527 18.773L6.73528 18.7731L6.63187 18.8012C3.4555 21.6932 2.10681 26.6045 1.50566 28.7935L12.1275 14.5189ZM12.1275 14.5189C13.1455 14.4303 14.1967 14.5236 15.1207 14.7728C16.0463 15.0224 16.8354 15.4258 17.3385 15.9502L17.3386 15.9503C17.846 16.4774 18.1238 17.1166 18.2744 17.6277C18.3496 17.8828 18.3927 18.1045 18.417 18.262C18.4292 18.3407 18.4366 18.4033 18.4409 18.4459C18.4431 18.4672 18.4445 18.4835 18.4454 18.4942L18.4463 18.5062L18.4465 18.509L18.4465 18.5096L18.4465 18.5096C18.4465 18.5096 18.4465 18.5096 18.4465 18.5096C18.4479 18.5335 18.4573 18.5562 18.4731 18.5741L18.5535 18.5033L18.4731 18.5741L18.4731 18.5742L18.4734 18.5744L18.4743 18.5755L18.4782 18.5799L18.4933 18.5972L18.5512 18.6638C18.6013 18.7217 18.6733 18.8053 18.7607 18.9083C18.9355 19.1144 19.1717 19.3976 19.4173 19.7066C19.6631 20.0158 19.9177 20.3498 20.1295 20.6576C20.343 20.9677 20.5076 21.2433 20.5796 21.4376L20.5797 21.438C20.7385 21.8615 21.0195 22.417 21.2585 22.8634C21.3785 23.0873 21.4886 23.285 21.5688 23.4268C21.6088 23.4977 21.6414 23.5546 21.664 23.5938L21.6901 23.639L21.697 23.6508L21.6987 23.6538L21.6992 23.6546L21.6993 23.6548L21.6993 23.6548L21.7919 23.6008L21.6994 23.6549C21.7152 23.682 21.7422 23.7008 21.7732 23.7063C21.8041 23.7118 21.836 23.7034 21.8602 23.6833L28.5968 18.1103C28.6238 18.1689 28.6596 18.245 28.7029 18.3339C28.8062 18.5459 28.9526 18.8313 29.1244 19.1233C29.2959 19.4148 29.4945 19.7161 29.7027 19.9584C29.8663 20.1488 30.0451 20.3138 30.2297 20.4023C29.8188 21.0151 29.2338 22.0474 28.7314 22.9339C28.4778 23.3816 28.2452 23.792 28.0667 24.0925C27.7912 24.5563 27.122 25.4938 26.2097 26.3325C25.2956 27.1729 24.1521 27.9007 22.9271 27.9731C21.6829 28.0466 20.7109 27.8073 20.0512 27.5508C19.7213 27.4225 19.4694 27.2899 19.3007 27.1899C19.2164 27.1399 19.1529 27.0981 19.1109 27.0691C19.0898 27.0546 19.0742 27.0433 19.064 27.0358L19.0529 27.0274L19.0504 27.0255L19.0499 27.0252C19.0499 27.0251 19.0499 27.0251 19.0499 27.0251L19.0498 27.0251C19.0169 26.9993 18.9719 26.995 18.9347 27.0142C18.8974 27.0334 18.8748 27.0725 18.8767 27.1144L19.2378 34.9921C19.2394 35.0254 19.2563 35.0561 19.2836 35.0751L22.5345 37.3417L5.56415 34.4169C4.30473 34.1999 3.08051 33.652 2.2902 32.7378C1.50445 31.829 1.13654 30.5455 1.6078 28.8263M12.1275 14.5189L1.6078 28.8263M1.6078 28.8263L1.60781 28.8262L1.6078 28.8263Z" fill="white" stroke="#151924" stroke-width="0.214338" stroke-linejoin="round"/>
<path d="M16.1603 9.93188C16.1603 9.93188 17.6791 9.26589 17.7152 8.19111C17.7514 7.11634 16.8637 6.61958 15.7108 6.26765C14.5619 5.9164 12.6489 3.96727 9.87663 4.74444C7.64003 5.36956 5.87549 11.1621 9.91453 13.4404C13.9543 15.7146 16.1596 9.9359 16.1596 9.9359L16.1603 9.93188Z" fill="#151924"/>
<mask id="path-6-inside-1_233_1897" fill="white">
<path d="M16.2764 8.76262C15.5789 9.18084 14.9967 8.28114 14.5881 8.51307C14.1795 8.745 13.8187 8.96445 13.2515 8.86671C12.6844 8.76896 12.2412 8.45651 11.9081 8.63517C11.575 8.81384 11.3215 8.77016 11.0735 9.46464C10.8261 10.1551 10.7775 11.4224 10.3952 11.3814C10.0137 11.3363 9.40364 11.1028 9.2207 11.1789C9.03374 11.2544 8.60908 11.7238 9.00026 12.458C9.39074 13.1963 10.0299 13.5011 10.0299 13.5011C10.0299 13.5011 9.8841 15.3563 9.80994 15.9068C9.73577 16.4573 12.8263 17.4621 13.2417 17.8154C13.8719 17.427 14.3894 16.8038 14.4601 16.5136C14.5308 16.2234 14.5691 14.6313 14.5691 14.6313C14.5691 14.6313 15.6391 13.9501 16.0597 12.8795C16.481 11.8048 16.2717 8.76595 16.2717 8.76595"/>
</mask>
<path d="M16.2764 8.76262C15.5789 9.18084 14.9967 8.28114 14.5881 8.51307C14.1795 8.745 13.8187 8.96445 13.2515 8.86671C12.6844 8.76896 12.2412 8.45651 11.9081 8.63517C11.575 8.81384 11.3215 8.77016 11.0735 9.46464C10.8261 10.1551 10.7775 11.4224 10.3952 11.3814C10.0137 11.3363 9.40364 11.1028 9.2207 11.1789C9.03374 11.2544 8.60908 11.7238 9.00026 12.458C9.39074 13.1963 10.0299 13.5011 10.0299 13.5011C10.0299 13.5011 9.8841 15.3563 9.80994 15.9068C9.73577 16.4573 12.8263 17.4621 13.2417 17.8154C13.8719 17.427 14.3894 16.8038 14.4601 16.5136C14.5308 16.2234 14.5691 14.6313 14.5691 14.6313C14.5691 14.6313 15.6391 13.9501 16.0597 12.8795C16.481 11.8048 16.2717 8.76595 16.2717 8.76595" fill="white"/>
<path d="M11.0735 9.46464L11.2752 9.53694L11.2753 9.53674L11.0735 9.46464ZM10.3952 11.3814L10.3701 11.5942L10.3723 11.5945L10.3952 11.3814ZM9.2207 11.1789L9.30093 11.3777L9.30308 11.3768L9.2207 11.1789ZM9.00026 12.458L9.18973 12.3578L9.18942 12.3572L9.00026 12.458ZM10.0299 13.5011L10.2436 13.5179C10.2505 13.4294 10.2022 13.3458 10.1222 13.3076L10.0299 13.5011ZM13.2417 17.8154L13.1029 17.9786C13.1736 18.0388 13.2751 18.0466 13.3542 17.9978L13.2417 17.8154ZM14.5691 14.6313L14.454 14.4505C14.3938 14.4889 14.3566 14.5547 14.3549 14.6262L14.5691 14.6313ZM16.0597 12.8795L16.2592 12.9578L16.2593 12.9577L16.0597 12.8795ZM16.1662 8.57879C15.9211 8.72572 15.6967 8.65617 15.4207 8.51647C15.2966 8.45364 15.1386 8.36277 15.0002 8.31186C14.8544 8.25827 14.6658 8.2225 14.4823 8.32667L14.6939 8.69948C14.7147 8.68768 14.7521 8.6774 14.8523 8.7142C14.9596 8.75369 15.0675 8.81812 15.2271 8.89894C15.5187 9.04655 15.9342 9.21774 16.3866 8.94644L16.1662 8.57879ZM14.4823 8.32667C14.0681 8.56182 13.7705 8.73864 13.2879 8.65548L13.2151 9.07793C13.8669 9.19026 14.291 8.92819 14.6939 8.69948L14.4823 8.32667ZM13.2879 8.65548C13.0216 8.60959 12.8021 8.51762 12.5545 8.44224C12.3316 8.37438 12.0582 8.31147 11.8068 8.44628L12.0094 8.82406C12.0912 8.78021 12.2059 8.7842 12.4296 8.85233C12.6287 8.91295 12.9143 9.02608 13.2151 9.07793L13.2879 8.65548ZM11.8068 8.44628C11.7343 8.48515 11.669 8.51063 11.5877 8.54544C11.5101 8.57865 11.4214 8.61915 11.3334 8.68272C11.1493 8.81567 11.0037 9.02267 10.8716 9.39254L11.2753 9.53674C11.3913 9.21213 11.4965 9.09373 11.5844 9.03024C11.6324 8.99558 11.685 8.9701 11.7564 8.93953C11.824 8.91059 11.9153 8.87452 12.0094 8.82406L11.8068 8.44628ZM10.8717 9.39234C10.8045 9.5797 10.7527 9.80061 10.7071 10.017C10.6601 10.2405 10.6211 10.4518 10.5759 10.6496C10.5307 10.8478 10.4856 11.0015 10.4361 11.1001C10.3792 11.2134 10.3668 11.1627 10.4181 11.1682L10.3723 11.5945C10.6147 11.6205 10.7518 11.4268 10.8192 11.2924C10.8941 11.1434 10.9483 10.9449 10.9939 10.745C11.0396 10.5448 11.083 10.3124 11.1266 10.1053C11.1717 9.89122 11.2187 9.6948 11.2752 9.53694L10.8717 9.39234ZM10.4203 11.1685C10.2468 11.148 10.021 11.0843 9.78434 11.0265C9.67204 10.999 9.55721 10.9732 9.45615 10.9596C9.36743 10.9478 9.24252 10.9377 9.13833 10.9811L9.30308 11.3768C9.29035 11.3821 9.31029 11.3726 9.39932 11.3845C9.47602 11.3948 9.57185 11.4158 9.68261 11.4429C9.89203 11.4941 10.162 11.5696 10.3701 11.5942L10.4203 11.1685ZM9.14048 10.9802C8.98168 11.0443 8.79042 11.2321 8.69259 11.4972C8.58925 11.7773 8.58893 12.1418 8.81109 12.5588L9.18942 12.3572C9.02041 12.04 9.03683 11.8026 9.09477 11.6456C9.15821 11.4737 9.27277 11.3891 9.30093 11.3777L9.14048 10.9802ZM8.81079 12.5582C9.02287 12.9592 9.30181 13.2414 9.52683 13.4231C9.63956 13.5142 9.73965 13.5808 9.81263 13.6251C9.84915 13.6473 9.87901 13.664 9.9004 13.6755C9.9111 13.6812 9.9197 13.6856 9.92598 13.6888C9.92911 13.6904 9.93167 13.6917 9.93362 13.6926C9.9346 13.6931 9.93542 13.6935 9.93609 13.6938C9.93642 13.694 9.93672 13.6941 9.93697 13.6942C9.9371 13.6943 9.93722 13.6944 9.93733 13.6944C9.93738 13.6944 9.93746 13.6945 9.93748 13.6945C9.93756 13.6945 9.93762 13.6946 10.0299 13.5011C10.1222 13.3076 10.1222 13.3077 10.1223 13.3077C10.1223 13.3077 10.1224 13.3077 10.1224 13.3077C10.1225 13.3078 10.1225 13.3078 10.1226 13.3078C10.1227 13.3079 10.1227 13.3079 10.1228 13.3079C10.1228 13.3079 10.1227 13.3079 10.1225 13.3078C10.122 13.3075 10.1209 13.307 10.1193 13.3062C10.116 13.3045 10.1105 13.3017 10.1029 13.2976C10.0878 13.2896 10.0647 13.2767 10.0352 13.2588C9.97615 13.2229 9.89204 13.1671 9.79618 13.0897C9.60401 12.9344 9.36813 12.6951 9.18973 12.3578L8.81079 12.5582ZM10.0299 13.5011C9.81621 13.4843 9.81621 13.4843 9.81621 13.4843C9.81621 13.4843 9.81621 13.4844 9.8162 13.4844C9.8162 13.4844 9.81619 13.4845 9.81618 13.4846C9.81617 13.4849 9.81614 13.4852 9.81611 13.4856C9.81604 13.4865 9.81593 13.4878 9.81579 13.4896C9.81552 13.4931 9.8151 13.4983 9.81456 13.5052C9.81348 13.5188 9.81188 13.539 9.80982 13.5649C9.8057 13.6166 9.79972 13.6911 9.79232 13.7822C9.77751 13.9645 9.757 14.2133 9.73417 14.4792C9.6883 15.0136 9.63376 15.6092 9.59752 15.8782L10.0224 15.9354C10.0603 15.6539 10.1157 15.0467 10.1613 14.5159C10.1842 14.2491 10.2047 13.9997 10.2196 13.8169C10.227 13.7255 10.233 13.6508 10.2371 13.5989C10.2392 13.573 10.2408 13.5527 10.2419 13.539C10.2424 13.5321 10.2429 13.5268 10.2431 13.5233C10.2433 13.5215 10.2434 13.5202 10.2435 13.5193C10.2435 13.5188 10.2435 13.5185 10.2435 13.5182C10.2435 13.5181 10.2436 13.518 10.2436 13.518C10.2436 13.518 10.2436 13.5179 10.2436 13.5179C10.2436 13.5179 10.2436 13.5179 10.0299 13.5011ZM9.59752 15.8782C9.57435 16.0501 9.67711 16.1906 9.76502 16.2814C9.86138 16.381 9.99501 16.4777 10.1435 16.5698C10.4426 16.7551 10.8464 16.9483 11.2548 17.1308C11.6599 17.3117 12.0954 17.4932 12.4336 17.6418C12.6062 17.7176 12.7567 17.7862 12.8757 17.846C13.0003 17.9086 13.0727 17.953 13.1029 17.9786L13.3806 17.6521C13.3069 17.5894 13.1918 17.5251 13.0682 17.463C12.939 17.3981 12.7804 17.3259 12.606 17.2493C12.2502 17.093 11.8399 16.9226 11.4296 16.7394C11.0228 16.5576 10.6419 16.3743 10.3694 16.2054C10.2321 16.1203 10.1332 16.0455 10.0731 15.9834C10.0046 15.9125 10.027 15.9011 10.0224 15.9354L9.59752 15.8782ZM13.3542 17.9978C13.689 17.7915 13.9913 17.5247 14.2199 17.2712C14.3344 17.1442 14.4327 17.018 14.5083 16.9014C14.5817 16.7884 14.6423 16.6713 14.6684 16.5643L14.2519 16.4628C14.2426 16.501 14.212 16.5706 14.1487 16.6681C14.0877 16.7622 14.004 16.8705 13.9016 16.9841C13.6962 17.2118 13.4246 17.4509 13.1293 17.6329L13.3542 17.9978ZM14.6684 16.5643C14.6911 16.4708 14.7076 16.2976 14.7208 16.1123C14.7345 15.9193 14.746 15.6907 14.7553 15.4727C14.7645 15.2545 14.7716 15.0455 14.7763 14.8912C14.7786 14.814 14.7804 14.7504 14.7816 14.7061C14.7822 14.6839 14.7827 14.6665 14.783 14.6547C14.7831 14.6488 14.7832 14.6443 14.7833 14.6412C14.7833 14.6397 14.7834 14.6385 14.7834 14.6377C14.7834 14.6373 14.7834 14.637 14.7834 14.6368C14.7834 14.6367 14.7834 14.6366 14.7834 14.6366C14.7834 14.6365 14.7834 14.6365 14.7834 14.6365C14.7834 14.6365 14.7834 14.6365 14.5691 14.6313C14.3549 14.6262 14.3549 14.6262 14.3549 14.6262C14.3549 14.6262 14.3549 14.6262 14.3549 14.6262C14.3549 14.6263 14.3548 14.6263 14.3548 14.6264C14.3548 14.6266 14.3548 14.6269 14.3548 14.6273C14.3548 14.628 14.3548 14.6291 14.3547 14.6306C14.3547 14.6336 14.3546 14.638 14.3544 14.6438C14.3541 14.6555 14.3537 14.6726 14.3531 14.6945C14.3519 14.7384 14.3501 14.8015 14.3478 14.8781C14.3431 15.0313 14.3362 15.2385 14.327 15.4546C14.3178 15.6709 14.3065 15.8948 14.2932 16.0819C14.2793 16.2767 14.2644 16.4113 14.2519 16.4628L14.6684 16.5643ZM14.5691 14.6313C14.6842 14.8121 14.6843 14.8121 14.6843 14.8121C14.6844 14.812 14.6844 14.812 14.6845 14.812C14.6846 14.8119 14.6847 14.8118 14.6848 14.8118C14.6851 14.8116 14.6854 14.8114 14.6858 14.8111C14.6865 14.8106 14.6876 14.81 14.6889 14.8092C14.6914 14.8075 14.695 14.8052 14.6995 14.8022C14.7085 14.7962 14.7213 14.7876 14.7375 14.7765C14.7699 14.7542 14.8158 14.7216 14.8719 14.6793C14.984 14.5948 15.1373 14.471 15.3043 14.3123C15.6362 13.997 16.033 13.5337 16.2592 12.9578L15.8602 12.8011C15.6659 13.2959 15.3174 13.7085 15.0091 14.0015C14.856 14.1469 14.7156 14.2603 14.6138 14.337C14.5631 14.3753 14.5221 14.4043 14.4943 14.4234C14.4805 14.433 14.4699 14.4401 14.463 14.4446C14.4596 14.4469 14.4571 14.4485 14.4556 14.4495C14.4548 14.45 14.4543 14.4503 14.454 14.4505C14.4539 14.4506 14.4538 14.4506 14.4538 14.4506C14.4538 14.4506 14.4538 14.4506 14.4539 14.4506C14.4539 14.4506 14.4539 14.4506 14.4539 14.4506C14.454 14.4505 14.454 14.4505 14.5691 14.6313ZM16.2593 12.9577C16.3762 12.6594 16.4441 12.2428 16.484 11.8028C16.5245 11.3579 16.5379 10.8703 16.538 10.4198C16.5382 9.96879 16.5251 9.5521 16.5119 9.2483C16.5054 9.09632 16.4988 8.97239 16.4938 8.88631C16.4914 8.84327 16.4893 8.80967 16.4878 8.78675C16.4871 8.77529 16.4865 8.7665 16.4861 8.76052C16.4859 8.75754 16.4858 8.75526 16.4857 8.7537C16.4856 8.75292 16.4856 8.75232 16.4856 8.75191C16.4855 8.7517 16.4855 8.75154 16.4855 8.75142C16.4855 8.75137 16.4855 8.75131 16.4855 8.75129C16.4855 8.75125 16.4855 8.75122 16.2717 8.76595C16.0578 8.78068 16.0578 8.78067 16.0578 8.78068C16.0578 8.7807 16.0578 8.78072 16.0578 8.78075C16.0579 8.78082 16.0579 8.78094 16.0579 8.7811C16.0579 8.78142 16.0579 8.78193 16.058 8.78261C16.0581 8.78398 16.0582 8.78608 16.0584 8.78887C16.0588 8.79447 16.0593 8.80287 16.06 8.81393C16.0614 8.83604 16.0634 8.86879 16.0659 8.91093C16.0707 8.99524 16.0772 9.11712 16.0837 9.26682C16.0966 9.56639 16.1095 9.97658 16.1094 10.4196C16.1092 10.8632 16.0959 11.3368 16.0571 11.764C16.0179 12.196 15.9539 12.5622 15.8602 12.8012L16.2593 12.9577Z" fill="#151924" mask="url(#path-6-inside-1_233_1897)"/>
<path d="M10.1987 11.7783C10.1987 11.7783 10.0496 13.0283 10.4069 13.6946C10.7683 14.3615 12.0389 15.0154 13.6871 14.993" stroke="#151924" stroke-width="0.214338" stroke-miterlimit="10" stroke-linejoin="round"/>
<path d="M13.7136 10.5163C13.679 10.7174 13.558 10.8663 13.4414 10.8462C13.3248 10.8261 13.2607 10.6453 13.2953 10.4442C13.33 10.243 13.4509 10.0941 13.5676 10.1142C13.6842 10.1343 13.7483 10.3151 13.7136 10.5163Z" fill="#151924"/>
<path d="M15.4834 10.3239C15.4488 10.525 15.3278 10.674 15.2112 10.6538C15.0945 10.6337 15.0304 10.4529 15.0651 10.2518C15.0998 10.0507 15.2207 9.90169 15.3373 9.92179C15.454 9.94189 15.5181 10.1228 15.4834 10.3239Z" fill="#151924"/>
<path d="M12.8356 9.65319C12.8356 9.65319 13.1874 9.36592 13.7923 9.55715" stroke="#151924" stroke-width="0.214338" stroke-linecap="round" stroke-linejoin="round"/>
<path d="M15.0053 9.55915C15.0053 9.55915 15.418 9.4232 15.7483 9.64579" stroke="#151924" stroke-width="0.306119" stroke-linecap="round" stroke-linejoin="round"/>
<path d="M14.7681 10.9346C14.7681 10.9346 14.713 11.4221 15.0414 11.6319C15.3697 11.8418 15.1333 12.1075 14.9294 12.0889" stroke="#151924" stroke-width="0.214338" stroke-miterlimit="10" stroke-linejoin="round"/>
<path d="M12.8783 12.468C12.8783 12.468 14.0696 13.0295 15.194 12.8256" stroke="#151924" stroke-width="0.214338" stroke-miterlimit="10" stroke-linejoin="round"/>
<path d="M6.73804 18.9482C6.73804 18.9482 7.03948 19.6505 7.71774 20.0407C8.3953 20.435 10.4446 21.1609 11.1287 21.2291" stroke="#151924" stroke-width="0.214338" stroke-miterlimit="10" stroke-linejoin="round"/>
<path d="M18.2998 21.4995C18.2998 21.4995 18.5904 23.3223 18.6657 24.1346C18.7411 24.947 18.9855 27.1097 18.9855 27.1097" stroke="#151924" stroke-width="0.236732" stroke-miterlimit="10"/>
<path d="M14.2156 18.5259C14.2156 18.5259 14.4514 18.7198 14.5593 19.3431C14.6673 19.9664 14.834 20.753 15.0762 21.2462C15.3137 21.7428 15.5138 22.3364 15.4672 22.8709C15.4206 23.4055 15.667 24.355 15.667 24.355" stroke="black" stroke-width="0.236732" stroke-miterlimit="10"/>
<path d="M12.978 18.7891C12.978 18.7891 13.0019 19.0831 12.9719 20.0264C12.9385 20.965 12.8546 21.2114 12.8902 21.8223C12.9257 22.4331 12.5364 23.0577 12.59 23.5639C12.6436 24.0701 12.9349 25.0233 12.9349 25.0233" stroke="black" stroke-width="0.236732" stroke-miterlimit="10"/>
<path d="M12.9957 12.1817C12.9534 12.4271 12.6499 12.5778 12.3201 12.5209C11.9903 12.4641 11.7548 12.2205 11.797 11.9752C11.8393 11.7298 12.1428 11.5792 12.4726 11.636C12.8024 11.6928 13.038 11.9364 12.9957 12.1817Z" fill="white"/>
</g>
<defs>
<clipPath id="clip0_233_1897">
<rect x="0.335449" width="22.8764" height="22.8764" rx="11.4382" fill="white"/>
</clipPath>
</defs>
</svg>
