<svg width="24" height="23" viewBox="0 0 24 23" fill="none" xmlns="http://www.w3.org/2000/svg">
<g clip-path="url(#clip0_233_1814)">
<circle cx="12.2678" cy="11.4377" r="11.4382" fill="#BDFA0E"/>
<path d="M15.7883 9.37169C15.7883 9.37169 18.1112 9.44274 18.8123 8.08979C19.5135 6.73685 18.1359 4.7754 16.3937 4.67964C14.6516 4.58389 12.721 3.63868 10.8306 4.24411C9.66299 4.61786 8.65292 6.75539 8.65292 6.75539C8.65292 6.75539 6.64513 7.23417 6.54937 9.38714C6.45362 11.5401 9.44059 13.9495 9.56723 14.6599C9.69388 15.3703 12.2824 10.5795 12.2824 10.5795L15.7883 9.37169V9.37169Z" fill="#151924"/>
<path d="M11.1205 10.1446C11.4449 10.4627 11.5066 9.49282 11.5314 8.69279C11.5364 8.53026 11.5284 8.37881 11.521 8.23864C11.492 7.68887 11.4722 7.31252 12.282 7.12054C13.2982 6.87961 15.2566 6.56454 15.5964 6.90432C15.9361 7.2441 16.1524 8.64646 16.1029 9.12833C16.0889 9.26567 16.0519 9.44933 16.012 9.64705C15.9111 10.1475 15.7921 10.738 15.9825 10.8952C16.2481 11.1114 16.3099 11.3307 16.1091 11.4759C15.9083 11.6211 15.7168 13.0234 15.6674 13.6289C15.618 14.2343 15.0156 14.8861 13.8295 14.815C13.7479 15.4938 13.5588 16.5425 13.5045 16.8384L13.4263 16.8154M11.1205 10.1446L11.1174 10.1477C10.2464 9.30131 9.64403 10.1693 9.73979 10.7994M11.1205 10.1446L11.1175 10.1477L11.1113 10.154L11.1112 10.154L11.0637 10.2025C11.0638 10.2026 11.0639 10.2026 11.064 10.2027C11.0836 10.2219 11.1045 10.2392 11.1267 10.2531M11.1205 10.1446L11.1779 10.2019L11.1748 10.205L11.1267 10.2531M9.73979 10.7994C9.83554 11.4265 10.441 11.8126 10.5861 11.8373C10.7313 11.862 10.7807 12.7115 10.5151 13.2428C10.3979 13.4773 10.2192 13.533 10.0541 13.5846C9.84515 13.6498 9.65784 13.7083 9.64403 14.1138C9.62376 14.7093 9.34362 15.3693 9.24364 15.5872L9.32226 15.6102M9.73979 10.7994L9.81997 10.7872C9.81997 10.7872 9.81997 10.7872 9.81996 10.7872M9.73979 10.7994L9.81996 10.7872M9.32226 15.6102C9.31343 15.6296 9.30577 15.6461 9.29953 15.6593L9.28743 15.6845L13.4115 16.8956L13.4127 16.8889L13.4206 16.8462C13.4223 16.8369 13.4242 16.8267 13.4263 16.8154M9.32226 15.6102L13.4263 16.8154M9.32226 15.6102C9.32981 15.5937 9.3382 15.575 9.3473 15.5543C9.38682 15.4646 9.4397 15.3373 9.49337 15.1871C9.60025 14.8879 9.71231 14.4918 9.72509 14.1166C9.73092 13.9455 9.76908 13.8536 9.81541 13.7982C9.86233 13.7422 9.92713 13.7116 10.0149 13.6822C10.0346 13.6757 10.0553 13.6693 10.0767 13.6626C10.2424 13.6114 10.4542 13.546 10.5876 13.279C10.7279 12.9985 10.783 12.6399 10.7858 12.3508C10.7872 12.2059 10.7755 12.074 10.7527 11.9745C10.7414 11.9252 10.7266 11.8797 10.7066 11.8437C10.6888 11.8114 10.6557 11.7669 10.5998 11.7573C10.5801 11.754 10.5263 11.7327 10.4493 11.6842C10.3754 11.6378 10.2877 11.5712 10.2012 11.4863C10.0276 11.3161 9.86435 11.0779 9.81996 10.7872M13.4263 16.8154C13.4325 16.7813 13.4404 16.7382 13.4495 16.6875C13.4739 16.5528 13.5073 16.3648 13.5438 16.1519C13.6167 15.7259 13.7014 15.2017 13.749 14.8053L13.7581 14.7295L13.8344 14.734C14.9873 14.8031 15.5416 14.1737 15.5866 13.6223C15.6115 13.3172 15.672 12.8127 15.7517 12.3656C15.7914 12.1422 15.8363 11.9311 15.8845 11.7657C15.9085 11.6832 15.9339 11.6099 15.9608 11.5514C15.9861 11.4964 16.0182 11.4415 16.0616 11.4102C16.1024 11.3807 16.125 11.351 16.1364 11.3234C16.1475 11.2964 16.1501 11.2661 16.1418 11.2308C16.1243 11.1565 16.0587 11.0618 15.9313 10.9581L15.9308 10.9577C15.835 10.8786 15.8063 10.7379 15.8012 10.5977C15.7959 10.4515 15.8157 10.2766 15.8445 10.0984C15.8695 9.9434 15.9021 9.78209 15.9326 9.63086C15.9372 9.60771 15.9419 9.58481 15.9464 9.56219C15.9809 9.39014 16.0104 9.23675 16.0223 9.12011L16.0223 9.12005C16.0457 8.89123 16.0059 8.42959 15.9161 7.97889C15.8714 7.75477 15.815 7.53672 15.7495 7.35489C15.683 7.17018 15.6106 7.03328 15.539 6.96167C15.5113 6.93394 15.4596 6.90648 15.3772 6.88455C15.2964 6.86303 15.1939 6.8489 15.0733 6.84184C14.8322 6.82772 14.5287 6.84234 14.201 6.87536C13.5461 6.94134 12.8061 7.07964 12.3007 7.19946C12.0528 7.25822 11.8939 7.33269 11.7912 7.41779C11.6909 7.50092 11.6395 7.59809 11.6141 7.71434C11.5878 7.83414 11.5893 7.97324 11.5972 8.13966C11.5986 8.17 11.6002 8.20118 11.6019 8.23315C11.6093 8.37349 11.6176 8.52903 11.6124 8.6953C11.6001 9.09433 11.5784 9.54334 11.5179 9.85354C11.5027 9.93157 11.4846 10.0028 11.4629 10.0634C11.4415 10.1229 11.4146 10.1777 11.3789 10.2181C11.3417 10.2602 11.2897 10.292 11.2245 10.2873C11.1896 10.2847 11.157 10.2721 11.1267 10.2531M9.81996 10.7872C9.77585 10.4967 9.89488 10.1535 10.1154 9.9842C10.223 9.90166 10.3548 9.85986 10.5087 9.88396C10.6645 9.90837 10.8509 10.0018 11.0609 10.2058L11.1183 10.2615L11.1267 10.2531" fill="white" stroke="#151924" stroke-width="0.162209"/>
<path d="M15.1689 9.89428C15.1689 10.1723 15.0546 10.4009 14.9156 10.4009C14.7766 10.4009 14.6624 10.1754 14.6624 9.89428C14.6624 9.61319 14.7766 9.3877 14.9156 9.3877C15.0546 9.3877 15.1689 9.61319 15.1689 9.89428Z" fill="#151924"/>
<path d="M14.2019 8.91139C14.2019 8.91139 14.7208 8.60868 15.2552 8.91139" stroke="#151924" stroke-width="0.154445" stroke-linecap="round" stroke-linejoin="round"/>
<path d="M15.9342 11.8955C15.6006 11.7658 15.2206 11.5125 14.7295 11.5712C14.2383 11.633 13.8399 12.3681 13.1881 12.3805C12.5364 12.3928 12.6908 11.911 12.5364 11.9697C12.3819 12.0283 12.1132 12.4021 12.453 12.7789C12.7927 13.1527 14.0499 13.3349 14.6646 13.1527C15.2793 12.9705 15.5604 13.0755 15.7396 12.9705C15.9218 12.8623 16.0546 11.9388 15.9342 11.8924V11.8955Z" fill="#151924"/>
<path d="M10.6882 12.5957C10.6882 12.5957 10.6975 14.1216 12.7702 14.6776" stroke="#151924" stroke-width="0.0957561" stroke-miterlimit="10"/>
<path d="M14.6225 31.1648L15.0797 34.5461C15.0797 34.5461 15.8859 36.3192 15.4659 37.5115C15.0458 38.7038 12.692 39.8189 11.1136 40.3749C10.2763 40.6693 8.70756 41.6302 7.26338 42.5148C5.97958 43.3012 4.79424 44.0273 4.30873 44.1712C3.27703 44.477 1.33411 44.7426 0.663815 42.7225C0.215157 41.3703 0.439077 39.5518 0.6464 37.868C0.748816 37.0362 0.847181 36.2374 0.858416 35.5439L14.6225 31.1648ZM14.6225 31.1648C14.6123 31.1483 14.6029 31.1329 14.5943 31.1187C14.5714 31.0811 14.554 31.0515 14.5422 31.0312L14.5287 31.0079L14.5252 31.0017L14.5243 31.0001L14.5241 30.9997L14.524 30.9995L14.5948 30.9599L14.6752 30.9491L14.7005 31.1367C15.075 31.7393 16.3999 33.6751 17.9648 33.6751H23.4538C24.9272 33.6751 24.0716 30.4811 23.6854 30.0085C23.4893 29.7684 23.2182 29.7117 22.7238 29.6083C22.2452 29.5081 21.5573 29.3642 20.5255 28.9676C18.7209 28.2729 16.219 23.0782 15.3144 21.2C15.1692 20.8986 15.0652 20.6825 15.0118 20.5843C14.7848 20.1667 14.5792 19.5603 14.4138 19.0723C14.2978 18.73 14.2015 18.446 14.1314 18.3263C14.0369 18.1677 14.0199 17.8744 14.0027 17.5791C13.9884 17.3338 13.9741 17.087 13.9152 16.9147L13.8385 16.9411C13.8385 16.9411 13.8385 16.9411 13.8385 16.9411C13.8385 16.941 13.8385 16.9409 13.8385 16.9409L14.6225 31.1648ZM9.12663 15.2895V15.2924L9.18547 15.3092L9.20773 15.2312L9.18552 15.3092L9.18567 15.3093L9.18628 15.3094L9.18875 15.3101L9.19852 15.3129L9.23674 15.3239L9.38204 15.366C9.50733 15.4024 9.68649 15.4549 9.90189 15.519C10.3328 15.6473 10.9084 15.8222 11.488 16.0088C12.0678 16.1956 12.6503 16.3936 13.0953 16.5682C13.3181 16.6555 13.5044 16.7362 13.6382 16.806C13.7052 16.841 13.7568 16.8721 13.7925 16.8987C13.826 16.9236 13.8362 16.9379 13.8382 16.9407C13.8385 16.9412 13.8386 16.9413 13.8386 16.9411C13.8935 17.1023 13.9073 17.3373 13.9219 17.5864C13.9233 17.6104 13.9247 17.6347 13.9262 17.659C13.9343 17.7935 13.9439 17.9287 13.9628 18.0492C13.9815 18.1684 14.0104 18.2816 14.0618 18.3678L14.1314 18.3263L14.0614 18.3673C14.0994 18.4321 14.1491 18.5576 14.21 18.7289C14.2489 18.8385 14.2912 18.9632 14.3367 19.0975C14.3615 19.1704 14.3872 19.2463 14.4138 19.3241C14.5641 19.7627 14.7437 20.2609 14.9405 20.623C14.9931 20.7198 15.0956 20.9325 15.2393 21.231C15.3566 21.4745 15.5013 21.775 15.6689 22.1163C16.0406 22.8732 16.5221 23.8248 17.0573 24.7797C17.5923 25.7342 18.182 26.6941 18.7702 27.4666C19.0643 27.8529 19.3592 28.1938 19.6477 28.4642C19.9355 28.734 20.2208 28.9372 20.4964 29.0433L20.4964 29.0433C21.5343 29.4422 22.2271 29.5872 22.7074 29.6877L22.7306 29.6925C23.2181 29.7946 23.4512 29.85 23.6226 30.0599C23.6636 30.11 23.7156 30.2031 23.7724 30.334C23.8284 30.4632 23.8867 30.6238 23.9417 30.8045C24.0519 31.166 24.1477 31.6041 24.1862 32.0264C24.2248 32.4508 24.2044 32.8497 24.0904 33.1389C24.0339 33.2823 23.9557 33.3952 23.8537 33.4722C23.7525 33.5486 23.6224 33.594 23.4538 33.594H17.9648C17.0754 33.594 16.2538 32.9397 15.6451 32.2633C15.3429 31.9275 15.0977 31.5913 14.928 31.3389C14.8432 31.2128 14.7774 31.1078 14.7329 31.0345C14.7106 30.9978 14.6937 30.9691 14.6824 30.9497L14.6697 30.9276L14.6665 30.9221L14.6658 30.9207L14.6656 30.9204L14.6656 30.9204L14.6656 30.9204L14.5144 30.9708L14.9994 34.557L15.001 34.5688L15.0059 34.5797L15.0059 34.5797L15.006 34.5799L15.0064 34.5807L15.008 34.5843L15.0144 34.5988C15.0161 34.6028 15.0181 34.6073 15.0203 34.6124C15.0253 34.624 15.0315 34.6386 15.0387 34.6559C15.0596 34.7059 15.0891 34.7788 15.1232 34.8702C15.1914 35.053 15.2781 35.3089 15.3517 35.6015C15.4999 36.1904 15.5911 36.912 15.3894 37.4845C15.2905 37.7651 15.0752 38.0477 14.7756 38.3241C14.4767 38.5999 14.0989 38.8652 13.6827 39.1121C12.8504 39.6059 11.8726 40.0216 11.0866 40.2984C10.6837 40.4401 10.1196 40.731 9.4882 41.0891C8.85537 41.4479 8.14982 41.8771 7.46263 42.2977C7.38177 42.3472 7.30116 42.3966 7.22096 42.4457C6.61903 42.8144 6.03978 43.1692 5.5441 43.4571C4.9791 43.7852 4.53248 44.0203 4.28568 44.0934C3.77461 44.2449 3.04644 44.3835 2.36754 44.2397C1.69556 44.0974 1.06633 43.6781 0.740793 42.6969C0.411584 41.7048 0.449554 40.4499 0.577715 39.1702C0.620667 38.7413 0.673871 38.3091 0.726177 37.8842C0.828925 37.0494 0.928208 36.2428 0.93951 35.5452L0.939512 35.5451C0.970363 33.4503 1.4058 27.7877 2.86772 24.0051L2.86773 24.0051C3.6639 21.944 4.85974 20.1508 5.86708 18.7861C6.17223 18.3727 6.45775 18.0016 6.71042 17.6732C6.87641 17.4575 7.02823 17.2602 7.16211 17.0814C7.32955 16.8579 7.46805 16.6643 7.56696 16.5047C7.61644 16.4248 7.65691 16.352 7.6863 16.2871C7.71529 16.223 7.73564 16.1621 7.74092 16.1069C7.77192 15.7837 7.89667 15.5174 8.12159 15.3647C8.33703 15.2185 8.66194 15.1645 9.12663 15.2895Z" fill="white" stroke="#151924" stroke-width="0.162209"/>
<path d="M11.0152 17.8115C10.1132 18.3583 9.37188 19.9707 9.53251 21.3267C9.69313 22.6796 10.2368 24.7121 10.6908 25.3237C11.1449 25.9353 11.3179 26.6458 11.7318 27.3871C12.1457 28.1285 13.0137 29.3857 13.1125 29.4505C13.2083 29.5154 14.3018 30.4946 14.5952 30.961" stroke="#151924" stroke-width="0.0957561" stroke-miterlimit="10"/>
<path d="M7.63281 16.2046C7.63281 16.2046 8.09615 16.4826 8.53168 16.6494C8.96722 16.8193 10.1626 16.9645 10.6908 17.1096C11.219 17.2548 11.8801 17.4 12.3465 17.5452C12.8129 17.6904 13.4894 17.8108 13.4894 17.8108" stroke="#151924" stroke-width="0.0772227" stroke-miterlimit="10"/>
<path d="M22.874 18.2622C21.4358 19.1261 21.0406 20.8171 21.1095 22.1129C21.183 23.4088 22.0469 25.3847 22.1894 26.1796C22.3318 26.97 22.511 28.808 22.874 29.5249C23.2325 30.2463 23.4852 32.2222 23.4852 32.2222V32.6542C23.4852 32.6542 23.9493 32.3141 25.7644 31.7306C28.0252 31.0045 29.4956 31.1791 30.3917 31.2159C31.2923 31.2527 32.0092 31.3951 32.0092 31.3951C32.0092 31.3951 31.2739 27.3008 30.9661 26.5381C30.6582 25.7707 30.4698 24.2772 30.4698 23.9326" stroke="#151924" stroke-width="0.289494" stroke-miterlimit="10"/>
</g>
<defs>
<clipPath id="clip0_233_1814">
<rect x="0.82959" width="22.8764" height="22.8764" rx="11.4382" fill="white"/>
</clipPath>
</defs>
</svg>
