<svg width="24" height="23" viewBox="0 0 24 23" fill="none" xmlns="http://www.w3.org/2000/svg">
<g clip-path="url(#clip0_233_1860)">
<circle cx="11.6501" cy="11.4377" r="11.4382" fill="#6B25FF"/>
<path d="M20.7803 24.4339C20.8094 24.5167 20.8094 24.5167 20.8095 24.5167L20.8098 24.5165L20.811 24.5161L20.8158 24.5144L20.8349 24.5077L20.9095 24.4815L21.1933 24.3821C21.4382 24.2963 21.7887 24.1737 22.2116 24.0261C23.0574 23.7309 24.1924 23.336 25.3494 22.9372C26.5065 22.5384 27.6853 22.1356 28.6189 21.8247C29.0857 21.6693 29.4908 21.5369 29.8011 21.4394C30.1141 21.3411 30.3243 21.2804 30.4057 21.2658L30.4057 21.2657C30.5734 21.2354 31.0109 21.2095 31.5788 21.191C32.1434 21.1725 32.8288 21.1615 33.4866 21.1594C34.1445 21.1573 34.7737 21.1642 35.2261 21.1816C35.3928 21.188 35.5343 21.1958 35.6439 21.2049C35.5421 21.2429 35.4111 21.2878 35.2574 21.3372C34.9131 21.4478 34.4578 21.5797 33.9684 21.7042C33.479 21.8287 32.9565 21.9455 32.4776 22.0261C31.9972 22.107 31.5664 22.1504 31.2577 22.131L31.2287 22.1292L31.2044 22.145C29.4022 23.3164 26.8914 24.8025 24.557 25.9833C23.3897 26.5737 22.268 27.087 21.3019 27.4465C20.3323 27.8073 19.5311 28.0084 18.9999 27.985C17.9191 27.9375 16.9279 27.4982 16.2036 27.0671C15.8421 26.852 15.5487 26.6398 15.3459 26.4816C15.2445 26.4025 15.1658 26.3369 15.1127 26.2913C15.1039 26.2838 15.0959 26.2768 15.0885 26.2704L17.5004 22.6835C17.5281 22.6943 17.5648 22.7105 17.6101 22.732C17.7098 22.7793 17.8449 22.8494 18.004 22.9352C18.3217 23.1065 18.731 23.3385 19.136 23.5718C19.5408 23.8051 19.9407 24.0395 20.2394 24.2156C20.3887 24.3036 20.5127 24.377 20.5994 24.4285L20.6999 24.4882L20.7263 24.5039L20.7331 24.5079L20.7348 24.5089L20.7352 24.5092L20.7353 24.5092L20.7803 24.4339ZM20.7803 24.4339L20.8094 24.5167L20.7706 24.5303L20.7354 24.5093L20.7803 24.4339ZM17.4579 22.6696C17.4579 22.6696 17.4582 22.6697 17.4589 22.6698L17.4589 22.6698C17.4582 22.6696 17.4579 22.6696 17.4579 22.6696Z" fill="white" stroke="#151924" stroke-width="0.175467"/>
<path d="M8.17573 11.9847L8.24824 12.0341L8.24829 12.034L8.24845 12.0338L8.24893 12.033L8.25056 12.0306L8.25638 12.0217C8.26138 12.014 8.26859 12.0027 8.27779 11.9878C8.29618 11.9578 8.32255 11.9133 8.35524 11.8538C8.4206 11.7347 8.51119 11.5555 8.61366 11.313C8.81862 10.8278 9.07104 10.0893 9.26434 9.07067L8.17573 11.9847ZM8.17573 11.9847L8.24819 12.0341L8.24239 12.0426L8.23478 12.0496L7.04795 13.1296M8.17573 11.9847L7.04795 13.1296M7.04795 13.1296C7.074 13.1451 7.10973 13.1645 7.15835 13.1879C7.34646 13.2785 7.71645 13.4248 8.4382 13.6415L8.43837 13.6416C9.18052 13.8661 9.69877 14.2869 10.0311 14.6508C10.1973 14.8328 10.3173 15.001 10.396 15.1241C10.4183 15.1589 10.4372 15.1901 10.453 15.2171C10.4788 15.1896 10.5099 15.1566 10.5455 15.1193C10.6542 15.0055 10.8048 14.8513 10.9726 14.6898C11.1402 14.5285 11.3259 14.359 11.5044 14.2152C11.6813 14.0727 11.8571 13.9504 12.0044 13.8886L12.0384 13.9695M7.04795 13.1296L10.498 15.2975C10.7347 15.0437 11.5764 14.1634 12.0384 13.9695M12.0384 13.9695C12.5763 13.7422 12.9606 13.779 13.816 13.9695C14.6714 14.1633 15.5435 14.0229 15.7707 13.3079C15.8997 12.9018 15.9781 12.1359 16.0407 11.5241C16.0884 11.0585 16.1269 10.682 16.1716 10.6214C16.2271 10.5463 16.2681 10.5516 16.3292 10.5594C16.3822 10.5662 16.4503 10.5749 16.5559 10.5345M12.0384 13.9695L12.0042 13.8886C12.2833 13.7707 12.526 13.7203 12.8096 13.7251C13.0897 13.7299 13.4075 13.7886 13.835 13.8838L13.8354 13.8839C14.254 13.9787 14.6701 13.9901 15.005 13.8951C15.3371 13.8008 15.5844 13.6043 15.6871 13.2813C15.7973 12.9342 15.871 12.3079 15.9303 11.74C15.9382 11.6639 15.9459 11.589 15.9533 11.5161C15.9735 11.3194 15.9921 11.1377 16.0102 10.9892C16.0226 10.8874 16.035 10.7993 16.0478 10.7315C16.0542 10.6977 16.061 10.6673 16.0684 10.6421C16.075 10.6197 16.0848 10.5914 16.1011 10.5693C16.1329 10.5261 16.1689 10.4936 16.215 10.4778C16.259 10.4627 16.3006 10.4675 16.3281 10.4708C16.3321 10.4713 16.3361 10.4718 16.3401 10.4723C16.3842 10.478 16.4292 10.4838 16.4994 10.4614M16.5559 10.5345L16.5242 10.4527C16.5036 10.4607 16.4962 10.4751 16.4958 10.4757L16.4958 10.4757C16.4958 10.4758 16.4957 10.4759 16.4957 10.4759C16.4957 10.4759 16.4975 10.4719 16.4994 10.4615C16.4994 10.4615 16.4994 10.4614 16.4994 10.4614M16.5559 10.5345C16.746 10.4608 16.1533 7.78355 15.97 6.97663L16.5559 10.5345ZM16.4994 10.4614C16.5037 10.4384 16.5061 10.4013 16.505 10.3486C16.503 10.2444 16.4883 10.0969 16.4637 9.91828C16.4148 9.56204 16.3284 9.09367 16.2347 8.62629C16.1411 8.15931 16.0405 7.69487 15.9633 7.34707C15.9246 7.1732 15.8919 7.02854 15.8688 6.92737L15.8418 6.81003L15.8376 6.79161L16.4994 10.4614Z" fill="white" stroke="#151924" stroke-width="0.175467"/>
<path d="M15.3186 11.6665C15.3186 11.6665 13.942 11.7534 13.2603 11.0049" stroke="#151924" stroke-width="0.103583" stroke-miterlimit="10"/>
<path d="M13.5278 10.7646L13.0801 11.2592" stroke="#151924" stroke-width="0.103583" stroke-miterlimit="10"/>
<path d="M15.0085 9.07839C15.0085 9.40251 15.1054 9.66313 15.2257 9.66313C15.346 9.66313 15.4429 9.40251 15.4429 9.07839C15.4429 8.75428 15.346 8.49365 15.2257 8.49365C15.1054 8.49365 15.0085 8.75428 15.0085 9.07839Z" fill="#151924"/>
<path d="M15.4429 7.96778C15.4429 7.96778 15.199 7.72386 14.5173 7.96778" stroke="#151924" stroke-width="0.250603" stroke-linecap="round" stroke-linejoin="round"/>
<path d="M10.2403 11.3809C10.2403 11.3809 10.521 12.5236 11.2861 13.0449" stroke="#151924" stroke-width="0.103583" stroke-miterlimit="10"/>
<path d="M8.46035 13.26C7.39111 12.6886 6.05455 12.5015 5.58342 12.8691C5.44348 12.9782 5.33833 13.124 5.22393 13.2825C4.95315 13.6578 4.63052 14.1049 3.67215 14.3092C2.31221 14.5966 0.190439 15.8897 -0.48786 17.3165C-1.22862 18.8726 -3.18436 26.3075 -4.35199 30.7463C-4.75388 32.2741 -5.0624 33.447 -5.19587 33.9031C-5.72046 35.6807 -6.5558 39.8574 -5.72046 40.9367C-5.23248 41.5671 -3.85058 41.168 -2.18086 40.6857C-0.99226 40.3423 0.342188 39.9569 1.60384 39.8708M8.46035 13.26V13.2667C8.46035 13.2667 9.53292 13.5039 10.659 14.2357C11.5435 14.8105 11.393 15.5791 11.3137 15.9844C11.292 16.0951 11.2757 16.1787 11.2871 16.2238C11.3068 16.3001 11.5608 16.4195 11.9143 16.5856C12.5205 16.8704 13.4194 17.2928 13.9302 17.8711C14.2123 18.1905 14.8766 18.7486 15.6189 19.3722C17.0044 20.5361 18.6615 21.9282 18.6114 22.4221M8.46035 13.26L8.45678 13.2667L8.419 13.3374C8.40359 13.3292 8.38813 13.321 8.37261 13.3129V13.2667V13.26H8.46035ZM18.6114 22.4221C18.5312 23.1806 15.5507 26.9998 15.0262 26.973C14.7571 26.9593 13.959 26.4781 13.2159 26.03C12.5102 25.6044 11.8541 25.2088 11.7483 25.2723M18.6114 22.4221L18.5242 22.4129C18.516 22.49 18.4678 22.6199 18.3777 22.7967C18.2894 22.97 18.166 23.1786 18.0174 23.4094C17.7204 23.8709 17.3256 24.4163 16.9164 24.9379C16.5072 25.4596 16.085 25.9556 15.7334 26.3189C15.5573 26.5007 15.4007 26.6474 15.2734 26.7472C15.2096 26.7972 15.1553 26.8338 15.1111 26.857C15.0644 26.8817 15.0393 26.8859 15.0306 26.8854C14.9822 26.8829 14.8979 26.8579 14.7783 26.8064C14.6618 26.7562 14.5215 26.6855 14.3651 26.6006C14.0522 26.4308 13.681 26.2079 13.3172 25.9886L13.2604 25.9544C12.9176 25.7477 12.5844 25.5467 12.3204 25.4023C12.1814 25.3263 12.0589 25.2644 11.9629 25.2255C11.9152 25.2062 11.8707 25.1912 11.8321 25.1835C11.8128 25.1797 11.7923 25.1772 11.7721 25.1779C11.7524 25.1787 11.7271 25.1826 11.7031 25.197L11.6724 25.2155L11.6634 25.2502L11.7483 25.2723M18.6114 22.4221L18.5242 22.4132C18.527 22.3851 18.521 22.3443 18.4988 22.2883C18.477 22.2331 18.4416 22.1685 18.3926 22.095C18.2944 21.9481 18.1472 21.7741 17.9626 21.5803C17.5937 21.1929 17.0848 20.736 16.5456 20.272C16.2197 19.9914 15.8844 19.7098 15.5633 19.4401C15.3529 19.2633 15.1485 19.0916 14.9568 18.9286C14.4754 18.5195 14.0716 18.1637 13.8644 17.9292C13.4727 17.4857 12.8398 17.1321 12.2868 16.8606C12.1493 16.7931 12.0176 16.731 11.8964 16.6741L11.8766 16.6648C11.7635 16.6116 11.6594 16.5627 11.57 16.5185C11.476 16.472 11.3951 16.429 11.3351 16.3901C11.3052 16.3707 11.2779 16.3506 11.2562 16.3299C11.2361 16.3107 11.2117 16.2826 11.2022 16.2457L11.2021 16.2454C11.1905 16.1996 11.1967 16.1434 11.2043 16.0946C11.2101 16.0568 11.2188 16.0126 11.228 15.9657C11.2315 15.9477 11.2351 15.9294 11.2386 15.9108C11.2649 15.7732 11.2921 15.6074 11.2876 15.4275C11.2786 15.0737 11.1472 14.6576 10.6112 14.3093C10.055 13.9478 9.51152 13.7083 9.10704 13.5591C8.90491 13.4846 8.73777 13.4327 8.62148 13.3996C8.56335 13.383 8.51795 13.3711 8.48727 13.3634C8.47193 13.3596 8.46027 13.3568 8.45254 13.3549L8.44393 13.3529L8.44189 13.3525L8.44145 13.3524L8.4414 13.3524L8.44138 13.3524L1.59786 39.7832M11.7483 25.2723C11.7483 25.2723 10.3449 30.6619 10.1344 33.3818C10.0419 34.5766 10.0004 35.8018 9.96501 36.8445C9.9199 38.1754 9.88486 39.2091 9.76683 39.5032C9.63958 39.8203 7.79218 39.8114 5.68058 39.8013C4.2988 39.7947 2.8039 39.7875 1.60384 39.8708M11.7483 25.2723L11.6633 25.2502L11.6633 25.2504L11.6631 25.2512L11.6623 25.2541L11.6593 25.2658L11.6475 25.3116C11.6371 25.3518 11.6219 25.4111 11.6025 25.4876C11.5637 25.6404 11.508 25.8618 11.4405 26.1359C11.3055 26.6841 11.1234 27.4435 10.9346 28.2879C10.5575 29.9751 10.1527 32.0081 10.0469 33.375C9.95426 34.5719 9.91267 35.7991 9.87733 36.8416C9.87245 36.9857 9.86768 37.1262 9.86292 37.2627C9.84328 37.8252 9.8237 38.3175 9.79596 38.7016C9.78208 38.8936 9.76625 39.0574 9.74757 39.1888C9.72862 39.3219 9.70755 39.4153 9.6854 39.4705C9.68339 39.4756 9.6729 39.4922 9.63201 39.5143C9.59271 39.5356 9.53543 39.5565 9.45858 39.5759C9.30527 39.6147 9.08986 39.6437 8.82228 39.6649C8.28805 39.7072 7.5619 39.717 6.74413 39.717C6.40365 39.717 6.04744 39.7153 5.68307 39.7136C4.30098 39.7069 2.80152 39.6997 1.59786 39.7832M1.60384 39.8708L1.59786 39.7832M1.60384 39.8708L1.59776 39.7832C1.5978 39.7832 1.59783 39.7832 1.59786 39.7832" fill="white" stroke="#151924" stroke-width="0.175467"/>
<path d="M10.658 14.23C10.7616 15.0319 10.6246 16.5322 10.2404 17.578C9.85609 18.6239 9.29808 19.5996 8.77683 21.591C8.25557 23.5825 7.69422 25.4269 7.3133 26.3358C6.92904 27.2413 6.41114 29.9979 6.41114 29.9979" stroke="#151924" stroke-width="0.210507" stroke-miterlimit="10"/>
<path d="M13.3057 20.0532C13.3057 20.0532 13.035 21.4132 12.6875 22.2151C12.34 23.017 11.7553 25.1087 11.7553 25.1087" stroke="#151924" stroke-width="0.210507" stroke-miterlimit="10"/>
<path d="M12.8598 6.77518C11.8674 7.12269 11.4732 7.71745 11.4999 8.37236C11.5266 9.02727 11.9176 9.75903 11.6302 10.0999C11.3428 10.4407 11.0288 10.5175 11.0288 10.5175C11.0288 10.5175 11.002 9.86261 10.6111 9.4984C10.2201 9.13085 9.87932 9.10746 9.7724 9.42155C9.66881 9.73564 9.33802 10.9218 10.2435 11.3829C9.51177 12.0111 8.85686 12.0379 8.17522 11.9844C8.90698 10.6779 8.2788 9.08073 8.17522 8.66306C8.07164 8.24539 7.86113 6.33412 9.14422 6.36085C8.83013 5.18469 10.4507 4.50305 11.7338 4.50305C13.0169 4.50305 15.3425 4.73694 15.6833 4.50305C16.0241 4.26915 17.0967 4.5799 16.8862 5.34173C16.6757 6.10022 15.9172 6.75513 15.9172 6.75513C15.9172 6.75513 14.3467 6.25727 12.8565 6.78186L12.8598 6.77518Z" fill="#151924"/>
<path d="M11.2861 22.5831L9.74242 21.9048C9.74242 21.9048 8.53284 24.4743 9.28131 24.902C10.0331 25.3297 11.2861 22.5831 11.2861 22.5831Z" stroke="#151924" stroke-width="0.210507" stroke-miterlimit="10"/>
<path d="M4.59259 15.4868C5.63845 16.115 5.9258 17.3446 5.87568 18.2869C5.82222 19.2292 5.19405 20.666 5.09047 21.244C4.98688 21.8187 4.85656 23.1553 4.59259 23.6765C4.33197 24.2011 4.1482 25.6379 4.1482 25.6379V25.952C4.1482 25.952 3.81071 25.7047 2.49087 25.2804C0.846908 24.7525 -0.222325 24.8794 -0.873894 24.9062C-1.5288 24.9329 -2.05006 25.0365 -2.05006 25.0365C-2.05006 25.0365 -1.51544 22.0593 -1.29157 21.5046C-1.06769 20.9466 -0.930702 19.8607 -0.930702 19.6101" stroke="#151924" stroke-width="0.210507" stroke-miterlimit="10"/>
<path d="M22.2564 18.2622C20.8181 19.1261 20.4229 20.8171 20.4918 22.1129C20.5654 23.4088 21.4292 25.3847 21.5717 26.1796C21.7141 26.97 21.8933 28.808 22.2564 29.5249C22.6148 30.2463 22.8675 32.2222 22.8675 32.2222V32.6542C22.8675 32.6542 23.3316 32.3141 25.1467 31.7306C27.4075 31.0045 28.8779 31.1791 29.774 31.2159C30.6746 31.2527 31.3915 31.3951 31.3915 31.3951C31.3915 31.3951 30.6563 27.3008 30.3484 26.5381C30.0405 25.7707 29.8521 24.2772 29.8521 23.9326" stroke="#151924" stroke-width="0.289494" stroke-miterlimit="10"/>
</g>
<defs>
<clipPath id="clip0_233_1860">
<rect x="0.211914" width="22.8764" height="22.8764" rx="11.4382" fill="white"/>
</clipPath>
</defs>
</svg>
