<svg width="505" height="691" viewBox="0 0 505 691" fill="none" xmlns="http://www.w3.org/2000/svg">
<g clip-path="url(#clip0_277_2551)">
<path d="M38.2815 335.582H466.718C487.859 335.582 505 351.563 505 371.277V760.492C505 780.205 487.859 796.187 466.718 796.187H38.2815C17.1407 796.187 0 780.205 0 760.492V371.277C0 351.563 17.1407 335.582 38.2815 335.582Z" fill="#1B0D6B" stroke="#1B0D6B" stroke-width="4.18174"/>
<path d="M156.103 373.344C156.103 373.344 153.953 398.588 151.723 409.497C149.493 420.407 145.193 435.059 141.133 445.332" stroke="#151924" stroke-width="2.46859" stroke-miterlimit="10"/>
<path d="M378.043 510.016L379.123 524.937" stroke="#151924" stroke-width="4.18174"/>
<path d="M260.743 1.16406C302.713 2.51786 334.173 67.3391 345.473 113.366C356.783 159.393 376.933 187.344 391.503 201.2C405.993 215.056 397.953 256.225 391.503 279.637C385.053 303.049 407.753 324.709 399.623 362.693C391.503 400.678 319.673 414.932 247.053 415.887C174.423 416.843 101.803 420.904 97.7427 382.123C93.6827 343.422 96.1526 315.949 103.393 280.434C110.643 244.918 92.0827 218.798 104.193 193.953C116.293 169.108 139.703 150.554 147.753 110.977C155.793 71.4001 184.863 -1.22483 260.743 1.24377V1.16406Z" fill="#151924"/>
<path d="M265.524 272.055V272.056C271.134 272.706 276.644 272.841 281.854 272.886C282.974 272.895 284.094 272.901 285.184 272.906C289.174 272.926 292.924 272.945 296.454 273.161C305.484 273.711 312.214 275.524 316.404 281.177V281.184C318.584 284.101 319.594 286.987 320.384 289.978C320.554 290.611 320.724 291.264 320.884 291.932C321.484 294.328 322.124 296.905 323.264 299.352C326.374 306.002 333.014 311.597 350.754 316.276C357.094 317.943 362.624 319.314 367.474 320.517C376.204 322.68 382.744 324.299 387.814 326.117C391.694 327.509 394.544 328.959 396.734 330.746C398.894 332.51 400.524 334.678 401.864 337.648C401.984 337.928 402.164 338.549 402.374 339.63C402.584 340.678 402.784 342.031 402.984 343.685C403.394 346.99 403.784 351.398 404.154 356.763C404.894 367.489 405.564 381.946 406.164 398.862C407.364 432.69 408.284 476.282 408.974 519.379C409.664 562.474 410.134 605.062 410.424 636.877C410.564 652.784 410.674 665.998 410.734 675.235C410.774 679.853 410.794 683.477 410.814 685.947L410.824 687.561V687.627H97.8535C97.8535 687.16 97.8535 686.618 97.8635 686.002C97.8735 683.57 97.8936 680.002 97.9236 675.457C97.9736 666.367 98.0536 653.368 98.1636 637.734C98.3736 606.467 98.7036 564.66 99.1436 522.503C99.5836 480.345 100.143 437.843 100.833 405.181C101.173 388.849 101.544 374.988 101.944 364.864C102.154 359.8 102.354 355.687 102.574 352.674C102.684 351.165 102.794 349.951 102.894 349.04C102.954 348.584 103.004 348.22 103.054 347.941C103.074 347.803 103.094 347.694 103.114 347.612C103.124 347.571 103.134 347.54 103.144 347.518C103.144 347.495 103.154 347.484 103.154 347.485C103.364 346.838 104.244 345.806 106.404 344.478C108.474 343.213 111.324 341.91 114.794 340.538C119.324 338.746 124.714 336.916 130.514 334.943C133.624 333.887 136.854 332.789 140.144 331.635C149.474 328.355 159.144 324.645 167.164 320.235C175.124 315.862 181.834 310.602 184.774 304.04V304.037C190.034 292.262 195.564 282.777 206.824 276.909C218.184 270.992 235.754 268.567 265.524 272.055Z" fill="white" stroke="#151924" stroke-width="4.18174"/>
<path d="M186.213 309.637C186.213 309.637 187.493 313.141 197.443 319.989C207.403 326.838 221.733 329.306 233.593 333.049C245.463 336.792 269.753 334.721 282.413 333.447C295.073 332.173 326.683 320.945 326.683 320.945" stroke="#151924" stroke-width="4.18174" stroke-miterlimit="10" stroke-linecap="round"/>
<path d="M345.084 367.891C345.084 367.891 350.094 392.895 357.584 405.796C365.064 418.696 370.884 445.691 375.024 450.23" stroke="#151924" stroke-width="4.18174" stroke-miterlimit="10" stroke-linecap="round"/>
<path d="M141.144 482.67C139.054 482.761 139.054 482.761 139.054 482.76V482.71L139.044 482.557L139.014 481.959C138.994 481.433 138.964 480.66 138.914 479.669C138.824 477.685 138.694 474.829 138.534 471.337C138.204 464.354 137.734 454.83 137.194 444.667C136.104 424.306 134.714 401.491 133.494 391.343C131.964 378.641 130.214 365.147 125.624 356.203C123.354 351.789 120.524 348.742 116.914 347.342C113.824 346.145 109.864 346.036 104.684 347.756L102.134 348.826C73.474 360.837 66.794 390.692 70.354 423.356C71.634 435.036 70.844 457.582 69.904 484.545V484.669L69.894 484.815C68.954 511.907 67.844 543.629 68.424 573.908C69.014 604.277 71.2841 633.021 77.0441 654.119C79.9341 664.674 83.6442 673.14 88.3142 678.929C92.9242 684.654 98.4242 687.701 105.064 687.701C111.724 687.701 118.714 684.21 125.954 677.513C133.174 670.833 140.424 661.16 147.584 649.28C161.894 625.531 175.594 593.34 187.734 559.72C212.004 492.494 229.894 419.976 233.934 398.901L234.144 397.805L235.164 397.37C242.964 394.068 251.654 387.758 258.474 382.169C261.874 379.391 264.764 376.825 266.814 374.953C267.834 374.017 268.644 373.257 269.194 372.731C269.474 372.469 269.684 372.265 269.824 372.128C269.894 372.059 269.944 372.008 269.984 371.973L270.024 371.935L270.034 371.926V371.924L271.654 370.333L273.104 372.075L293.654 396.681L293.984 397.077L294.084 397.582L292.044 398.021C294.084 397.582 294.084 397.583 294.084 397.584L294.094 397.59V397.612L294.114 397.701L294.194 398.054L294.484 399.431C294.744 400.64 295.124 402.415 295.614 404.685C296.584 409.224 297.984 415.739 299.674 423.643C303.054 439.45 307.624 460.812 312.354 483.03C321.814 527.453 331.954 575.336 334.634 589.056V589.059C338.344 608.287 345.614 633.106 358.194 653.062C370.764 672.999 388.434 687.781 413.004 687.781C420.774 687.781 427.084 684.689 432.284 679.077C437.534 673.405 441.654 665.13 444.804 654.831C451.094 634.231 453.274 606.194 453.274 576.705C453.274 533.521 448.624 487.832 445.634 458.497C444.534 447.735 443.664 439.174 443.324 433.746C442.104 413.938 438.084 390.003 430.794 370.34C427.144 360.507 422.714 351.836 417.464 345.293C412.224 338.753 406.284 334.463 399.604 333.099C392.974 331.744 388.244 333.543 384.674 337.162C380.984 340.909 378.414 346.757 376.664 353.672C373.334 366.802 373.214 382.764 373.144 392.513C373.134 393.018 373.134 393.507 373.134 393.977C373.054 403.38 374.344 433.622 375.654 461.608C376.314 475.581 376.974 488.961 377.474 498.849C377.724 503.793 377.924 507.864 378.074 510.698C378.144 512.115 378.204 513.223 378.244 513.977L378.284 514.836L378.304 515.056V515.129C378.304 515.13 378.304 515.13 376.214 515.239L378.304 515.129L374.284 516.03L324.844 395.11V395.097L324.824 395.069V395.059L324.754 394.907L324.504 394.313C324.274 393.792 323.944 393.025 323.514 392.043C322.664 390.078 321.444 387.251 319.954 383.803C316.974 376.905 312.934 367.517 308.674 357.56C304.494 347.793 299.814 341.662 294.974 338.322C290.224 335.041 285.144 334.341 279.764 335.751C278.574 336.062 276.664 336.948 274.114 338.438C271.604 339.9 268.604 341.854 265.284 344.177C258.644 348.821 250.774 354.875 242.964 361.253C235.154 367.629 227.434 374.31 221.094 380.201C214.704 386.135 209.854 391.148 207.664 394.218C203.004 400.756 186.794 423.18 171.754 443.96C164.234 454.352 157.004 464.336 151.654 471.722C148.974 475.415 146.774 478.459 145.234 480.579L143.464 483.033L142.994 483.676L142.874 483.841L142.844 483.882L142.834 483.893V483.896C142.834 483.896 142.834 483.896 141.144 482.67ZM141.144 482.67L139.054 482.761L139.314 488.755L142.834 483.896L141.144 482.67Z" fill="white"/>
<path d="M141.144 482.67C139.054 482.761 139.054 482.761 139.054 482.76V482.71L139.044 482.557L139.014 481.959C138.994 481.433 138.964 480.66 138.914 479.669C138.824 477.685 138.694 474.829 138.534 471.337C138.204 464.354 137.734 454.83 137.194 444.667C136.104 424.306 134.714 401.491 133.494 391.343C131.964 378.641 130.214 365.147 125.624 356.203C123.354 351.789 120.524 348.742 116.914 347.342C113.824 346.145 109.864 346.036 104.684 347.756L102.134 348.826C73.474 360.837 66.794 390.692 70.354 423.356C71.634 435.036 70.844 457.582 69.904 484.545V484.669L69.894 484.815C68.954 511.907 67.844 543.629 68.424 573.908C69.014 604.277 71.2841 633.021 77.0441 654.119C79.9341 664.674 83.6442 673.14 88.3142 678.929C92.9242 684.654 98.4242 687.701 105.064 687.701C111.724 687.701 118.714 684.21 125.954 677.513C133.174 670.833 140.424 661.16 147.584 649.28C161.894 625.531 175.594 593.34 187.734 559.72C212.004 492.494 229.894 419.976 233.934 398.901L234.144 397.805L235.164 397.37C242.964 394.068 251.654 387.758 258.474 382.169C261.874 379.391 264.764 376.825 266.814 374.953C267.834 374.017 268.644 373.257 269.194 372.731C269.474 372.469 269.684 372.265 269.824 372.128C269.894 372.059 269.944 372.008 269.984 371.973L270.024 371.935L270.034 371.926V371.924L271.654 370.333L273.104 372.075L293.654 396.681L293.984 397.077L294.084 397.582L292.044 398.021C294.084 397.582 294.084 397.583 294.084 397.584L294.094 397.59V397.612L294.114 397.701L294.194 398.054L294.484 399.431C294.744 400.64 295.124 402.415 295.614 404.685C296.584 409.224 297.984 415.739 299.674 423.643C303.054 439.45 307.624 460.812 312.354 483.03C321.814 527.453 331.954 575.336 334.634 589.056V589.059C338.344 608.287 345.614 633.106 358.194 653.062C370.764 672.999 388.434 687.781 413.004 687.781C420.774 687.781 427.084 684.689 432.284 679.077C437.534 673.405 441.654 665.13 444.804 654.831C451.094 634.231 453.274 606.194 453.274 576.705C453.274 533.521 448.624 487.832 445.634 458.497C444.534 447.735 443.664 439.174 443.324 433.746C442.104 413.938 438.084 390.003 430.794 370.34C427.144 360.507 422.714 351.836 417.464 345.293C412.224 338.753 406.284 334.463 399.604 333.099C392.974 331.744 388.244 333.543 384.674 337.162C380.984 340.909 378.414 346.757 376.664 353.672C373.334 366.802 373.214 382.764 373.144 392.513C373.134 393.018 373.134 393.507 373.134 393.977C373.054 403.38 374.344 433.622 375.654 461.608C376.314 475.581 376.974 488.961 377.474 498.849C377.724 503.793 377.924 507.864 378.074 510.698C378.144 512.115 378.204 513.223 378.244 513.977L378.284 514.836L378.304 515.056V515.129M141.144 482.67C142.834 483.896 142.834 483.896 142.834 483.896M141.144 482.67L139.054 482.761L139.314 488.755L142.834 483.896M141.144 482.67L142.834 483.896M378.304 515.129L374.284 516.03L324.844 395.11V395.097L324.824 395.069V395.059L324.754 394.907L324.504 394.313C324.274 393.792 323.944 393.025 323.514 392.043C322.664 390.078 321.444 387.251 319.954 383.803C316.974 376.905 312.934 367.517 308.674 357.56C304.494 347.793 299.814 341.662 294.974 338.322C290.224 335.041 285.144 334.341 279.764 335.751C278.574 336.062 276.664 336.948 274.114 338.438C271.604 339.9 268.604 341.854 265.284 344.177C258.644 348.821 250.774 354.875 242.964 361.253C235.154 367.629 227.434 374.31 221.094 380.201C214.704 386.135 209.854 391.148 207.664 394.218C203.004 400.756 186.794 423.18 171.754 443.96C164.234 454.352 157.004 464.336 151.654 471.722C148.974 475.415 146.774 478.459 145.234 480.579L143.464 483.033L142.994 483.676L142.874 483.841L142.844 483.882L142.834 483.893V483.896M378.304 515.129C378.304 515.13 378.304 515.13 376.214 515.239L378.304 515.129Z" stroke="#151924" stroke-width="4.18174"/>
<path d="M141.143 482.676C123.303 504.814 91.683 569.236 87.543 620.758" stroke="#151924" stroke-width="2.46859" stroke-miterlimit="10"/>
<path d="M376.914 516.766L376.034 514.871L372.244 516.637L373.124 518.532L376.914 516.766ZM421.074 624.066C421.304 625.198 422.404 625.934 423.534 625.708C424.664 625.483 425.404 624.382 425.174 623.249L421.074 624.066ZM373.124 518.532C375.214 523.004 378.704 528.96 382.844 535.99C387.004 543.06 391.854 551.304 396.754 560.47C406.544 578.812 416.434 600.746 421.074 624.066L425.174 623.249C420.424 599.348 410.314 576.997 400.444 558.5C395.494 549.247 390.604 540.932 386.444 533.87C382.264 526.766 378.894 521.014 376.914 516.766L373.124 518.532Z" fill="#151924"/>
<path d="M299.873 177.782C299.823 177.386 299.803 177.056 299.793 176.829L305.683 162.129C306.063 161.574 306.423 161.018 306.793 160.464C308.603 157.706 310.363 155.038 312.483 153.216C313.723 152.151 314.973 151.498 316.273 151.296C317.563 151.098 319.123 151.301 321.093 152.326C322.273 152.952 323.193 154.652 323.173 157.963C323.153 161.146 322.243 165.136 320.683 169.111C319.133 173.075 316.993 176.867 314.653 179.67C312.233 182.559 309.923 184.021 308.073 184.143C305.683 184.299 304.103 183.835 303.023 183.201C301.953 182.563 301.223 181.657 300.733 180.668C300.233 179.665 299.993 178.611 299.873 177.782Z" fill="white" stroke="#151924" stroke-width="4.18174"/>
<path d="M295.233 280.436H293.143C293.143 280.436 293.143 280.436 295.233 280.436ZM293.143 279.932V280.257C293.103 280.318 293.023 280.429 292.873 280.593C292.483 281.004 291.833 281.533 290.883 282.158C289.003 283.399 286.223 284.822 282.783 286.301C275.933 289.252 266.753 292.309 257.553 294.519C248.323 296.737 239.263 298.057 232.603 297.644C229.253 297.437 226.743 296.803 225.143 295.823C223.663 294.925 222.943 293.76 222.943 292.063V229.313V227.863L221.593 227.356V227.355L221.563 227.346C221.543 227.335 221.493 227.317 221.433 227.292C221.313 227.24 221.123 227.158 220.863 227.041C220.363 226.808 219.623 226.439 218.703 225.911C216.883 224.855 214.373 223.169 211.733 220.674C206.453 215.702 200.573 207.481 198.393 194.485C196.133 181.074 194.783 167.327 194.003 156.92C193.613 151.719 193.363 147.36 193.213 144.302C193.133 142.774 193.083 141.571 193.053 140.752C193.043 140.586 193.033 140.435 193.033 140.301C193.053 140.28 193.063 140.259 193.083 140.237C193.463 139.801 194.023 139.162 194.763 138.362C196.233 136.76 198.393 134.514 201.133 131.958C206.613 126.837 214.373 120.513 223.513 115.609C240.933 106.268 258.883 95.7164 269.233 80.9844C269.723 81.9684 270.313 83.1454 271.003 84.4824C273.173 88.7034 276.313 94.5264 280.183 100.942C287.713 113.419 298.143 128.339 309.733 137.969C309.213 147.169 306.813 163.234 303.663 178.657C302.033 186.652 300.213 194.429 298.363 200.939C296.493 207.512 294.653 212.599 293.033 215.351L292.733 215.862L292.743 216.455C292.943 226.19 293.043 242.179 293.093 255.748C293.113 262.53 293.133 268.702 293.133 273.179C293.133 275.417 293.143 277.232 293.143 278.487V279.932Z" fill="white" stroke="#151924" stroke-width="4.18174"/>
<path d="M224.043 230.259C224.043 230.259 236.223 236.151 251.433 235.833C266.723 235.514 282.733 226.914 289.493 220.225" stroke="#151924" stroke-width="2.46859" stroke-miterlimit="10"/>
<path d="M222.994 180.17C222.994 180.17 235.654 193.07 265.994 178.498" stroke="#151924" stroke-width="2.46859" stroke-miterlimit="10"/>
<path d="M263.133 173.57L268.463 182.887" stroke="#151924" stroke-width="2.46859" stroke-miterlimit="10"/>
<path d="M236.703 140.121C235.903 144.899 236.693 154.694 233.743 156.526C230.793 158.357 223.963 157.322 223.963 160.507C223.963 163.692 232.083 167.754 232.083 167.754" stroke="#151924" stroke-width="2.46859" stroke-miterlimit="10"/>
<path d="M267.433 145.612C267.433 150.151 265.683 153.894 263.453 153.894C261.223 153.894 259.473 150.23 259.473 145.612C259.473 140.993 261.223 137.33 263.453 137.33C265.683 137.33 267.433 140.993 267.433 145.612Z" fill="#151924"/>
<path d="M223.003 140.126C223.003 144.665 221.253 148.408 219.023 148.408C216.793 148.408 215.043 144.744 215.043 140.126C215.043 135.507 216.793 131.844 219.023 131.844C221.253 131.844 223.003 135.507 223.003 140.126Z" fill="#151924"/>
<path d="M259.543 123.317C259.543 123.317 270.623 122.521 281.213 130.165L259.543 123.317Z" fill="#151924"/>
<path d="M259.543 123.317C259.543 123.317 270.623 122.521 281.213 130.165" stroke="#151924" stroke-width="5.97239" stroke-linecap="round" stroke-linejoin="round"/>
</g>
<defs>
<clipPath id="clip0_277_2551">
<rect width="505" height="690" fill="white" transform="translate(0 0.582031)"/>
</clipPath>
</defs>
</svg>
