<svg width="636" height="617" viewBox="0 0 636 617" fill="none" xmlns="http://www.w3.org/2000/svg">
<g clip-path="url(#clip0_277_2943)">
<path d="M38.2775 197.459H466.669C487.808 197.459 504.947 212.016 504.947 229.972V584.487C504.947 602.442 487.808 617 466.669 617H38.2775C17.1389 617 0 602.442 0 584.487V229.972C0 212.016 17.1389 197.459 38.2775 197.459Z" fill="#1B0D6B" stroke="#1B0D6B" stroke-width="4.18174"/>
<path d="M501.564 274.421C501.496 274.345 501.426 274.272 501.354 274.201C504.785 270.439 551.453 184.523 552.113 173.443C552.263 170.877 553.423 167.634 555.243 164.076C557.043 160.561 559.383 156.926 561.753 153.619C564.103 150.319 566.443 147.381 568.203 145.268C568.653 144.71 569.083 144.209 569.443 143.776C570.708 145.301 572.053 146.757 573.474 148.139C576.844 151.413 581.684 155.225 587.034 156.413V156.415C588.394 156.71 589.653 156.798 590.773 156.537C591.973 156.255 592.933 155.575 593.523 154.527C594.073 153.57 594.184 152.503 594.154 151.588C594.134 150.654 593.954 149.672 593.734 148.735C593.474 147.627 593.084 146.331 592.714 145.135C592.504 144.426 592.293 143.753 592.133 143.174C591.903 142.316 591.723 141.577 591.633 140.962C591.553 140.315 591.593 139.984 591.633 139.858C592.183 137.956 593.183 135.848 594.943 134.09C596.673 132.357 599.244 130.863 603.154 130.313C607.374 129.719 612.153 129.498 616.623 130.266C621.093 131.032 625.113 132.759 628.023 135.946C629.313 137.348 630.433 140.014 631.313 143.681C632.163 147.266 632.704 151.493 633.044 155.716C633.694 164.185 633.454 172.347 633.184 174.759C633.084 175.733 632.554 177.543 631.534 179.946C630.534 182.298 629.114 185.074 627.344 187.939C623.784 193.693 618.904 199.617 613.234 203.252V203.251C613.234 203.251 613.143 203.297 612.883 203.411C612.603 203.533 612.223 203.694 611.753 203.895C611.513 203.996 611.243 204.109 610.943 204.231C610.113 204.579 609.104 205.001 607.984 205.483C604.934 206.787 600.934 208.562 596.854 210.646C592.784 212.725 588.563 215.144 585.083 217.753C581.673 220.308 539.614 300.208 538.404 303.45C538.294 303.734 538.194 303.777 538.194 303.781C538.154 303.802 537.984 303.882 537.564 303.852C536.624 303.789 535.154 303.267 533.154 302.143C529.244 299.939 524.264 295.979 519.284 291.576C514.334 287.199 509.493 282.483 505.893 278.854C504.435 277.391 502.992 275.913 501.564 274.421V274.421Z" fill="white" stroke="#151924" stroke-width="4.182"/>
<path d="M201.893 207.756C240.913 197.484 284.944 200.908 308.594 218.347C332.324 235.787 339.173 265.091 339.173 265.091C339.173 265.091 380.983 298.776 389.663 313.747C398.423 328.717 418.334 352.368 418.334 352.368L531.163 220.816C531.163 220.816 556.963 260.154 572.973 261.349C564.213 280.062 550.203 321.79 542.553 341.777C534.913 361.765 503.133 423.48 455.123 434.708C407.103 445.936 375.963 429.133 375.963 429.133L409.013 579.399L487.533 616.189H142.163C91.6834 616.189 38.6434 589.99 45.4934 519.516C49.7934 475.479 59.4234 376.497 110.953 310.323C110.953 310.323 95.9834 278.231 107.203 251.395C118.433 224.559 180.543 213.331 201.893 207.756V207.756Z" fill="white"/>
<path fill-rule="evenodd" clip-rule="evenodd" d="M377.953 425.453L377.983 425.472C378.033 425.494 378.103 425.531 378.203 425.582C378.403 425.683 378.723 425.839 379.153 426.038C380.013 426.438 381.333 427.013 383.073 427.676C386.553 429.004 391.723 430.685 398.363 432.033C411.643 434.727 430.823 436.095 454.163 430.636C476.783 425.347 495.983 408.017 510.663 388.974C525.283 370.009 534.953 349.951 538.653 340.283C541.053 334.008 544.133 325.417 547.513 316.017C553.903 298.22 561.343 277.523 567.133 264.142C563.613 262.706 560.173 260.331 557.023 257.736C552.083 253.655 547.173 248.417 542.873 243.336C538.563 238.235 534.763 233.188 532.053 229.425C531.603 228.802 531.183 228.214 530.803 227.666L421.503 355.091C421.109 355.552 420.619 355.92 420.068 356.172C419.517 356.424 418.917 356.553 418.311 356.55C417.705 356.548 417.107 356.413 416.558 356.156C416.01 355.899 415.523 355.525 415.133 355.061L415.323 354.896L415.133 355.061V355.059L415.123 355.056L415.073 354.988L414.893 354.782C414.743 354.602 414.523 354.337 414.243 353.995C410.76 349.796 407.34 345.545 403.983 341.243C397.903 333.45 390.583 323.605 386.053 315.859L386.043 315.844C384.153 312.59 380.243 307.998 375.123 302.75C370.073 297.583 364.113 292.039 358.383 286.925C351.819 281.085 345.138 275.376 338.344 269.803C337.764 269.332 337.313 268.966 337.013 268.719C336.863 268.596 336.743 268.502 336.663 268.44L336.553 268.352V268.348L338.043 266.49L336.553 268.348C335.825 267.766 335.315 266.955 335.104 266.046V266.043L335.094 265.999C335.084 265.957 335.063 265.888 335.043 265.793C334.993 265.604 334.913 265.311 334.803 264.924C334.593 264.151 334.253 263.007 333.773 261.57C332.445 257.65 330.861 253.82 329.033 250.106C324.533 240.955 317.263 229.903 306.123 221.717L306.113 221.713C295.113 213.603 279.023 208.535 260.623 206.824C242.283 205.118 222.003 206.785 202.953 211.8L202.943 211.802C200.113 212.542 196.653 213.363 192.753 214.289C181.493 216.96 166.533 220.511 152.133 225.549C142.483 228.927 133.333 232.896 125.983 237.568C118.563 242.276 113.393 247.433 111.063 253.009C105.913 265.313 106.703 279.075 108.963 290.08C109.902 294.629 111.158 299.107 112.723 303.479C113.181 304.758 113.668 306.027 114.183 307.283C114.373 307.718 114.513 308.048 114.603 308.263C114.653 308.371 114.693 308.45 114.713 308.499L114.743 308.555C115.023 309.154 115.156 309.81 115.131 310.469C115.107 311.129 114.926 311.773 114.603 312.349C115.743 313.824 117.363 315.513 119.573 317.33C123.383 320.447 128.843 323.861 136.343 327.147C151.334 333.721 174.363 339.74 208.213 341.884L207.953 346.058C173.743 343.891 150.213 337.795 134.663 330.977C126.883 327.568 121.083 323.967 116.923 320.565C114.943 318.939 113.313 317.339 112.023 315.806C88.1034 347.738 73.6134 387.109 64.5734 424.211C55.2734 462.393 51.8034 497.864 49.6534 519.883V519.922C46.3534 553.919 57.4534 576.665 74.9834 591.048C92.7134 605.603 117.543 612.007 142.163 612.007H468.753L407.233 583.185C406.654 582.912 406.144 582.51 405.743 582.009C405.343 581.509 405.063 580.923 404.923 580.297L371.883 430.032C371.743 429.401 371.751 428.746 371.907 428.118C372.063 427.491 372.363 426.908 372.783 426.416L337.203 325.777L341.143 324.383L376.733 425.022C377.143 425.1 377.553 425.242 377.943 425.45V425.452L377.953 425.453V425.453ZM375.963 429.133C375.963 429.133 377.603 430.018 380.713 431.246C391.143 435.369 418.123 443.359 455.123 434.708C503.133 423.48 534.913 361.765 542.553 341.777C545.023 335.315 548.163 326.581 551.573 317.087C558.013 299.149 565.433 278.497 571.173 265.333C571.793 263.914 572.393 262.581 572.973 261.349C571.653 261.25 570.274 260.893 568.844 260.321C556.124 255.233 539.723 233.131 533.613 224.391C532.053 222.173 531.163 220.816 531.163 220.816L418.334 352.368C418.334 352.368 417.303 351.153 415.623 349.1C409.873 342.094 396.433 325.325 389.663 313.747C380.983 298.776 339.173 265.091 339.173 265.091C339.173 265.091 332.324 235.787 308.594 218.347C284.944 200.908 240.913 197.484 201.893 207.756C199.183 208.463 195.823 209.261 191.993 210.17C165.613 216.43 117.013 227.962 107.203 251.395C95.9834 278.231 110.953 310.323 110.953 310.323C110.473 310.938 109.993 311.557 109.523 312.178C59.2834 378.29 49.7634 475.758 45.5034 519.428L45.4934 519.516C38.6434 589.99 91.6834 616.189 142.163 616.189H487.533L409.013 579.399L375.963 429.133V429.133ZM164.863 463.968C167.253 441.885 169.363 417.577 170.583 401.937L174.753 402.262C173.533 417.931 171.413 442.282 169.023 464.417C167.823 475.484 166.563 486.012 165.303 494.632C164.053 503.183 162.783 510.041 161.563 513.641L157.604 512.292C158.684 509.116 159.903 502.642 161.163 494.028C162.413 485.481 163.673 475.011 164.863 463.968V463.968ZM276.503 322.167C272.013 304.805 259.333 288.849 253.573 283.086L256.523 280.129C262.573 286.172 275.803 302.758 280.553 321.12C283.103 330.974 286.453 335.445 289.503 339.513C289.773 339.881 290.043 340.246 290.313 340.611C291.993 342.871 293.593 345.225 294.783 348.415C295.963 351.601 296.693 355.503 296.793 360.87C297.083 376.909 304.333 385.815 307.473 388.087L305.023 391.474C300.713 388.357 292.923 378.169 292.613 360.948C292.513 355.921 291.843 352.509 290.863 349.873C289.883 347.24 288.553 345.264 286.953 343.096C286.693 342.739 286.423 342.379 286.143 342.012C283.003 337.814 279.263 332.818 276.503 322.167V322.167ZM233.923 320.806C232.823 309.495 232.113 297.638 231.783 290.167L235.963 289.987C236.283 297.401 236.993 309.181 238.083 320.402C239.183 331.725 240.643 342.174 242.393 347.125C244.903 354.24 243.823 361.77 242.773 367.995C242.683 368.493 242.603 368.981 242.523 369.46C242.073 372.056 241.673 374.369 241.533 376.441C241.363 378.912 241.583 380.646 242.253 381.836C245.363 387.444 253.353 403.78 256.933 411.199L253.163 413.017C249.563 405.551 241.633 389.345 238.593 383.867C237.333 381.593 237.173 378.852 237.363 376.15C237.523 373.848 237.963 371.287 238.403 368.702C238.483 368.234 238.573 367.765 238.643 367.297C239.713 361.01 240.553 354.49 238.453 348.516C236.503 342.997 235.013 332.016 233.923 320.806V320.806Z" fill="#151924"/>
<path d="M269.933 119.613C269.933 119.613 296.933 101.775 294.063 80.9925C291.193 60.2075 272.483 53.5975 249.153 50.6525C225.893 47.7045 182.653 16.5685 131.933 40.6975C91.0028 60.1275 76.2729 177.346 161.474 207.766C246.684 238.105 269.933 119.693 269.933 119.693V119.613V119.613Z" fill="#151924"/>
<path d="M137.444 163.698C128.076 173.257 148.358 192.855 159.671 201.458L165.861 250.809C182.157 254.209 219.192 267.317 235.673 273.447C240.261 267.889 250.019 255.025 252.348 248.037C254.677 241.05 250.142 218.834 247.583 208.599C254.642 199.071 269.182 178.108 270.876 170.485C272.993 160.956 265.96 92.6243 260.104 95.9073C255.419 98.5336 240.11 94.3967 233.041 92C228.739 96.1424 217.793 104.618 208.425 105.383C196.714 106.339 189.066 102.515 175.444 108.012C161.821 113.509 168.991 159.635 162.06 160.591C155.129 161.547 149.154 151.748 137.444 163.698Z" fill="white"/>
<path d="M211.463 172.26C222.672 174.635 246.886 177.96 254.067 172.26M241.671 137.635C242.381 141.189 244.571 148.451 247.655 149.068C251.509 149.839 254.336 154.978 250.096 157.741M199.86 119.208C200.956 116.6 205.936 111.794 217.09 113.427M239.301 110.606C241.324 108.496 247.672 105.219 256.869 108.991M162.06 180.382C162.501 193.114 181.513 212.164 208.425 211.576M159.671 201.458C148.358 192.855 128.076 173.257 137.444 163.698C149.154 151.748 155.129 161.547 162.06 160.591C168.991 159.635 161.821 113.509 175.444 108.012C189.066 102.515 196.714 106.339 208.425 105.383C217.793 104.618 228.739 96.1424 233.041 92C240.11 94.3967 255.419 98.5336 260.104 95.9073C265.96 92.6243 272.993 160.956 270.876 170.485C269.182 178.108 254.642 199.071 247.583 208.599C250.142 218.834 254.677 241.05 252.348 248.037C250.019 255.025 240.261 267.889 235.673 273.447C219.192 267.317 182.157 254.209 165.861 250.809L159.671 201.458Z" stroke="#151924" stroke-width="4" stroke-linecap="round"/>
<ellipse cx="214.473" cy="132.597" rx="4.12787" ry="6.85352" fill="#151924"/>
<ellipse cx="248.844" cy="122.895" rx="4.12787" ry="6.18848" fill="#151924"/>
<path d="M609.337 113C611.316 124.937 601.517 135.977 587.468 137.657C573.409 139.339 560.42 131.023 558.44 119.086C556.46 107.149 566.249 96.1102 580.308 94.4286C594.358 92.7487 607.357 101.063 609.337 113Z" fill="white" stroke="#151924" stroke-width="4.18174"/>
</g>
<defs>
<clipPath id="clip0_277_2943">
<rect width="636" height="617" fill="white"/>
</clipPath>
</defs>
</svg>
