<svg width="610" height="632" viewBox="0 0 610 632" fill="none" xmlns="http://www.w3.org/2000/svg">
<path d="M41.28 224.661H469.7C490.84 224.661 507.98 238.71 507.98 256.04V598.186C507.98 615.515 490.84 629.564 469.7 629.564H41.28C20.14 629.564 3 615.515 3 598.186V256.04C3 238.71 20.14 224.661 41.28 224.661Z" fill="#1B0D6B" stroke="#1B0D6B" stroke-width="4.18174"/>
<path d="M475.619 273.858C475.549 273.781 475.479 273.708 475.409 273.638C478.839 269.876 525.509 183.96 526.169 172.88C526.319 170.314 527.479 167.071 529.299 163.513C531.099 159.998 533.439 156.363 535.809 153.056C538.159 149.756 540.499 146.818 542.259 144.705C542.709 144.147 543.139 143.646 543.499 143.213C544.469 144.384 545.849 145.945 547.529 147.576C550.899 150.85 555.739 154.662 561.089 155.85V155.852C562.449 156.147 563.709 156.235 564.829 155.974C566.029 155.692 566.989 155.012 567.579 153.964C568.129 153.007 568.239 151.94 568.209 151.025C568.189 150.091 568.009 149.109 567.789 148.172C567.529 147.064 567.139 145.768 566.769 144.572C566.559 143.863 566.349 143.19 566.189 142.611C565.959 141.753 565.779 141.014 565.689 140.399C565.609 139.752 565.649 139.421 565.689 139.295C566.239 137.393 567.239 135.285 568.999 133.527C570.729 131.794 573.299 130.3 577.209 129.75C581.429 129.156 586.209 128.935 590.679 129.703C595.149 130.469 599.169 132.196 602.079 135.383C603.369 136.785 604.489 139.451 605.369 143.118C606.219 146.703 606.759 150.93 607.099 155.153C607.749 163.622 607.509 171.784 607.239 174.196C607.139 175.17 606.609 176.98 605.589 179.383C604.589 181.735 603.169 184.511 601.399 187.376C597.839 193.13 592.959 199.054 587.289 202.689V202.688C587.289 202.688 587.199 202.734 586.939 202.848C586.659 202.97 586.279 203.131 585.809 203.332C585.569 203.433 585.299 203.546 584.999 203.668C584.169 204.016 583.159 204.438 582.039 204.92C578.989 206.224 574.989 207.999 570.909 210.083C566.839 212.162 562.619 214.581 559.139 217.19C555.729 219.745 513.669 299.645 512.459 302.887C512.349 303.171 512.249 303.214 512.249 303.218C512.209 303.239 512.039 303.319 511.619 303.289C510.679 303.226 509.209 302.704 507.209 301.58C503.299 299.376 498.319 295.416 493.339 291.013C488.389 286.636 483.549 281.92 479.949 278.291C478.149 276.478 476.649 274.942 475.619 273.858Z" fill="white" stroke="#151924" stroke-width="4.18174"/>
<path d="M175.949 207.194C214.969 196.922 258.999 200.346 282.649 217.785C306.379 235.225 313.229 264.529 313.229 264.529C313.229 264.529 355.039 298.214 363.719 313.185C372.479 328.155 392.389 351.806 392.389 351.806L505.219 220.254C505.219 220.254 531.019 259.592 547.029 260.787C538.269 279.5 524.259 321.228 516.609 341.215C508.969 361.203 477.189 422.918 429.179 434.146C381.159 445.374 350.019 428.571 350.019 428.571L383.069 578.837L461.589 615.627H116.219C65.739 615.627 12.6991 589.428 19.5491 518.954C23.8491 474.917 33.479 375.935 85.009 309.761C85.009 309.761 70.039 277.669 81.259 250.833C92.489 223.997 154.599 212.769 175.949 207.194Z" fill="white"/>
<path fill-rule="evenodd" clip-rule="evenodd" d="M352.009 424.891L352.039 424.91C352.089 424.932 352.159 424.969 352.259 425.02C352.459 425.121 352.779 425.277 353.209 425.476C354.069 425.876 355.389 426.451 357.129 427.114C360.609 428.442 365.779 430.123 372.419 431.471C385.699 434.165 404.879 435.533 428.219 430.074C450.839 424.785 470.039 407.455 484.719 388.412C499.339 369.447 509.009 349.389 512.709 339.721C515.109 333.446 518.189 324.855 521.569 315.455C527.959 297.658 535.399 276.961 541.189 263.58C537.669 262.144 534.229 259.769 531.079 257.174C526.139 253.093 521.229 247.855 516.929 242.774C512.619 237.673 508.819 232.626 506.109 228.863C505.659 228.24 505.239 227.652 504.859 227.104L395.559 354.529C394.759 355.46 393.589 355.994 392.369 355.988C391.139 355.982 389.979 355.438 389.189 354.499L389.379 354.334C389.189 354.499 389.189 354.499 389.189 354.499V354.497L389.179 354.494L389.129 354.426L388.949 354.22C388.799 354.04 388.579 353.775 388.299 353.433C387.729 352.749 386.909 351.758 385.899 350.523C383.879 348.054 381.099 344.604 378.039 340.681C371.959 332.888 364.639 323.043 360.109 315.297L360.099 315.282C358.209 312.028 354.299 307.436 349.179 302.188C344.129 297.021 338.169 291.477 332.439 286.363C326.709 281.255 321.249 276.607 317.219 273.234C315.199 271.548 313.549 270.183 312.399 269.241C311.819 268.77 311.369 268.404 311.069 268.157C310.919 268.034 310.799 267.94 310.719 267.878L310.609 267.79V267.786C310.609 267.786 310.609 267.786 312.099 265.928L310.609 267.786C309.879 267.201 309.369 266.391 309.159 265.484V265.483C309.159 265.482 309.159 265.482 309.159 265.481L309.149 265.437C309.139 265.395 309.119 265.326 309.099 265.231C309.049 265.042 308.969 264.749 308.859 264.362C308.649 263.589 308.309 262.445 307.829 261.008C306.859 258.131 305.329 254.1 303.089 249.544C298.589 240.393 291.319 229.341 280.179 221.155L280.169 221.151C269.169 213.041 253.079 207.973 234.679 206.262C216.339 204.556 196.059 206.223 177.009 211.238L176.999 211.24C174.169 211.98 170.709 212.801 166.809 213.727C155.549 216.398 140.589 219.949 126.189 224.987C116.539 228.365 107.389 232.334 100.039 237.006C92.6191 241.714 87.4491 246.871 85.1191 252.447C79.9691 264.751 80.759 278.513 83.019 289.518C84.139 294.972 85.599 299.629 86.779 302.917C87.369 304.557 87.879 305.85 88.239 306.721C88.429 307.156 88.5692 307.486 88.6592 307.701C88.7092 307.809 88.749 307.888 88.769 307.937L88.7991 307.993C89.3691 309.217 89.3092 310.628 88.6592 311.787C89.7992 313.262 91.4191 314.951 93.6291 316.768C97.4391 319.885 102.899 323.299 110.399 326.585C125.389 333.159 148.419 339.178 182.269 341.322L182.009 345.496C147.799 343.329 124.269 337.233 108.719 330.415C100.939 327.006 95.139 323.405 90.979 320.003C88.999 318.377 87.3691 316.777 86.0791 315.244C62.1591 347.176 47.6691 386.547 38.6291 423.649C29.3291 461.831 25.859 497.302 23.709 519.321V519.358C23.709 519.359 23.709 519.359 23.709 519.36C20.409 553.357 31.5091 576.103 49.0391 590.486C66.7691 605.041 91.599 611.445 116.219 611.445H442.809L381.289 582.623C380.119 582.072 379.259 581.004 378.979 579.735L345.939 429.47C345.649 428.173 345.999 426.837 346.839 425.854L311.259 325.215L315.199 323.821L350.789 424.46C351.199 424.538 351.609 424.68 351.999 424.888C351.999 424.888 351.999 424.889 351.999 424.89L352.009 424.891ZM350.019 428.571C350.019 428.571 351.659 429.456 354.769 430.684C365.199 434.807 392.179 442.797 429.179 434.146C477.189 422.918 508.969 361.203 516.609 341.215C519.079 334.753 522.219 326.019 525.629 316.525C532.069 298.587 539.489 277.935 545.229 264.771C545.849 263.352 546.449 262.019 547.029 260.787C545.709 260.688 544.329 260.331 542.899 259.759C530.179 254.671 513.779 232.569 507.669 223.829C506.109 221.611 505.219 220.254 505.219 220.254L392.389 351.806C392.389 351.806 391.359 350.591 389.679 348.538C383.929 341.532 370.489 324.763 363.719 313.185C355.039 298.214 313.229 264.529 313.229 264.529C313.229 264.529 306.379 235.225 282.649 217.785C258.999 200.346 214.969 196.922 175.949 207.194C173.239 207.901 169.879 208.699 166.049 209.608C139.669 215.868 91.069 227.4 81.259 250.833C70.039 277.669 85.009 309.761 85.009 309.761C84.529 310.376 84.0491 310.995 83.5791 311.616C33.3391 377.728 23.8191 475.196 19.5591 518.866L19.5491 518.954C12.6991 589.428 65.739 615.627 116.219 615.627H461.589L383.069 578.837L350.019 428.571ZM138.919 463.406C141.309 441.323 143.419 417.015 144.639 401.375L148.809 401.7C147.589 417.369 145.469 441.72 143.079 463.855C141.879 474.922 140.619 485.45 139.359 494.07C138.109 502.621 136.839 509.479 135.619 513.079L131.659 511.73C132.739 508.554 133.959 502.08 135.219 493.466C136.469 484.919 137.729 474.449 138.919 463.406ZM250.559 321.605C246.069 304.243 233.389 288.287 227.629 282.524L230.579 279.567C236.629 285.61 249.859 302.196 254.609 320.558C257.159 330.412 260.509 334.883 263.559 338.951C263.829 339.319 264.099 339.684 264.369 340.049C266.049 342.309 267.649 344.663 268.839 347.853C270.019 351.039 270.749 354.941 270.849 360.308C271.139 376.347 278.389 385.253 281.529 387.525L279.079 390.912C274.769 387.795 266.979 377.607 266.669 360.386C266.569 355.359 265.899 351.947 264.919 349.311C263.939 346.678 262.609 344.702 261.009 342.534C260.749 342.177 260.479 341.817 260.199 341.45C257.059 337.252 253.319 332.256 250.559 321.605ZM207.979 320.244C206.879 308.933 206.169 297.076 205.839 289.605L210.019 289.425C210.339 296.839 211.049 308.619 212.139 319.84C213.239 331.163 214.699 341.612 216.449 346.563C218.959 353.678 217.879 361.208 216.829 367.433C216.739 367.931 216.659 368.419 216.579 368.898C216.129 371.494 215.729 373.807 215.589 375.879C215.419 378.35 215.639 380.084 216.309 381.274C219.419 386.882 227.409 403.218 230.989 410.637L227.219 412.455C223.619 404.989 215.689 388.783 212.649 383.305C211.389 381.031 211.229 378.29 211.419 375.588C211.579 373.286 212.019 370.725 212.459 368.14C212.539 367.672 212.629 367.203 212.699 366.735C213.769 360.448 214.609 353.928 212.509 347.954C210.559 342.435 209.069 331.454 207.979 320.244Z" fill="#151924"/>
<path d="M258.299 88.0188C258.299 88.0188 285.299 70.1808 282.429 49.3978C279.559 28.6138 260.849 22.0038 237.519 19.0578C214.259 16.1108 171.019 -15.0252 120.299 9.10381C79.3691 28.5338 64.6392 145.752 149.839 176.172C235.049 206.511 258.299 88.0988 258.299 88.0988V88.0188Z" fill="#151924"/>
<path d="M256.629 65.1584C244.599 75.5104 230.429 60.1414 223.339 65.9544C216.259 71.7674 210.039 77.1823 198.819 77.1823C187.589 77.1823 178.029 72.6433 172.219 77.1823C166.409 81.7213 161.389 81.7214 158.919 95.8964C156.449 109.99 159.719 134.517 152.229 134.995C144.749 135.393 132.239 132.924 128.979 134.995C125.629 137.065 119.029 147.497 128.979 160.318C138.929 173.218 152.229 176.961 152.229 176.961C152.229 176.961 155.579 213.114 155.969 223.944C156.369 234.774 219.119 243.852 228.279 249.267C239.109 239.711 246.989 226.014 247.389 220.201C247.789 214.388 243.249 183.65 243.249 183.65C243.249 183.65 261.569 167.007 266.109 145.028C270.639 122.97 256.549 65.2374 256.549 65.2374" fill="white"/>
<mask id="mask0_277_2903" style="mask-type:alpha" maskUnits="userSpaceOnUse" x="123" y="64" width="145" height="186">
<path d="M256.629 65.1584C244.599 75.5104 230.429 60.1414 223.339 65.9544C216.259 71.7674 210.039 77.1823 198.819 77.1823C187.589 77.1823 178.029 72.6433 172.219 77.1823C166.409 81.7213 161.389 81.7214 158.919 95.8964C156.449 109.99 159.719 134.517 152.229 134.995C144.749 135.393 132.239 132.924 128.979 134.995C125.629 137.065 119.029 147.497 128.979 160.318C138.929 173.218 152.229 176.961 152.229 176.961C152.229 176.961 155.579 213.114 155.969 223.944C156.369 234.774 219.119 243.852 228.279 249.267C239.109 239.711 246.989 226.014 247.389 220.201C247.789 214.388 243.249 183.65 243.249 183.65C243.249 183.65 261.569 167.007 266.109 145.028C270.639 122.97 256.549 65.2374 256.549 65.2374" fill="#151924"/>
</mask>
<g mask="url(#mask0_277_2903)">
<path d="M158.92 95.8968L163.04 96.6178V96.6138L158.92 95.8968ZM152.23 134.996L152.45 139.172C152.47 139.171 152.48 139.17 152.5 139.169L152.23 134.996ZM128.98 134.996L131.18 138.551C131.19 138.543 131.21 138.535 131.22 138.527L128.98 134.996ZM128.98 160.319L132.29 157.764L132.28 157.754L128.98 160.319ZM152.23 176.962L156.4 176.577C156.24 174.853 155.03 173.405 153.36 172.936L152.23 176.962ZM228.28 249.268L226.15 252.867C227.71 253.79 229.69 253.602 231.05 252.403L228.28 249.268ZM243.25 183.651L240.44 180.556C239.41 181.493 238.91 182.883 239.11 184.262L243.25 183.651ZM266.11 145.029L270.2 145.875V145.872L266.11 145.029ZM253.9 61.9898C249.68 65.6258 245.13 65.0328 239.36 63.2608C236.77 62.4648 233.43 61.2408 230.6 60.7208C227.62 60.1738 223.87 60.1108 220.69 62.7218L226 69.1878C226.36 68.8928 227.04 68.5708 229.09 68.9468C231.28 69.3498 233.57 70.2318 236.91 71.2558C243 73.1278 251.56 75.0428 259.36 68.3278L253.9 61.9898ZM220.69 62.7218C213.51 68.6148 208.37 73.0008 198.82 73.0008V81.3648C211.72 81.3648 219.01 74.9208 226 69.1878L220.69 62.7218ZM198.82 73.0008C193.54 73.0008 189.02 71.9608 184.01 71.3318C179.5 70.7658 174.03 70.4618 169.65 73.8868L174.79 80.4788C176.22 79.3648 178.44 79.0618 182.97 79.6298C187 80.1358 192.86 81.3648 198.82 81.3648V73.0008ZM169.65 73.8868C168.38 74.8748 167.21 75.5808 165.76 76.5198C164.38 77.4148 162.81 78.4878 161.33 80.0018C158.23 83.1678 156.12 87.6298 154.8 95.1788L163.04 96.6138C164.19 89.9888 165.82 87.3638 167.3 85.8518C168.11 85.0258 169.04 84.3618 170.31 83.5378C171.52 82.7568 173.15 81.7608 174.79 80.4788L169.65 73.8868ZM154.8 95.1748C154.13 98.9998 153.87 103.419 153.71 107.731C153.54 112.183 153.49 116.376 153.28 120.328C153.07 124.287 152.71 127.393 152.09 129.453C151.37 131.82 150.96 130.887 151.97 130.823L152.5 139.169C157.24 138.866 159.24 134.688 160.09 131.882C161.03 128.768 161.42 124.771 161.63 120.777C161.85 116.776 161.91 112.165 162.07 108.039C162.22 103.773 162.48 99.8408 163.04 96.6178L154.8 95.1748ZM152.01 130.82C148.61 131.001 144.05 130.524 139.31 130.197C137.06 130.042 134.77 129.925 132.78 130C131.03 130.065 128.6 130.285 126.74 131.464L131.22 138.527C130.99 138.671 131.34 138.423 133.09 138.357C134.6 138.3 136.52 138.387 138.73 138.541C142.93 138.83 148.37 139.389 152.45 139.172L152.01 130.82ZM126.78 131.44C123.94 133.199 120.88 137.444 119.88 142.866C118.82 148.594 120.02 155.602 125.68 162.883L132.28 157.754C127.98 152.215 127.51 147.597 128.1 144.386C128.75 140.87 130.68 138.863 131.18 138.551L126.78 131.44ZM125.67 162.873C131.07 169.88 137.37 174.381 142.3 177.13C144.77 178.507 146.92 179.456 148.47 180.066C149.24 180.372 149.87 180.594 150.32 180.743C150.54 180.818 150.72 180.875 150.86 180.915C150.92 180.935 150.98 180.951 151.02 180.963C151.04 180.969 151.05 180.974 151.07 180.978C151.07 180.98 151.08 180.982 151.09 180.983C151.09 180.984 151.09 180.985 151.09 180.985C151.09 180.986 151.1 180.986 151.1 180.986C151.1 180.987 151.1 180.987 152.23 176.962C153.36 172.936 153.37 172.937 153.37 172.937V172.938V172.939C153.38 172.94 153.38 172.94 153.38 172.94C153.38 172.94 153.38 172.94 153.37 172.938C153.36 172.935 153.34 172.929 153.3 172.918C153.24 172.897 153.12 172.861 152.96 172.808C152.65 172.703 152.16 172.532 151.53 172.285C150.28 171.791 148.47 170.997 146.38 169.826C142.17 167.478 136.84 163.658 132.29 157.764L125.67 162.873ZM152.23 176.962C148.07 177.347 148.07 177.347 148.07 177.347C148.07 177.348 148.07 177.348 148.07 177.349C148.07 177.35 148.07 177.351 148.07 177.353C148.07 177.358 148.07 177.364 148.07 177.373C148.07 177.39 148.07 177.416 148.08 177.45C148.08 177.518 148.09 177.62 148.11 177.753C148.13 178.02 148.17 178.413 148.21 178.917C148.3 179.925 148.44 181.377 148.6 183.154C148.92 186.709 149.35 191.559 149.79 196.747C150.68 207.174 151.6 218.806 151.8 224.098L160.15 223.791C159.95 218.253 159 206.394 158.12 196.037C157.68 190.833 157.25 185.968 156.93 182.406C156.77 180.624 156.63 179.168 156.54 178.156C156.49 177.65 156.46 177.256 156.43 176.988C156.42 176.853 156.41 176.751 156.41 176.682C156.4 176.647 156.4 176.621 156.4 176.603C156.4 176.595 156.4 176.588 156.4 176.583C156.4 176.581 156.4 176.579 156.4 176.577C156.4 176.577 156.4 176.577 152.23 176.962ZM151.8 224.098C151.92 227.481 154.36 229.84 156.35 231.296C158.54 232.892 161.42 234.308 164.59 235.586C170.95 238.158 179.35 240.535 187.81 242.689C196.2 244.825 205.17 246.872 212.17 248.608C215.74 249.494 218.86 250.315 221.35 251.07C223.95 251.861 225.49 252.474 226.15 252.867L230.41 245.668C228.78 244.707 226.36 243.852 223.78 243.068C221.08 242.248 217.79 241.386 214.18 240.491C206.82 238.664 198.37 236.748 189.87 234.584C181.45 232.439 173.52 230.177 167.72 227.832C164.8 226.651 162.65 225.539 161.29 224.544C159.74 223.409 160.13 223.116 160.15 223.791L151.8 224.098ZM231.05 252.403C236.8 247.326 241.73 241.195 245.28 235.564C247.07 232.743 248.54 229.991 249.6 227.499C250.64 225.082 251.42 222.631 251.56 220.488L243.22 219.916C243.17 220.68 242.81 222.121 241.92 224.205C241.06 226.215 239.81 228.575 238.21 231.099C235.02 236.158 230.59 241.654 225.51 246.132L231.05 252.403ZM251.56 220.488C251.69 218.614 251.43 215.23 251.07 211.623C250.7 207.866 250.16 203.433 249.62 199.212C249.07 194.984 248.52 190.943 248.09 187.96C247.88 186.468 247.71 185.24 247.58 184.384C247.52 183.956 247.47 183.621 247.44 183.392C247.42 183.278 247.41 183.19 247.4 183.131C247.4 183.101 247.39 183.079 247.39 183.064C247.39 183.056 247.39 183.05 247.39 183.046C247.39 183.044 247.39 183.043 247.39 183.042C247.39 183.041 247.39 183.041 247.39 183.041C247.39 183.04 247.39 183.04 243.25 183.651C239.11 184.262 239.11 184.262 239.11 184.262C239.11 184.263 239.11 184.265 239.12 184.267C239.12 184.27 239.12 184.276 239.12 184.283C239.12 184.297 239.12 184.319 239.13 184.348C239.14 184.405 239.15 184.491 239.16 184.603C239.2 184.828 239.25 185.159 239.31 185.582C239.43 186.43 239.6 187.648 239.81 189.129C240.23 192.091 240.78 196.098 241.32 200.282C241.86 204.471 242.39 208.813 242.75 212.454C243.13 216.245 243.29 218.883 243.22 219.916L251.56 220.488ZM243.25 183.651C246.06 186.746 246.06 186.745 246.07 186.744C246.07 186.744 246.07 186.743 246.07 186.742C246.07 186.741 246.07 186.739 246.07 186.737C246.08 186.733 246.08 186.728 246.09 186.722C246.1 186.71 246.12 186.693 246.14 186.673C246.19 186.633 246.25 186.576 246.32 186.504C246.48 186.36 246.7 186.152 246.97 185.884C247.52 185.348 248.29 184.569 249.23 183.57C251.11 181.574 253.64 178.685 256.33 175.08C261.66 167.919 267.76 157.697 270.2 145.875L262.01 144.184C259.91 154.34 254.58 163.429 249.62 170.084C247.16 173.387 244.84 176.033 243.14 177.844C242.29 178.749 241.6 179.442 241.12 179.902C240.89 180.132 240.71 180.303 240.59 180.413C240.53 180.468 240.49 180.508 240.47 180.532C240.45 180.544 240.44 180.552 240.44 180.556C240.44 180.558 240.44 180.559 240.44 180.559C240.44 180.559 240.44 180.559 240.44 180.558V180.557C240.44 180.557 240.44 180.556 243.25 183.651ZM270.2 145.872C271.46 139.75 271.39 131.514 270.7 122.922C270 114.235 268.64 104.815 267.15 96.1528C265.66 87.4818 264.03 79.5138 262.77 73.7158C262.14 70.8158 261.6 68.4548 261.22 66.8158C261.03 65.9968 260.88 65.3578 260.77 64.9218C260.72 64.7038 260.68 64.5368 260.66 64.4228C260.64 64.3668 260.63 64.3228 260.62 64.2938C260.62 64.2788 260.62 64.2668 260.62 64.2598C260.61 64.2558 260.61 64.2528 260.61 64.2498C260.61 64.2488 260.61 64.2478 260.61 64.2478C260.61 64.2468 260.61 64.2468 256.55 65.2378C252.49 66.2298 252.49 66.2298 252.49 66.2298V66.2308C252.49 66.2328 252.49 66.2348 252.49 66.2378C252.49 66.2438 252.49 66.2538 252.5 66.2668C252.5 66.2928 252.51 66.3328 252.53 66.3858C252.55 66.4918 252.59 66.6518 252.64 66.8618C252.74 67.2828 252.89 67.9058 253.07 68.7078C253.45 70.3128 253.97 72.6338 254.59 75.4908C255.84 81.2078 257.44 89.0518 258.91 97.5708C260.38 106.1 261.69 115.249 262.36 123.591C263.04 132.027 263.02 139.28 262.01 144.187L270.2 145.872Z" fill="#151924"/>
<path d="M149.77 143.284C149.77 143.284 151.05 167.81 160.12 179.437C169.28 191.063 195.88 199.424 227.49 193.532" stroke="#151924" stroke-width="4.18174" stroke-miterlimit="10" stroke-linejoin="round"/>
<path d="M213.159 107.369C213.159 111.351 211.329 114.616 209.019 114.616C206.709 114.616 204.879 111.351 204.879 107.369C204.879 103.388 206.709 100.123 209.019 100.123C211.329 100.123 213.159 103.388 213.159 107.369Z" fill="#151924"/>
<path d="M246.529 97.8085C246.529 101.791 244.699 105.055 242.389 105.055C240.079 105.055 238.249 101.791 238.249 97.8085C238.249 93.8275 240.079 90.5625 242.389 90.5625C244.699 90.5625 246.529 93.8275 246.529 97.8085Z" fill="#151924"/>
<path d="M193.409 93.6759C193.409 93.6759 199.219 86.9869 211.489 88.6589" stroke="#151924" stroke-width="4.18174" stroke-linecap="round" stroke-linejoin="round"/>
<path d="M234.809 84.6721C234.809 84.6721 242.289 80.6901 249.379 83.8761" stroke="#151924" stroke-width="5.97239" stroke-linecap="round" stroke-linejoin="round"/>
<path d="M234.809 111.907C234.809 111.907 235.369 121.463 242.369 124.409C249.379 127.355 245.719 133.248 241.739 133.567" stroke="#151924" stroke-width="4.18174" stroke-miterlimit="10" stroke-linejoin="round"/>
<path d="M203.589 147.663C203.589 147.663 228.359 154.511 249.299 146.866" stroke="#151924" stroke-width="4.18174" stroke-miterlimit="10" stroke-linejoin="round"/>
<path d="M204.879 141.769C204.879 146.626 199.539 150.528 193.009 150.528C186.479 150.528 181.149 146.626 181.149 141.769C181.149 136.911 186.479 133.009 193.009 133.009C199.539 133.009 204.879 136.911 204.879 141.769Z" fill="white"/>
</g>
<path d="M592.616 127.644C594.596 141.7 584.796 154.699 570.746 156.677C556.686 158.657 543.696 148.866 541.716 134.81C539.736 120.755 549.526 107.757 563.586 105.777C577.636 103.799 590.636 113.589 592.616 127.644Z" fill="white" stroke="#151924" stroke-width="4.18174"/>
</svg>
