<svg width="1165" height="1877" viewBox="0 0 1165 1877" fill="none" xmlns="http://www.w3.org/2000/svg">
<g clip-path="url(#clip0_277_2364)">
<path d="M671.358 689.621C671.573 689.647 671.806 689.675 672.054 689.705C673.896 689.926 676.604 690.251 680.062 690.667C686.977 691.501 696.892 692.699 708.888 694.161C732.88 697.085 765.197 701.061 798.496 705.271C831.797 709.481 866.074 713.924 893.989 717.781C921.98 721.649 943.392 724.906 951.106 726.739C966.841 730.48 1002.9 739.218 1035.04 747.023C1051.11 750.925 1066.19 754.592 1077.26 757.285C1077.69 757.388 1078.1 757.49 1078.51 757.59H655.779L671.358 689.621Z" fill="white" stroke="#151924" stroke-width="4.18174"/>
<path d="M6.60156 519.336C44.4267 519.336 76.2795 547.446 81.137 584.873L136.8 1018.55C146.515 1094.36 211.017 1151.13 287.464 1151.13H720.104C749.648 1151.13 773.537 1175.1 773.537 1204.57V1247.57H272.652C188.243 1247.57 116.255 1186.49 102.559 1103.2L6.60156 519.336Z" fill="white"/>
<path d="M812.164 1846.88H842.105L749.334 1267.48H795.361V1227.58H271.224C189.442 1227.58 120.481 1166.34 110.766 1085.2L40.2114 494.57L0.554688 499.268L71.1882 1089.98C81.6996 1177.81 147.874 1246.85 231.806 1263.57L138.398 1846.96H168.34L393.778 1267.56H684.434L812.164 1846.96V1846.88Z" fill="#1B0D6B"/>
<path d="M918.652 1626.45L996.946 1600.86C997.097 1601.73 997.286 1602.83 997.512 1604.13C998.14 1607.75 999.047 1612.95 1000.15 1619.26C1002.36 1631.88 1005.38 1648.95 1008.63 1666.78C1015.11 1702.34 1022.5 1741.11 1026.04 1753.19C1027.03 1756.6 1029.33 1760.06 1032.4 1763.46C1035.49 1766.89 1039.49 1770.41 1044.05 1773.92C1053.17 1780.94 1064.75 1788.09 1076.41 1794.7C1088.08 1801.31 1099.88 1807.41 1109.47 1812.33C1110.21 1812.72 1110.94 1813.09 1111.65 1813.45C1120.23 1817.86 1126.59 1821.12 1129.13 1822.82L1129.14 1822.83C1134.84 1826.6 1145.47 1834.59 1153.32 1842.72C1157.26 1846.81 1160.34 1850.79 1161.82 1854.17C1162.55 1855.85 1162.82 1857.24 1162.71 1858.34C1162.62 1859.37 1162.2 1860.27 1161.26 1861.07C1160.94 1861.35 1160.18 1861.76 1158.74 1862.17C1157.36 1862.57 1155.56 1862.92 1153.36 1863.22C1148.95 1863.83 1143.14 1864.2 1136.26 1864.38C1122.51 1864.75 1104.74 1864.39 1086.03 1863.76C1073.62 1863.34 1060.8 1862.8 1048.47 1862.29C1023.73 1861.25 1001.03 1860.3 987.886 1860.56C968.421 1860.92 954.135 1858.42 944.413 1854.25C934.703 1850.09 929.766 1844.37 928.408 1838.31C927.729 1835.28 928.034 1830.54 929.048 1824.59C930.049 1818.72 931.684 1811.97 933.46 1805.05C933.998 1802.95 934.551 1800.84 935.1 1798.73C936.355 1793.92 937.6 1789.15 938.65 1784.72C940.155 1778.37 941.308 1772.52 941.517 1768.07C941.626 1765.76 941.316 1761.77 940.739 1756.72C940.155 1751.62 939.279 1745.28 938.21 1738.17C936.071 1723.95 933.147 1706.59 930.2 1689.78C927.252 1672.96 924.279 1656.68 922.043 1644.6C920.925 1638.56 919.992 1633.57 919.338 1630.09C919.053 1628.58 918.823 1627.35 918.652 1626.45Z" fill="white" stroke="#151924" stroke-width="4.18174"/>
<path d="M1161.27 1861L1160.95 1861.27C1160.53 1861.52 1159.85 1861.8 1158.83 1862.1C1157.45 1862.5 1155.65 1862.85 1153.45 1863.15C1149.05 1863.75 1143.23 1864.12 1136.35 1864.31C1122.6 1864.68 1104.83 1864.32 1086.12 1863.69C1073.71 1863.27 1060.89 1862.73 1048.56 1862.21C1023.82 1861.18 1001.12 1860.22 987.966 1860.49C968.501 1860.85 954.216 1858.35 944.494 1854.18C934.784 1850.01 929.848 1844.29 928.49 1838.23H928.488C927.938 1835.82 928.016 1832.27 928.619 1827.79C929.215 1823.37 930.29 1818.26 931.589 1812.83C932.659 1808.36 933.892 1803.64 935.116 1798.95C936.609 1793.23 938.088 1787.56 939.242 1782.46L1008.93 1802.24L1011.5 1802.97L1011.59 1800.3V1800.29L1011.6 1800.25C1011.6 1800.21 1011.6 1800.15 1011.61 1800.06C1011.62 1799.88 1011.64 1799.62 1011.67 1799.27C1011.73 1798.57 1011.84 1797.54 1012.04 1796.25C1012.44 1793.67 1013.18 1790.07 1014.57 1786C1017.2 1778.3 1022.09 1769.02 1031.18 1761.81C1035.87 1767.5 1043.19 1773.45 1051.64 1779.29C1060.96 1785.72 1071.84 1792.13 1082.46 1798C1093.09 1803.87 1103.5 1809.22 1111.9 1813.53L1111.97 1813.57C1120.41 1817.9 1126.64 1821.09 1129.15 1822.76C1134.85 1826.53 1145.48 1834.51 1153.33 1842.65C1157.27 1846.74 1160.35 1850.72 1161.83 1854.1C1162.56 1855.78 1162.83 1857.17 1162.73 1858.27C1162.63 1859.3 1162.21 1860.19 1161.27 1861Z" fill="white" stroke="#151924" stroke-width="4.18174"/>
<path d="M680.825 1779C677.851 1786.79 673.837 1800.91 670.955 1814.82C669.516 1821.77 668.368 1828.62 667.772 1834.58C667.169 1840.59 667.154 1845.47 667.852 1848.59C669.21 1854.65 674.146 1860.37 683.857 1864.54C693.578 1868.71 707.864 1871.2 727.329 1870.85C740.482 1870.58 763.185 1871.53 787.926 1872.57C800.249 1873.09 813.079 1873.62 825.485 1874.04C844.193 1874.67 861.962 1875.04 875.71 1874.67C882.59 1874.48 888.409 1874.11 892.814 1873.51C895.018 1873.21 896.818 1872.85 898.196 1872.46C899.63 1872.04 900.389 1871.64 900.711 1871.36L900.717 1871.35C901.652 1870.55 902.074 1869.65 902.169 1868.62C902.269 1867.52 902.002 1866.13 901.27 1864.45C899.798 1861.07 896.715 1857.1 892.771 1853.01C884.927 1844.87 874.289 1836.88 868.595 1833.11H868.587C866.043 1831.4 859.682 1828.14 851.102 1823.74C850.39 1823.37 849.663 1823 848.921 1822.62C839.334 1817.7 827.53 1811.59 815.863 1804.98C804.206 1798.37 792.625 1791.22 783.502 1784.2C778.94 1780.69 774.948 1777.18 771.857 1773.75C768.788 1770.34 766.487 1766.88 765.495 1763.47L767.502 1762.89C761.033 1740.83 783.679 1631.7 787.196 1615.07L680.825 1779Z" fill="white" stroke="#151924" stroke-width="4.18174"/>
<path d="M900.717 1871.35L900.277 1871.72C899.852 1871.96 899.184 1872.24 898.196 1872.53C896.817 1872.93 895.017 1873.28 892.813 1873.58C888.408 1874.18 882.589 1874.55 875.709 1874.74C861.961 1875.11 844.192 1874.75 825.484 1874.12C813.078 1873.7 800.249 1873.16 787.925 1872.64C763.184 1871.61 740.481 1870.65 727.328 1870.92C707.863 1871.28 693.578 1868.78 683.856 1864.61C674.148 1860.44 669.212 1854.73 667.853 1848.67C667.3 1846.15 667.185 1842.43 667.445 1837.83C667.703 1833.27 668.318 1827.98 669.144 1822.41C670.674 1812.1 672.911 1800.9 674.876 1791.62L748.374 1812.59L750.947 1813.32L751.037 1810.65V1810.64L751.039 1810.6C751.041 1810.56 751.044 1810.5 751.049 1810.41C751.06 1810.23 751.078 1809.97 751.109 1809.62C751.171 1808.92 751.282 1807.89 751.481 1806.6C751.88 1804.02 752.626 1800.42 754.012 1796.35C756.637 1788.65 761.525 1779.37 770.616 1772.17C779.981 1783.79 797.458 1795.36 813.899 1804.7C827.843 1812.63 841.328 1819.11 848.988 1822.79C850.842 1823.68 852.355 1824.41 853.45 1824.95L853.457 1824.96C868.505 1832.36 882.918 1842.39 892.192 1851.64C896.851 1856.28 900.066 1860.58 901.501 1864.13C902.213 1865.9 902.434 1867.34 902.29 1868.49C902.152 1869.58 901.673 1870.52 900.717 1871.35Z" fill="white" stroke="#151924" stroke-width="4.18174"/>
<path d="M304.143 69.8136C209.698 122.997 287.333 226.077 337.955 270.97L369.474 257.215C378.261 212.705 410.163 124.946 467.473 129.989C539.11 136.293 567.764 124.831 576.36 81.2754C584.957 37.7204 535.099 13.0774 519.625 17.089C504.152 21.1007 417.614 1.61555 379.79 1.04246C349.53 0.583981 316.75 46.6988 304.143 69.8136Z" fill="#151924" stroke="#151924"/>
<path d="M346.98 143.803C354.991 136.167 368.771 144.621 374.66 149.802C388.57 152.518 385.9 107.111 386.378 98.9887C386.856 90.8665 382.556 93.7331 389.244 77.6478C395.933 61.5625 476.041 58.8553 487.349 62.8368C498.656 66.8183 501.571 112.048 503.116 116.826C504.661 121.604 498.656 141.193 496.268 152.819C493.879 164.445 503.275 169.382 505.982 173.841C508.69 178.301 503.298 180.389 501.571 184.213C499.844 188.037 498.789 191.246 492.553 232.06C487.565 264.711 457.891 268.607 443.678 266.473L434.134 318.264L328.829 286.657C349.17 252.391 332.741 242.534 344.633 239.404C356.524 236.275 376.083 214.683 360.749 197.784C345.415 180.886 336.966 153.348 346.98 143.803Z" fill="white" stroke="#151924" stroke-width="4"/>
<path d="M478.283 146.595C478.283 153.762 475.337 159.654 471.753 159.654C468.17 159.654 465.223 153.841 465.223 146.595C465.223 139.348 468.17 133.535 471.753 133.535C475.337 133.535 478.283 139.348 478.283 146.595Z" fill="#151924"/>
<path d="M454.168 120.271C454.168 120.271 467.546 112.467 481.323 120.271" stroke="#151924" stroke-width="3.9816" stroke-linecap="round" stroke-linejoin="round"/>
<path d="M497.957 198.192C489.357 194.847 479.562 188.318 466.9 189.831C454.239 191.423 443.966 210.376 427.164 210.694C410.362 211.013 414.343 198.59 410.362 200.103C406.38 201.616 399.452 211.252 408.212 220.967C416.971 230.602 449.381 235.3 465.228 230.602C481.075 225.904 488.321 228.611 492.94 225.904C497.638 223.117 501.062 199.307 497.957 198.112V198.192Z" fill="#151924"/>
<path d="M283.984 309.279C283.984 309.279 295.929 316.446 307.157 320.746C318.385 325.126 349.203 328.869 362.82 332.612C376.437 336.354 393.478 340.097 405.502 343.84C417.527 347.582 434.966 350.688 434.966 350.688" stroke="#151924" stroke-width="1.9908" stroke-miterlimit="10"/>
<path d="M237.01 1165.34C141.568 1162.07 119.925 1064.39 121.033 1015.96L454.463 867.752L469.307 891.102C584.939 939.101 834.662 1040.73 908.492 1063.24C1000.78 1091.39 994.889 1281.85 994.889 1300.34C994.889 1315.13 1020.77 1587.15 1033.71 1721.31C980.26 1738.6 925.96 1736.9 905.49 1733.89L850.732 1443.27L789.558 1740.3C778.954 1751.52 690.83 1739.8 648.094 1732.54C667.637 1600.74 707.541 1333.18 710.813 1317.37C714.903 1297.6 718.994 1201.47 681.499 1187.84C644.003 1174.21 434.712 1187.84 410.852 1187.84C386.991 1187.84 356.313 1169.43 237.01 1165.34Z" fill="white"/>
<path d="M880.169 1300.34L850.732 1443.27M850.732 1443.27L789.558 1740.3C778.954 1751.52 690.83 1739.8 648.094 1732.54C667.637 1600.74 707.541 1333.18 710.813 1317.37C714.903 1297.6 718.994 1201.47 681.499 1187.84C644.003 1174.21 434.712 1187.84 410.852 1187.84C386.991 1187.84 356.313 1169.43 237.01 1165.34C141.568 1162.07 119.925 1064.39 121.033 1015.96L454.463 867.752L469.307 891.102C584.939 939.101 834.662 1040.73 908.492 1063.24C1000.78 1091.39 994.889 1281.85 994.889 1300.34C994.889 1315.13 1020.77 1587.15 1033.71 1721.31C980.26 1738.6 925.96 1736.9 905.49 1733.89L850.732 1443.27Z" stroke="black" stroke-width="4"/>
<path d="M322.502 285.704V285.778L324.019 286.211L324.593 284.2C324.019 286.211 324.02 286.211 324.021 286.211L324.025 286.212L324.04 286.217L324.104 286.235L324.356 286.307C324.579 286.371 324.909 286.466 325.341 286.59C326.205 286.839 327.472 287.205 329.087 287.674C332.317 288.613 336.936 289.966 342.489 291.619C353.596 294.926 368.437 299.436 383.378 304.247C398.327 309.061 413.343 314.167 424.816 318.666C430.559 320.919 435.362 323 438.81 324.799C440.539 325.701 441.869 326.503 442.79 327.188C443.653 327.831 443.914 328.198 443.966 328.271C443.975 328.283 443.977 328.287 443.976 328.282C445.393 332.437 445.748 338.495 446.124 344.916C446.16 345.537 446.197 346.161 446.234 346.787C446.443 350.255 446.692 353.742 447.179 356.849C447.66 359.916 448.405 362.832 449.725 365.053C450.702 366.725 451.983 369.959 453.55 374.369C454.555 377.197 455.645 380.412 456.819 383.874C457.456 385.755 458.119 387.709 458.806 389.714C462.682 401.022 467.311 413.866 472.385 423.201C473.741 425.697 476.382 431.18 480.088 438.876C483.11 445.151 486.841 452.898 491.162 461.697C500.744 481.21 513.158 505.741 526.956 530.359C540.748 554.968 555.95 579.712 571.114 599.629C578.696 609.587 586.297 618.375 593.734 625.346C601.155 632.302 608.51 637.54 615.614 640.275C642.37 650.56 660.233 654.297 672.613 656.888L673.212 657.013C685.78 659.644 691.789 661.072 696.209 666.482C697.265 667.774 698.606 670.176 700.069 673.551C701.513 676.881 703.017 681.02 704.436 685.678C707.276 694.999 709.746 706.292 710.737 717.179C711.732 728.121 711.207 738.404 708.268 745.86C706.81 749.558 704.796 752.466 702.166 754.452C699.558 756.422 696.204 757.592 691.856 757.592H550.35C527.421 757.592 506.24 740.724 490.548 723.286C482.758 714.629 476.437 705.963 472.062 699.456C469.876 696.205 468.18 693.498 467.032 691.608C466.458 690.663 466.021 689.923 465.73 689.421C465.584 689.17 465.474 688.979 465.402 688.852C465.366 688.788 465.339 688.741 465.321 688.71L465.302 688.675L465.298 688.668L465.297 688.666L465.296 688.667L461.399 689.966L473.902 782.419L473.943 782.724L474.07 783.004L474.073 783.009L474.082 783.031L474.123 783.122C474.16 783.205 474.216 783.331 474.288 783.497C474.386 783.72 474.514 784.016 474.669 784.381C474.745 784.561 474.828 784.757 474.916 784.969C475.454 786.257 476.214 788.137 477.093 790.492C478.853 795.205 481.086 801.804 482.984 809.345C486.805 824.528 489.156 843.129 483.956 857.89C481.407 865.123 475.855 872.407 468.132 879.535C460.427 886.644 450.687 893.483 439.958 899.848C418.501 912.578 393.293 923.295 373.032 930.432C362.645 934.084 348.102 941.585 331.824 950.816C315.51 960.066 297.32 971.13 279.605 981.973C277.52 983.249 275.442 984.522 273.374 985.789C257.856 995.294 242.924 1004.44 230.145 1011.86C215.579 1020.32 204.065 1026.38 197.703 1028.26C184.528 1032.17 165.755 1035.74 148.254 1032.04C130.93 1028.37 114.708 1017.56 106.316 992.266C97.829 966.688 98.8075 934.337 102.112 901.347C103.219 890.291 104.591 879.148 105.939 868.193C108.588 846.673 111.147 825.879 111.439 807.894V807.891C112.234 753.888 123.46 607.906 161.148 510.392C181.673 457.256 212.502 411.026 238.471 375.844C246.338 365.186 253.699 355.62 260.213 347.155C264.492 341.594 268.406 336.507 271.857 331.899C276.174 326.135 279.744 321.146 282.294 317.03C283.57 314.971 284.613 313.094 285.371 311.42C286.118 309.769 286.643 308.197 286.779 306.776C287.578 298.443 290.794 291.579 296.593 287.642C302.147 283.871 310.523 282.479 322.502 285.704Z" fill="white" stroke="#151924" stroke-width="4.18174"/>
<path d="M371.178 350.691C347.926 364.786 328.814 406.354 332.955 441.313C337.096 476.191 351.111 528.589 362.817 544.356C374.523 560.123 378.982 578.439 389.653 597.55C400.323 616.662 422.7 649.072 425.248 650.744C427.717 652.417 455.906 677.66 463.471 689.684" stroke="#151924" stroke-width="2.46859" stroke-miterlimit="10"/>
</g>
<defs>
<clipPath id="clip0_277_2364">
<rect width="1165" height="1877" fill="white"/>
</clipPath>
</defs>
</svg>
