<svg width="1171" height="1816" viewBox="0 0 1171 1816" fill="none" xmlns="http://www.w3.org/2000/svg">
<g clip-path="url(#clip0_277_2644)">
<path d="M400.258 1197.66V1156.75C400.258 1128.44 423.208 1105.4 451.598 1105.4H884.238C961.738 1105.4 1027.13 1047.85 1036.98 970.986L1092.64 537.318C1097.25 501.773 1126.99 474.872 1162.57 473.646L1067 1055.04C1053.47 1137.32 982.358 1197.66 898.968 1197.66H400.258Z" fill="white" stroke="#151924" stroke-width="4.18174" stroke-linejoin="round"/>
<path d="M357.949 1796.96H332.059L424.439 1219.98C424.539 1219.38 424.359 1218.76 423.969 1218.29C423.569 1217.83 422.989 1217.56 422.379 1217.56H378.439V1181.85H900.489C983.329 1181.85 1053.18 1119.82 1063.02 1037.62L1060.96 1037.38L1063.02 1037.62L1133.41 448.982L1168.91 453.189L1098.53 1041.82C1088.12 1128.74 1022.64 1197.07 939.579 1213.62C938.469 1213.84 937.739 1214.89 937.919 1216L1030.94 1796.96H1004.88L779.959 1218.89C779.649 1218.09 778.869 1217.56 778.009 1217.56H487.359C486.369 1217.56 485.529 1218.24 485.309 1219.2L357.949 1796.96Z" fill="#1B0D6B" stroke="#1B0D6B" stroke-width="4.18174" stroke-linejoin="round"/>
<path d="M526.738 1569.49L553.648 1699.35C553.298 1699.56 552.878 1699.8 552.398 1700.08C550.778 1701.03 548.428 1702.39 545.558 1704.02C539.808 1707.28 531.958 1711.62 523.508 1715.97C515.048 1720.31 506.038 1724.64 497.968 1727.88C489.808 1731.15 482.928 1733.18 478.598 1733.18C469.528 1733.18 459.678 1729.61 452.938 1723.06C446.288 1716.59 442.588 1707.16 445.738 1695.02C447.508 1688.23 447.578 1676.75 446.808 1663.65C446.028 1650.45 444.358 1635.3 442.488 1620.99C440.608 1606.67 438.528 1593.17 436.908 1583.24C436.098 1578.28 435.408 1574.21 434.928 1571.38C434.798 1570.67 434.688 1570.04 434.598 1569.49H526.738Z" fill="white" stroke="#151924" stroke-width="4.18174"/>
<path d="M563.5 1689.98C563.63 1690.68 563.78 1691.51 563.95 1692.47C564.53 1695.71 565.34 1700.34 566.28 1705.92C568.16 1717.09 570.54 1732.04 572.56 1747.19C574.57 1762.35 576.2 1777.65 576.6 1789.54C576.8 1795.5 576.68 1800.51 576.17 1804.19C575.92 1806.04 575.58 1807.46 575.18 1808.46C574.76 1809.51 574.38 1809.82 574.27 1809.88L574.26 1809.89C574.16 1809.94 573.81 1810.08 573.05 1810.26C572.34 1810.42 571.4 1810.58 570.24 1810.73C567.91 1811.03 564.8 1811.3 560.98 1811.52C553.34 1811.97 543.03 1812.26 530.87 1812.41C506.57 1812.72 475.01 1812.51 443.05 1812.1C406.08 1811.62 368.53 1810.87 341.13 1810.32C321.22 1809.91 306.66 1809.62 301.58 1809.62C295.84 1809.62 291.98 1808.18 289.86 1806.16C287.85 1804.24 287.09 1801.52 288.11 1798.04C289.15 1794.47 292.08 1790.13 297.46 1785.56C302.81 1781 310.46 1776.31 320.71 1771.99C341.57 1763.24 365.74 1751.16 385.78 1741.1C386.59 1740.69 387.4 1740.29 388.19 1739.89C397.26 1735.33 405.39 1731.25 411.87 1728.14C415.4 1726.45 418.43 1725.07 420.84 1724.05C423.31 1723.01 424.97 1722.44 425.86 1722.27H425.87C426.55 1722.14 427 1721.76 427.23 1721.52C427.49 1721.26 427.67 1720.97 427.81 1720.73C428.07 1720.26 428.3 1719.68 428.49 1719.09C428.89 1717.9 429.28 1716.29 429.66 1714.47C430.42 1710.79 431.18 1705.98 431.86 1701.22C432.54 1696.45 433.14 1691.7 433.57 1688.15C433.73 1686.75 433.88 1685.54 433.99 1684.58C438.02 1685.46 445.91 1687.49 453.82 1690.46C458.74 1692.31 463.58 1694.48 467.47 1696.92C471.42 1699.4 474.07 1701.96 475.07 1704.43C477.54 1710.6 478.97 1715.29 479.77 1718.42C480.17 1719.98 480.42 1721.15 480.57 1721.92C480.64 1722.31 480.68 1722.59 480.71 1722.77C480.73 1722.86 480.74 1722.93 480.74 1722.97L480.75 1723.01C480.75 1723.02 480.75 1723.02 480.75 1723.02C480.83 1723.67 481.21 1724.25 481.78 1724.58C482.36 1724.91 483.05 1724.94 483.66 1724.68L563.5 1689.98Z" fill="white" stroke="#151924" stroke-width="4.18174" stroke-linejoin="round"/>
<path d="M302.319 1484.69L248.599 1674.1C248.199 1674.33 247.659 1674.65 246.979 1675.04C245.479 1675.92 243.309 1677.17 240.659 1678.68C235.359 1681.68 228.099 1685.69 220.309 1689.69C212.509 1693.7 204.189 1697.69 196.759 1700.67C189.219 1703.69 182.899 1705.55 178.949 1705.55C170.639 1705.55 161.599 1702.28 155.419 1696.28C149.329 1690.36 145.929 1681.72 148.799 1670.58C151.829 1658.85 169.109 1612.14 185.709 1568.17C193.999 1546.22 202.089 1525.02 208.109 1509.3C211.129 1501.44 213.619 1494.95 215.359 1490.43C216.229 1488.17 216.909 1486.4 217.379 1485.2L217.569 1484.69H302.319Z" fill="white" stroke="#151924" stroke-width="4.18174"/>
<path d="M137.548 1664.21C137.688 1663 137.808 1661.95 137.908 1661.09C141.668 1661.93 148.868 1663.8 156.068 1666.5C160.598 1668.19 165.048 1670.19 168.628 1672.43C172.268 1674.71 174.668 1677.04 175.568 1679.27C177.838 1684.92 179.148 1689.23 179.878 1692.11C180.248 1693.55 180.468 1694.63 180.598 1695.33C180.668 1695.69 180.708 1695.95 180.728 1696.12C180.748 1696.2 180.748 1696.26 180.758 1696.3V1696.33C180.758 1696.34 180.758 1696.34 180.758 1696.34C180.838 1696.99 181.218 1697.57 181.798 1697.9C182.368 1698.23 183.068 1698.27 183.668 1698.01L257.148 1666.09C257.248 1666.69 257.378 1667.4 257.518 1668.19C258.058 1671.17 258.798 1675.45 259.668 1680.6C261.398 1690.9 263.588 1704.69 265.448 1718.66C267.298 1732.65 268.798 1746.76 269.168 1757.73C269.348 1763.22 269.248 1767.84 268.778 1771.23C268.548 1772.92 268.238 1774.22 267.878 1775.13C267.488 1776.09 267.168 1776.33 267.108 1776.36C267.108 1776.37 267.108 1776.36 267.108 1776.36C267.108 1776.36 267.108 1776.36 267.108 1776.37H267.098C267.098 1776.37 267.098 1776.37 267.088 1776.37C267.078 1776.38 267.058 1776.39 267.028 1776.4C266.978 1776.42 266.908 1776.45 266.808 1776.48C266.618 1776.54 266.368 1776.61 266.038 1776.68C265.398 1776.83 264.538 1776.98 263.468 1777.12C261.328 1777.39 258.458 1777.64 254.938 1777.84C247.898 1778.25 238.388 1778.51 227.178 1778.65C204.758 1778.94 175.658 1778.75 146.178 1778.37C112.048 1777.93 77.4082 1777.24 52.1282 1776.74C33.7782 1776.37 20.3683 1776.1 15.6883 1776.1C10.4283 1776.1 6.91812 1774.77 4.99812 1772.94C3.18812 1771.22 2.49829 1768.77 3.41829 1765.61C4.35829 1762.36 7.02834 1758.39 11.9683 1754.19C16.8883 1750 23.9282 1745.7 33.3782 1741.74C52.6082 1733.66 74.9183 1722.5 93.4083 1713.2C94.1083 1712.84 94.8081 1712.49 95.4981 1712.15C103.918 1707.91 111.458 1704.12 117.478 1701.24C120.728 1699.68 123.518 1698.4 125.738 1697.46C128.008 1696.5 129.528 1695.99 130.328 1695.84C130.988 1695.72 131.438 1695.36 131.678 1695.12C131.928 1694.86 132.108 1694.58 132.238 1694.36C132.498 1693.9 132.718 1693.36 132.898 1692.81C133.268 1691.7 133.628 1690.21 133.978 1688.52C134.678 1685.13 135.378 1680.68 135.998 1676.29C136.618 1671.88 137.158 1667.49 137.548 1664.21Z" fill="white" stroke="#151924" stroke-width="4.18174" stroke-linejoin="round"/>
<path d="M810.98 822.896L1030.34 859.915C1030.55 861.769 1030.91 865.353 1031.27 870.412C1031.77 877.403 1032.28 887.078 1032.48 898.56C1032.87 921.533 1032.01 951.696 1027.3 982.066C1022.6 1012.47 1014.06 1042.92 999.23 1066.58C984.43 1090.17 963.42 1106.94 933.62 1110.31C872.53 1117.23 766.56 1124.12 675.81 1129.27C630.44 1131.85 588.9 1134 558.7 1135.5C543.6 1136.25 531.33 1136.84 522.84 1137.24C518.6 1137.44 515.29 1137.59 513.05 1137.7C511.93 1137.75 511.08 1137.79 510.51 1137.81L509.86 1137.84L509.69 1137.85H509.65H509.64C509.64 1137.85 509.64 1137.85 509.73 1139.94L509.64 1137.85L507.48 1137.95L507.65 1140.1L542.03 1582.36H407.71L364.63 1354L360.59 1353.74L276.97 1608.24H150.1C150.24 1607.53 150.4 1606.67 150.59 1605.67C151.23 1602.38 152.16 1597.53 153.34 1591.33C155.71 1578.95 159.1 1561.17 163.16 1539.62C171.28 1496.53 182.11 1438.34 192.94 1377.97C203.78 1317.61 214.61 1255.05 222.73 1203.21C230.85 1151.47 236.3 1110.2 236.3 1092.56C236.3 1087.58 236.26 1082.51 236.22 1077.37C235.97 1046.39 235.7 1013.25 244.23 984.427C249.19 967.687 257.08 952.516 269.61 940.146C282.12 927.787 299.38 918.117 323.23 912.557C371.5 901.304 493.49 878.879 603.49 859.255C658.47 849.446 710.43 840.342 748.65 833.69C767.76 830.363 783.43 827.65 794.32 825.768C799.77 824.828 804.02 824.094 806.91 823.596C808.36 823.347 809.46 823.157 810.21 823.029L810.98 822.896Z" fill="white" stroke="#151924" stroke-width="4.18174"/>
<path d="M418.148 477.794C417.458 479.766 417.458 479.766 417.458 479.765L417.448 479.763L417.418 479.753L417.308 479.712L416.848 479.553L415.068 478.929C413.518 478.382 411.228 477.58 408.308 476.558C402.478 474.515 394.118 471.591 384.038 468.074C363.888 461.04 336.838 451.629 309.258 442.124C281.688 432.619 253.588 423.021 231.348 415.611C220.218 411.906 210.568 408.751 203.168 406.428C195.708 404.085 190.698 402.639 188.758 402.29C184.758 401.566 174.338 400.95 160.798 400.508C147.348 400.068 131.008 399.805 115.338 399.755C99.658 399.705 84.658 399.869 73.878 400.283C69.908 400.436 66.538 400.622 63.918 400.84C66.348 401.745 69.468 402.816 73.128 403.992C81.338 406.628 92.188 409.772 103.848 412.739C115.518 415.706 127.968 418.489 139.378 420.41C150.828 422.337 161.098 423.373 168.458 422.911L169.148 422.868L169.728 423.245C212.678 451.161 272.508 486.578 328.148 514.719C355.968 528.79 382.698 541.023 405.718 549.589C428.828 558.188 447.918 562.981 460.588 562.424C486.338 561.29 509.968 550.821 527.228 540.549C535.838 535.421 542.828 530.364 547.668 526.593C550.078 524.708 551.958 523.146 553.228 522.059C553.428 521.88 553.628 521.714 553.798 521.562L496.318 436.077C495.658 436.334 494.788 436.72 493.708 437.233C491.328 438.362 488.108 440.031 484.318 442.075C476.748 446.159 466.988 451.687 457.338 457.249C447.688 462.808 438.158 468.394 431.048 472.59C427.488 474.688 424.528 476.438 422.468 477.664C421.428 478.276 420.618 478.758 420.068 479.086L419.438 479.461L419.278 479.557L419.238 479.581L419.228 479.588V479.589C419.228 479.589 419.218 479.59 418.148 477.794ZM418.148 477.794L417.458 479.766L418.378 480.091L419.218 479.59L418.148 477.794ZM497.328 435.747C497.328 435.747 497.328 435.749 497.308 435.751V435.75C497.328 435.747 497.328 435.747 497.328 435.747Z" fill="white" stroke="#151924" stroke-width="4.18174"/>
<path d="M535.938 57.3263C535.938 57.3213 535.948 57.3163 535.948 57.3103C536.118 57.0993 536.378 56.7773 536.738 56.3613C537.458 55.5283 538.578 54.3173 540.138 52.8543C543.268 49.9283 548.178 45.9923 555.218 42.0543C569.278 34.1863 591.928 26.2665 626.068 26.4636C643.148 26.5622 655.128 29.011 663.678 33.217C672.158 37.3879 677.388 43.3493 680.898 50.7863C684.438 58.3043 686.228 67.3503 687.698 77.7003C688.138 80.8323 688.548 84.0873 688.978 87.4433C689.948 95.0773 690.988 103.234 692.588 111.641C697.198 135.916 703.208 153.517 708.098 165.079C710.538 170.86 712.698 175.13 714.258 177.968C715.038 179.387 715.658 180.448 716.098 181.161C716.318 181.518 716.488 181.788 716.608 181.971C716.668 182.063 716.718 182.134 716.748 182.183L716.788 182.241L716.798 182.258L716.808 182.263V182.265C716.808 182.266 716.808 182.267 718.538 181.088L716.808 182.267L716.948 182.469L717.128 182.634L745.408 208.375C744.788 208.744 743.938 209.205 742.778 209.763C738.298 211.922 729.478 215.409 712.278 220.574V220.575C694.588 225.926 682.238 235.954 674.318 244.628C670.358 248.965 667.498 252.973 665.618 255.907C665.088 256.736 664.638 257.48 664.258 258.122C663.648 257.467 662.908 256.681 662.058 255.792C659.468 253.08 655.878 249.405 651.878 245.556C647.878 241.711 643.458 237.674 639.208 234.246C634.988 230.85 630.798 227.936 627.288 226.462C620.638 223.653 614.858 222.451 608.098 222.566C601.418 222.679 593.848 224.08 583.658 226.348L583.648 226.35C573.678 228.61 563.758 228.881 555.778 226.617C547.868 224.371 541.968 219.688 539.518 211.989C536.898 203.717 535.138 188.792 533.728 175.257C533.538 173.444 533.358 171.658 533.178 169.92C532.698 165.234 532.258 160.903 531.818 157.363C531.528 154.938 531.228 152.837 530.928 151.222C530.778 150.416 530.608 149.692 530.438 149.091C530.278 148.558 530.048 147.883 529.658 147.356C528.898 146.327 528.038 145.554 526.938 145.177C525.888 144.817 524.898 144.93 524.248 145.01C524.148 145.021 524.058 145.034 523.958 145.046C522.908 145.18 521.838 145.318 520.158 144.785C520.058 144.236 520.008 143.352 520.028 142.097C520.078 139.614 520.428 136.098 521.018 131.842C522.178 123.352 524.238 112.189 526.468 101.051C528.698 89.9213 531.098 78.8533 532.938 70.5643C533.858 66.4213 534.638 62.9733 535.188 60.5623C535.468 59.3573 535.688 58.4103 535.838 57.7663C535.868 57.5993 535.908 57.4523 535.938 57.3263Z" fill="white" stroke="#151924" stroke-width="4.18174"/>
<path d="M548.348 173.523C548.348 173.523 581.158 175.594 597.398 157.756" stroke="#151924" stroke-width="2.46859" stroke-miterlimit="10"/>
<path d="M591.039 152.03L601.709 163.815" stroke="#151924" stroke-width="2.46859" stroke-miterlimit="10"/>
<path d="M555.838 111.811C555.838 119.535 553.528 125.746 550.658 125.746C547.798 125.746 545.488 119.535 545.488 111.811C545.488 104.086 547.798 97.875 550.658 97.875C553.528 97.875 555.838 104.086 555.838 111.811Z" fill="#151924"/>
<path d="M545.488 85.3658C545.488 85.3658 551.298 79.5528 567.538 85.3658" stroke="#151924" stroke-width="5.97239" stroke-linecap="round" stroke-linejoin="round"/>
<path d="M669.318 166.683C669.318 166.683 662.628 193.917 644.398 206.34" stroke="#151924" stroke-width="2.46859" stroke-miterlimit="10"/>
<path d="M606.969 56.9432C630.619 65.2252 640.019 79.4002 639.379 95.0072C638.739 110.615 629.428 128.055 636.278 136.177C643.118 144.3 650.609 146.131 650.609 146.131C650.609 146.131 651.248 130.523 660.558 121.843C669.878 113.084 677.998 112.526 680.548 120.012C683.018 127.497 690.898 155.767 669.318 166.756C686.758 181.727 702.369 182.364 718.609 181.089C701.179 149.953 716.149 111.889 718.609 101.935C721.079 91.9812 726.098 46.4322 695.518 47.0692C703.008 19.0386 664.388 2.79364 633.808 2.79364C603.228 2.79364 547.799 8.36794 539.679 2.79364C531.559 -2.78056 505.998 4.62534 511.008 22.7813C516.028 40.8582 534.109 56.4662 534.109 56.4662C534.109 56.4662 571.528 44.6002 607.048 57.1032L606.969 56.9432Z" fill="#151924"/>
<path d="M676.309 223.639C618.329 240.957 617.779 274.863 624.759 289.651C604.089 300.795 561.179 325.366 554.869 334.498C546.989 345.913 451.319 419.022 449.689 437.775C448.059 456.528 526.399 542.377 531.739 543.5C537.069 544.622 596.889 509.14 604.169 505.6C609.989 502.768 611.839 504.8 612.029 506.168C643.049 576.725 658.139 813.855 657.609 830.823C657.189 844.397 662.119 846.804 664.639 846.311C951.819 844.803 875.679 858.371 936.729 868.924C997.789 879.476 1009.09 903.597 1027.94 851.587C1046.78 799.578 972.159 571.943 936.729 420.437C901.309 268.932 824.699 249.051 801.799 245.6C778.899 242.149 767.599 223.639 757.559 216.423C747.519 209.207 748.779 201.992 676.309 223.639Z" fill="white" stroke="#151924" stroke-width="4"/>
<path d="M774.788 285.256C759.468 291.734 737.148 329.604 770.368 429.256C771.508 443.436 776.288 475.238 786.298 489.001C796.308 502.763 793.338 527.057 790.598 537.484C815.618 524.06 879.738 500.417 936.038 513.242C932.788 490.956 924.318 441.457 916.498 421.751C908.678 402.046 910.108 390.082 911.798 386.563" stroke="#151924" stroke-width="4"/>
<path d="M659.199 231.877C653.999 265.947 648.799 339.284 669.589 360.072C690.379 380.861 730.219 545.436 747.549 625.125" stroke="#151924" stroke-width="4"/>
<path d="M665.048 428.5L627.848 444.983C636.798 463.663 658.648 500.647 674.468 499.14C690.298 497.633 674.788 451.419 665.048 428.5Z" stroke="#151924" stroke-width="4"/>
<path d="M919.009 510.393C919.599 510.423 920.109 510.452 920.529 510.478C920.709 511.362 920.949 512.606 921.239 514.168C921.879 517.541 922.759 522.398 923.759 528.322C925.749 540.172 928.189 556.281 929.969 573.335C931.739 590.4 932.849 608.353 932.209 623.908C931.889 631.686 931.129 638.817 929.809 644.914C928.489 651.033 926.639 655.978 924.209 659.482C923.179 660.97 921.049 662.645 917.629 664.418C914.259 666.167 909.849 667.904 904.499 669.619C893.809 673.047 879.599 676.317 862.999 679.416C829.809 685.613 787.319 691.086 744.859 695.803C707.909 699.907 671.019 703.435 640.349 706.368C635.779 706.805 631.349 707.229 627.079 707.64C610.609 709.222 596.479 710.609 585.879 711.794C580.589 712.386 576.159 712.931 572.749 713.426C569.399 713.912 566.869 714.373 565.499 714.829C561.139 716.276 551.179 717.405 538.539 717.974C526.009 718.539 511.139 718.544 497.139 717.851C483.109 717.155 470.079 715.764 461.189 713.574C456.689 712.466 453.519 711.214 451.779 709.919C450.929 709.283 450.609 708.776 450.509 708.457C450.429 708.218 450.399 707.868 450.749 707.262C451.629 705.732 453.459 704.148 456.379 702.594C459.269 701.06 462.999 699.667 467.389 698.406C476.159 695.885 487.259 693.972 498.759 692.458C510.249 690.947 522.059 689.843 532.239 688.921C533.109 688.843 533.969 688.765 534.809 688.689C543.809 687.876 551.389 687.191 555.899 686.468L555.909 686.466C558.459 686.044 564.599 684.43 573.239 681.991C581.929 679.535 593.289 676.202 606.369 672.297C632.529 664.485 665.599 654.37 698.069 644.355C730.529 634.341 762.389 624.426 786.129 617.015C797.999 613.309 807.849 610.23 814.719 608.077C818.159 607 820.859 606.154 822.689 605.578L824.789 604.921L825.329 604.754L825.459 604.71L825.499 604.699V604.697C825.509 604.697 825.509 604.697 824.879 602.702L825.509 604.697L827.249 604.15L826.939 602.353L814.209 527.137C833.089 516.396 859.599 512.181 881.809 510.712C893.089 509.965 903.179 509.933 910.449 510.088C914.079 510.165 916.999 510.289 919.009 510.393Z" fill="white" stroke="#151924" stroke-width="4.18174"/>
<path d="M308.859 399.387C308.859 399.387 308.859 399.391 308.849 399.399C308.859 399.391 308.859 399.386 308.859 399.387ZM306.769 398.935C307.529 399.248 308.059 399.53 308.409 399.764C308.059 399.998 307.529 400.28 306.769 400.593C304.809 401.406 301.799 402.234 297.749 403.045C289.699 404.661 277.959 406.129 263.379 407.366C234.229 409.838 193.919 411.37 149.359 411.37C104.809 411.37 64.4991 409.838 35.3491 407.366C20.7591 406.129 9.02928 404.661 0.969279 403.045C-3.07072 402.234 -6.09074 401.406 -8.05074 400.593C-8.80074 400.28 -9.33087 399.998 -9.68087 399.764C-9.33087 399.53 -8.80074 399.248 -8.05074 398.935C-6.09074 398.122 -3.07072 397.293 0.969279 396.482C9.02928 394.867 20.7591 393.399 35.3491 392.162C64.4991 389.69 104.809 388.158 149.359 388.158C193.919 388.158 234.229 389.69 263.379 392.162C277.959 393.399 289.699 394.867 297.749 396.482C301.799 397.293 304.809 398.122 306.769 398.935ZM-10.1309 399.387C-10.1309 399.386 -10.1308 399.391 -10.1208 399.399C-10.1308 399.391 -10.1309 399.387 -10.1309 399.387ZM-10.1309 400.141C-10.1309 400.141 -10.1308 400.137 -10.1208 400.128C-10.1308 400.137 -10.1309 400.141 -10.1309 400.141ZM308.849 400.128C308.859 400.137 308.859 400.141 308.859 400.141C308.859 400.141 308.849 400.137 308.849 400.128Z" fill="white" stroke="#151924" stroke-width="4.18174"/>
<path d="M257.909 386.394V386.397C248.459 393.61 237.899 397.353 228.529 397.655C219.159 397.958 211.149 394.835 206.369 388.546V388.541C201.599 382.294 200.719 373.751 203.499 364.79C206.279 355.835 212.689 346.649 222.139 339.477V339.474C231.589 332.261 242.149 328.518 251.519 328.215C260.899 327.912 268.899 331.036 273.679 337.325V337.329C278.459 343.577 279.339 352.119 276.549 361.081C273.769 370.036 267.359 379.221 257.909 386.394Z" fill="white" stroke="#151924" stroke-width="4.18174"/>
<path d="M205.669 383.139V383.142C196.219 390.355 185.659 394.098 176.289 394.4C166.919 394.703 158.909 391.58 154.129 385.291V385.286C149.359 379.039 148.479 370.496 151.259 361.535C154.039 352.58 160.449 343.394 169.899 336.222V336.219C179.349 329.006 189.909 325.263 199.279 324.96C208.659 324.657 216.659 327.781 221.439 334.07C226.219 340.36 227.099 348.907 224.309 357.855C221.529 366.799 215.119 375.965 205.669 383.139Z" fill="white" stroke="#151924" stroke-width="4.18174"/>
<path d="M153.532 383.139V383.142C144.082 390.355 133.522 394.098 124.152 394.4C114.782 394.703 106.772 391.58 101.992 385.291V385.286C97.222 379.039 96.3421 370.496 99.1221 361.535C101.902 352.58 108.312 343.394 117.762 336.222V336.219C127.212 329.006 137.772 325.263 147.142 324.96C156.522 324.657 164.522 327.781 169.302 334.07C174.082 340.36 174.962 348.907 172.172 357.855C169.392 366.799 162.982 375.965 153.532 383.139Z" fill="white" stroke="#151924" stroke-width="4.18174"/>
<path d="M94.7487 383.139L94.7387 383.142C85.2887 390.355 74.7286 394.098 65.3586 394.4C55.9886 394.703 47.9887 391.58 43.2087 385.291C38.4287 379 37.5486 370.454 40.3286 361.506C43.1186 352.562 49.5187 343.395 58.9687 336.222L58.9787 336.219C68.4287 329.006 78.9786 325.263 88.3486 324.96C97.7286 324.657 105.729 327.781 110.509 334.07V334.074C115.289 340.322 116.169 348.864 113.379 357.826C110.599 366.781 104.189 375.966 94.7487 383.139Z" fill="white" stroke="#151924" stroke-width="4.18174"/>
</g>
<defs>
<clipPath id="clip0_277_2644">
<rect width="1171" height="1816" fill="white"/>
</clipPath>
</defs>
</svg>
