<svg width="104" height="349" viewBox="0 0 104 349" fill="none" xmlns="http://www.w3.org/2000/svg">
<path d="M56.3115 174.584C56.3115 174.584 85.2915 -2.5971 100.582 0.0309011C115.872 2.6579 56.3115 174.584 56.3115 174.584Z" fill="#151924"/>
<path d="M56.3923 182.871C56.3923 182.871 54.1623 3.38081 69.6923 3.30081C85.2223 3.22181 56.3923 182.871 56.3923 182.871Z" fill="#151924"/>
<path d="M59.1119 186.69C59.1119 186.69 22.802 10.8633 38.012 7.9173C53.222 4.9703 59.1119 186.69 59.1119 186.69Z" fill="#151924"/>
<path d="M22.9414 61.8281C22.9414 61.8281 56.1514 120.756 58.4614 169.968" stroke="#151924" stroke-width="1.9908" stroke-miterlimit="10"/>
<path d="M36.4013 89.4577C36.4013 89.4577 46.3613 38.4928 40.6213 38.5728C34.9713 38.5728 31.1513 55.8528 31.1513 55.8528C31.1513 55.8528 24.5413 33.9538 19.8413 36.9008C15.2213 39.9268 16.4914 57.1267 16.4914 57.1267C16.4914 57.1267 2.96143 46.1378 0.251425 51.1548C-2.37857 56.0918 16.4914 71.3807 16.4914 71.3807C16.4914 71.3807 4.63134 68.3548 3.91134 74.0088C3.28134 79.6628 36.3213 89.3778 36.3213 89.3778L36.4013 89.4577Z" fill="#151924"/>
<path d="M81.3821 186.766C85.6821 214.547 90.552 249.88 93.072 281.109H92.9922L93.1721 283.362C95.5121 313.56 91.7321 328.956 85.1921 336.897C78.7621 344.703 69.2221 345.849 57.9721 346.009H57.9621H57.9521H57.9421H57.9321H57.9221H57.9121H57.9021H57.8921H57.8821H57.872H57.862H57.852H57.842H57.832H57.822H57.812H57.802H57.7922H57.7822H57.7722H57.7622H57.7522H57.7422H57.7322H57.7221H57.7121H57.7021H57.6921H57.6821H57.6721H57.6621H57.6521H57.6421H57.6321H57.622H57.612H57.602H57.592H57.582H57.572H57.562H57.552H57.5422H57.5322H57.5222H57.5122H57.5022H57.4922H57.4822H57.4721H57.4621H57.4521H57.4421H57.4321H57.4221H57.4121H57.4021H57.3921H57.3821H57.372H57.362H57.352H57.342H57.332H57.322H57.312H57.302H57.2922H57.2822H57.2722H57.2622H57.2522H57.2422H57.2322H57.2221H57.2121H57.2021H57.1921H57.1821H57.1721H57.1621H57.1521H57.1421H57.1321H57.122H57.112H57.102H57.092H57.082H57.072H57.062H57.052H57.0422H57.0322H57.0222H57.0122H57.0022H56.9922H56.9822H56.9721H56.9621H56.9521H56.9421H56.9321H56.9221H56.9121H56.9021H56.8921H56.8821H56.872H56.862H56.852H56.842H56.832H56.822H56.812H56.802H56.7922H56.7822H56.7722H56.7622H56.7522H56.7422H56.7322H56.7221H56.7121H56.7021H56.6921H56.6821H56.6721H56.6621H56.6521H56.6421H56.6321H56.622H56.612H56.602H56.592H56.582H56.572H56.562H56.552H56.5422H56.5322H56.5222H56.5122H56.5022H56.4922H56.4822H56.4721H56.4621H56.4521H56.4421H56.4321H56.4221H56.4121H56.4021H56.3921H56.3821H56.372H56.362H56.352H56.342H56.332H56.322H56.312H56.302H56.2922H56.2822H56.2722H56.2622H56.2522H56.2422H56.2322H56.2221H56.2121H56.2021H56.1921H56.1821H56.1721H56.1621H56.1521H56.1421H56.1321H56.122H56.112H56.102H56.092H56.082H56.072H56.062H56.052H56.0422H56.0322H56.0222H56.0122H56.0022H55.9922H55.9822H55.9721H55.9621H55.9521H55.9421H55.9321H55.9221H55.9121H55.9021H55.8921H55.8821H55.872H55.862H55.852H55.842H55.832H55.822H55.812H55.802H55.7922H55.7822H55.7722H55.7622H55.7522H55.7422H55.7322H55.7221H55.7121H55.7021H55.6921H55.6821H55.6721H55.6621H55.6521H55.6421H55.6321H55.622H55.612H55.602H55.592H55.582H55.572H55.562H55.552H55.5422H55.5322H55.5222H55.5122H55.5022H55.4922H55.4822H55.4721H55.4621H55.4521H55.4421H55.4321H55.4221H55.4121H55.4021H55.3921H55.3821H55.372H55.362H55.352H55.342H55.332H55.322H55.312H55.302H55.2922H55.2822H55.2722H55.2622H55.2522H55.2422H55.2322H55.2221H55.2121H55.2021H55.1921H55.1821H55.1721H55.1621H55.1521H55.1421H55.1321H55.122H55.112H55.102H55.092H55.082H55.072H55.062H55.052H55.0422H55.0322H55.0222H55.0122H55.0022H54.9922H54.9822H54.9721H54.9621H54.9521H54.9421H54.9321H54.9221H54.9121H54.9021H54.8921H54.8821H54.872H54.862H54.852H54.842H54.832H54.822H54.812H54.802H54.7922H54.7822H54.7722H54.7622H54.7522H54.7422H54.7322H54.7221H54.7121H54.7021H54.6921H54.6821H54.6721H54.6621H54.6521H54.6421H54.6321H54.622H54.612H54.602H54.592H54.582H54.572H54.562H54.552H54.5422H54.5322H54.5222H54.5122H54.5022H54.4922C43.2522 345.889 33.7122 344.742 27.2822 336.927C20.7422 328.977 16.952 313.56 19.302 283.363C21.802 251.588 26.8121 215.216 31.2021 186.766C33.3921 172.545 35.4221 160.314 36.9121 151.638C37.6621 147.3 38.2621 143.853 38.6821 141.49C38.8221 140.736 38.9322 140.091 39.0322 139.564H73.5222C73.6222 140.091 73.732 140.735 73.872 141.49C74.292 143.854 74.9021 147.302 75.6521 151.639C77.1421 160.315 79.1821 172.546 81.3821 186.766Z" fill="white" stroke="#151924" stroke-width="4.18174"/>
</svg>
