<svg width="299" height="146" viewBox="0 0 299 146" fill="none" xmlns="http://www.w3.org/2000/svg">
<path d="M243.288 101.556L144.178 96.7789C144.878 95.7599 145.738 94.5229 146.718 93.1249C149.548 89.0889 153.418 83.7199 157.558 78.3739C161.698 73.0169 166.088 67.7349 169.958 63.8439C171.908 61.8949 173.668 60.3499 175.158 59.3239C176.758 58.2299 177.678 57.9859 178.058 58.0089C180.098 58.1349 181.048 58.3789 181.458 58.5569C181.458 58.6019 181.458 58.6549 181.458 58.7229C181.458 58.7949 181.458 58.8829 181.458 58.9939C181.458 59.3159 181.458 59.8109 181.578 60.3519C181.858 61.6149 182.658 62.6769 184.098 63.4799C184.958 63.9629 185.848 63.9219 186.528 63.7549C187.188 63.5919 187.808 63.2709 188.358 62.9279C189.448 62.2389 190.668 61.1819 191.908 59.9879C193.518 58.4439 195.388 56.4619 197.358 54.3799C198.428 53.2499 199.518 52.0899 200.618 50.9539C203.798 47.6529 207.078 44.4689 210.148 42.2669C211.668 41.1679 213.078 40.3679 214.318 39.9089C215.568 39.4499 216.528 39.3799 217.268 39.5589C219.218 40.0299 219.998 40.9449 220.368 41.9309C220.808 43.0859 220.808 44.6539 220.478 46.4819C220.188 48.0879 219.698 49.6489 219.268 51.0119C219.218 51.1769 219.168 51.3389 219.118 51.4969C218.908 52.1759 218.688 52.9069 218.578 53.4939C218.538 53.7609 218.468 54.2279 218.558 54.7219C218.608 54.9869 218.718 55.3909 219.028 55.7809C219.358 56.2039 219.818 56.4909 220.328 56.6069C220.768 56.7079 221.128 56.6439 221.288 56.6089C221.478 56.5659 221.638 56.5039 221.738 56.4619C221.928 56.3769 222.098 56.2759 222.218 56.2019C222.468 56.0459 222.748 55.8399 223.028 55.6199C223.608 55.1709 224.388 54.5229 225.318 53.7259C227.008 52.2729 229.298 50.2479 232.008 47.8499C232.278 47.6059 232.558 47.3579 232.848 47.1059C239.018 41.6459 247.208 34.4169 255.758 27.3749C264.308 20.3229 273.158 13.5109 280.628 8.86287C284.378 6.53487 287.688 4.8019 290.398 3.8409C293.238 2.8339 294.888 2.86386 295.688 3.25386C295.758 3.29186 295.958 3.39688 296.098 4.01088C296.248 4.68288 296.248 5.73286 295.998 7.22786C295.498 10.2009 294.088 14.2809 291.958 19.1839C287.728 28.9479 280.848 41.4509 273.518 53.8319C266.198 66.1959 258.478 78.3709 252.588 87.4589C249.638 92.0019 247.148 95.7719 245.398 98.4039C244.518 99.7199 243.828 100.752 243.358 101.455C243.328 101.489 243.308 101.523 243.288 101.556ZM222.698 54.2679C222.698 54.2689 222.698 54.2619 222.698 54.2489C222.698 54.2619 222.698 54.2679 222.698 54.2679ZM219.968 52.6749C219.968 52.6759 219.968 52.6739 219.978 52.6719C219.978 52.6739 219.968 52.6749 219.968 52.6749Z" fill="white" stroke="#151924" stroke-width="4.18174"/>
<path d="M23.2671 101.099L23.177 101.094C23.157 100.798 23.147 100.472 23.137 100.119C23.107 98.3771 23.1771 96.0131 23.5871 93.5001C24.4371 88.3731 26.577 83.1921 31.457 80.8181C34.907 79.1441 36.947 76.5121 38.387 73.6621C39.357 71.7571 40.1171 69.5842 40.8371 67.5392C41.1371 66.6722 41.4371 65.8281 41.7371 65.0381C42.7971 62.2401 44.007 59.7591 45.967 57.7741C47.887 55.8281 50.6669 54.2172 55.1169 53.4452C60.1369 52.5732 63.267 51.2261 65.487 49.5611C67.177 48.2961 68.307 46.8331 69.207 45.6701C69.447 45.3571 69.677 45.0651 69.897 44.8051C70.917 43.5731 72.0369 42.5091 74.3769 41.7051C76.8269 40.8591 80.687 40.2781 87.227 40.3371C93.787 40.3961 97.537 40.8691 99.927 41.4601C101.987 41.9671 103.067 42.5601 104.257 43.2111C104.417 43.2971 104.577 43.3842 104.737 43.4712C106.287 44.3062 107.977 45.0651 111.157 45.4301C114.237 45.7821 118.707 45.7681 125.877 45.1881C133.057 44.6061 138.447 43.8981 142.607 43.3111C143.337 43.2081 144.027 43.1101 144.667 43.0171C147.767 42.5731 149.967 42.2581 151.747 42.1761C153.807 42.0821 155.017 42.3232 156.127 42.9322C157.327 43.5952 158.617 44.7981 160.597 47.0941C163.307 50.2711 163.617 52.4672 163.947 54.8802C164.047 55.6042 164.157 56.3482 164.327 57.1432C164.717 58.9712 165.497 60.7891 167.417 62.5801C169.247 64.2891 172.047 65.8922 176.297 67.5832C184.657 70.9002 190.947 73.5621 195.277 76.2631C199.607 78.9611 201.527 81.4221 201.917 84.1681C202.137 85.7571 202.107 88.3831 201.857 91.5641C201.617 94.6971 201.177 98.2171 200.667 101.511C200.157 104.811 199.567 107.844 199.047 110.008C198.857 110.767 198.687 111.387 198.537 111.86C198.267 111.84 197.947 111.818 197.607 111.794C196.227 111.698 194.247 111.567 191.757 111.405C186.787 111.083 179.747 110.64 171.347 110.117C154.547 109.072 132.267 107.708 110.037 106.354C87.8071 105.001 65.6171 103.657 48.9871 102.652C40.6671 102.149 33.737 101.731 28.897 101.438L23.2671 101.099ZM200.167 112.02C200.117 112.008 200.057 111.998 200.007 111.99C200.057 111.998 200.107 112.008 200.167 112.02Z" fill="white" stroke="#151924" stroke-width="4.18174"/>
<path d="M148.857 66.6777C148.857 67.2797 148.408 68.2498 146.788 69.1898C145.228 70.0908 142.957 70.7188 140.357 70.7188C137.747 70.7188 135.477 70.1067 133.927 69.2147C132.327 68.2937 131.857 67.3267 131.857 66.6777C131.857 66.0277 132.327 65.0607 133.927 64.1397C135.477 63.2487 137.747 62.6367 140.357 62.6367C142.967 62.6367 145.248 63.2487 146.798 64.1397C148.398 65.0607 148.857 66.0277 148.857 66.6777Z" fill="white" stroke="#151924" stroke-width="4.18174"/>
<path d="M97.5869 72.6455C97.5869 73.4525 96.9567 74.6475 94.8967 75.7635C92.9267 76.8355 90.0569 77.5625 86.7769 77.5625C83.4969 77.5625 80.6267 76.8355 78.6467 75.7635C76.5967 74.6475 75.9668 73.4525 75.9668 72.6455C75.9668 71.8385 76.5967 70.6435 78.6467 69.5275C80.6267 68.4565 83.4969 67.7285 86.7769 67.7285C90.0569 67.7285 92.9267 68.4565 94.8967 69.5275C96.9567 70.6435 97.5869 71.8385 97.5869 72.6455Z" fill="white" stroke="#151924" stroke-width="4.18174"/>
<path d="M118.038 52.2688C118.038 52.4328 117.868 53.1488 116.238 53.9468C114.748 54.6818 112.528 55.1948 109.948 55.1948C107.368 55.1948 105.148 54.6818 103.658 53.9468C102.028 53.1488 101.848 52.4328 101.848 52.2688C101.848 52.1058 102.028 51.3898 103.658 50.5918C105.148 49.8568 107.368 49.3428 109.948 49.3428C112.528 49.3428 114.748 49.8568 116.238 50.5918C117.868 51.3898 118.038 52.1058 118.038 52.2688Z" fill="white" stroke="#151924" stroke-width="4.18174"/>
<path d="M281.787 99.3477L233.606 143.025H53.7366L5.55664 99.3477H281.787Z" fill="white" stroke="#151924" stroke-width="4.18174"/>
</svg>
