<svg width="510" height="741" viewBox="0 0 510 741" fill="none" xmlns="http://www.w3.org/2000/svg">
<g clip-path="url(#clip0_277_2492)">
<path d="M40.7947 300.564H469.215C490.355 300.564 507.505 315.211 507.505 333.277V689.973C507.505 708.039 490.355 722.686 469.215 722.686H40.7947C19.6547 722.686 2.51465 708.039 2.51465 689.973V333.277C2.51465 315.211 19.6547 300.564 40.7947 300.564Z" fill="#1B0D6B" stroke="#1B0D6B" stroke-width="4.18174"/>
<path d="M202.675 579.029V579.025C202.395 578.794 202.105 578.421 202.115 577.34L203.445 578.471C226.985 598.508 270.755 615.906 314.765 626.134C336.795 631.254 358.935 634.589 378.695 635.555C398.445 636.521 415.915 635.128 428.565 630.722C439.795 626.802 446.775 620.719 448.865 612.464L449.355 612.562L449.795 610.407L449.315 610.309C451.225 599.692 452.045 582.137 451.755 561.122C451.455 539.357 449.955 513.803 447.195 488.244C444.435 462.688 440.415 437.105 435.055 415.289C429.715 393.517 423.005 375.346 414.795 364.739C409.895 358.387 404.505 354.817 398.785 354.477C394.085 354.201 390.005 356.234 386.355 360.414V360.415C382.795 364.504 379.845 370.458 377.395 377.668C374.945 384.892 372.965 393.455 371.375 402.825C368.195 421.565 366.545 443.628 365.785 464.864C365.035 486.105 365.175 506.548 365.575 522.057C365.775 529.813 366.045 536.338 366.295 541.116C366.425 543.504 366.545 545.46 366.665 546.916C366.775 548.341 366.875 549.356 366.965 549.811V549.815L367.155 550.746L366.335 550.408C347.935 542.345 319.945 538.387 292.815 536.532C265.645 534.675 239.195 534.919 223.775 535.328L223.435 535.337L223.165 535.533C222.455 536.042 221.635 537.061 220.785 538.283C219.905 539.55 218.915 541.173 217.845 543.026C215.725 546.736 213.315 551.421 211.075 556.133C208.825 560.845 206.745 565.603 205.265 569.458C204.525 571.383 203.935 573.103 203.555 574.487C203.365 575.179 203.215 575.806 203.135 576.346C203.125 576.408 203.115 576.471 203.115 576.533H202.175C202.325 575.226 202.815 573.319 203.815 570.49C205.315 566.264 209.355 557.135 213.575 549.041C215.675 544.995 217.815 541.243 219.685 538.507C220.615 537.135 221.465 536.054 222.185 535.325C222.545 534.96 222.845 534.709 223.095 534.554C223.345 534.392 223.465 534.384 223.455 534.384C238.545 533.976 264.385 533.718 291.165 535.467C317.985 537.218 345.615 540.976 364.365 548.543L365.975 549.196L365.865 547.455C365.215 536.822 363.455 498.266 365.125 458.258C365.965 438.253 367.665 417.913 370.775 400.532C373.895 383.096 378.415 368.834 384.775 360.816V360.815C388.915 355.583 393.625 353.211 398.805 353.53C404.605 353.881 410.215 357.335 415.515 364.169C423.715 374.766 430.545 392.799 436.015 414.714C441.475 436.589 445.555 462.19 448.325 487.809C453.875 539.091 454.175 590.229 450.005 611.555C448.255 620.459 441.305 627.27 428.845 631.598C418.415 635.218 404.765 636.911 389.205 636.912C359.045 636.91 321.915 630.585 287.545 620.167C253.145 609.742 221.645 595.259 202.675 579.029Z" fill="white"/>
<path d="M449.575 611.453C439.735 661.774 260.895 628.206 202.995 578.671C199.535 575.717 220.225 534.951 223.485 534.856C245.525 534.259 327.745 532.939 366.535 549.975C365.555 546.737 355.125 351.363 398.845 354.003C445.645 356.832 458.595 565.407 449.605 611.453H449.575Z" stroke="#151924" stroke-width="2.20016"/>
<path d="M269.714 401.957C269.504 402.114 269.314 402.25 269.144 402.37C268.624 402.069 267.904 401.646 266.994 401.112C265.014 399.946 262.164 398.249 258.654 396.129C251.654 391.887 242.054 385.952 231.694 379.175C211.564 365.998 188.764 349.762 176.444 336.65C183.404 330.274 189.904 325.205 195.794 320.657C196.114 320.412 196.434 320.168 196.744 319.925C202.584 315.421 207.854 311.352 212.254 306.998C216.934 302.382 220.684 297.397 223.224 291.119C225.764 284.849 227.044 277.389 226.904 267.869C226.834 263.398 226.884 251.999 226.974 241.606C227.014 236.414 227.064 231.482 227.124 227.804C227.154 225.965 227.174 224.443 227.204 223.36C227.204 223.292 227.204 223.226 227.214 223.162L288.324 222.472C288.254 226.744 288.084 230.902 287.904 234.981C287.884 235.271 287.874 235.562 287.864 235.852C287.674 240.17 287.484 244.405 287.424 248.555C287.304 257.416 287.754 265.992 290.054 274.443C294.594 291.173 306.224 307.024 333.674 323.852C317.224 352.554 300.964 372.274 288.774 384.847C282.584 391.237 277.434 395.782 273.854 398.722C272.064 400.192 270.664 401.259 269.714 401.957ZM227.264 221.703C227.264 221.705 227.264 221.711 227.264 221.723C227.264 221.709 227.264 221.703 227.264 221.703Z" fill="white" stroke="#151924" stroke-width="3.39231"/>
<path d="M386.554 724.924C365.194 724.033 335.584 727.098 303.604 730.408L303.514 730.417C271.464 733.735 236.974 737.303 205.774 737.448C174.534 737.594 146.784 734.3 128.084 724.042C118.774 718.93 111.744 712.109 107.624 703.144C103.504 694.173 102.234 682.947 104.654 668.943C112.934 620.959 110.214 557.546 107.694 498.592C107.414 492.086 107.144 485.633 106.884 479.262C105.584 447.175 104.714 417.14 106.184 392.486C106.924 380.16 108.234 369.212 110.364 360.044C112.494 350.864 115.414 343.548 119.314 338.424C120.184 337.28 122.124 335.915 125.084 334.406C127.994 332.921 131.744 331.371 136.034 329.803C144.614 326.669 155.304 323.498 165.764 320.661C176.214 317.824 186.414 315.327 194.004 313.538C197.794 312.644 200.934 311.927 203.124 311.433C204.194 311.192 205.034 311.004 205.624 310.875C213.644 331.67 235.764 340.467 258.544 339.954C281.354 339.441 305.344 329.611 317.504 312.544C331.344 317.418 348.224 325.41 363.264 333.459C378.414 341.571 391.604 349.691 397.914 354.686C400.484 361.228 402.744 371.833 404.644 385.478C406.564 399.285 408.114 416.121 409.284 434.843C411.604 472.284 412.374 517.219 411.494 560.454C410.604 603.696 408.054 645.202 403.754 675.796C401.604 691.103 399.014 703.62 396.004 712.246C394.494 716.566 392.894 719.835 391.244 721.983C389.594 724.14 388.024 724.987 386.554 724.924Z" fill="white"/>
<path d="M104.654 668.943L103.574 668.756M104.654 668.943C102.234 682.947 103.504 694.173 107.624 703.144C111.744 712.109 118.774 718.93 128.084 724.042C146.784 734.3 174.534 737.594 205.774 737.448C236.974 737.303 271.464 733.735 303.514 730.417L303.604 730.408C335.584 727.098 365.194 724.033 386.554 724.924C388.024 724.987 389.594 724.14 391.244 721.983C392.894 719.835 394.494 716.566 396.004 712.246C399.014 703.62 401.604 691.103 403.754 675.796C408.054 645.202 410.604 603.696 411.494 560.454C412.374 517.219 411.604 472.284 409.284 434.843C408.114 416.121 406.564 399.285 404.644 385.478C402.744 371.833 400.484 361.228 397.914 354.686C391.604 349.691 378.414 341.571 363.264 333.459C348.224 325.41 331.344 317.418 317.504 312.544C305.344 329.611 281.354 339.441 258.544 339.954C235.764 340.467 213.644 331.67 205.624 310.875C205.034 311.004 204.194 311.192 203.124 311.433C200.934 311.927 197.794 312.644 194.004 313.538C186.414 315.327 176.214 317.824 165.764 320.661C155.304 323.498 144.614 326.669 136.034 329.803C131.744 331.371 127.994 332.921 125.084 334.406C122.124 335.915 120.184 337.28 119.314 338.424C115.414 343.548 112.494 350.864 110.364 360.044C108.234 369.212 106.924 380.16 106.184 392.486C104.714 417.14 105.584 447.175 106.884 479.262C107.144 485.633 107.414 492.086 107.694 498.592C110.214 557.546 112.934 620.959 104.654 668.943Z" stroke="#151924" stroke-width="2.20016"/>
<path d="M203.495 740.165C164.175 740.165 130.455 734.539 113.045 715.901C102.295 704.397 98.585 688.43 102.005 668.472C110.245 620.791 107.575 558.747 104.995 498.714C101.825 424.568 99.085 360.544 117.155 336.782C125.555 325.781 197.745 309.814 205.955 308.023L207.305 307.74L207.775 309.029C213.275 324.304 227.195 334.11 246.935 336.656C273.935 340.114 302.885 329.05 315.735 310.317L316.435 309.343L317.565 309.72C346.165 319.621 387.145 342.66 399.755 352.749L400.065 353L400.225 353.377C420.245 403.29 420.185 685.633 393.755 722.973C391.515 726.116 389.035 727.719 386.395 727.562C365.215 726.682 335.355 729.762 303.735 733.03C270.415 736.488 235.115 740.134 203.465 740.134L203.495 740.165ZM205.325 311.417C182.405 316.446 126.055 330.339 119.675 338.699C102.295 361.549 105.125 428.12 108.135 498.588C110.715 558.778 113.355 621.011 105.085 669.006C101.785 688.21 105.125 702.857 115.305 713.732C145.695 746.231 229.495 737.557 303.415 729.919C335.165 726.65 365.115 723.538 386.555 724.418C388.065 724.481 389.635 723.381 391.205 721.15C417.295 684.25 417.195 405.521 397.495 354.918C384.855 344.954 345.665 322.984 317.655 313.052C303.855 332.099 274.185 343.288 246.555 339.768C226.445 337.191 211.485 326.85 205.325 311.386V311.417Z" fill="#151924"/>
<path d="M202.445 312.289C197.205 329.711 197.605 364.043 226.855 365.53C256.115 367.018 259.605 350.108 257.675 340.605" stroke="#151924" stroke-width="3.39231" stroke-linecap="round"/>
<path d="M317.405 314.006C322.635 331.428 321.405 362.192 292.155 363.68C262.905 365.167 258.255 349.786 260.185 340.283" stroke="#151924" stroke-width="3.39231" stroke-linecap="round"/>
<path d="M75.0646 608.371C148.135 623.333 257.615 615.663 297.125 578.701C302.625 573.546 290.265 543.625 289.235 540.482C232.975 539.885 165.015 527.155 109.075 526.495L136.225 500.282C165.335 358.496 117.585 339.103 117.585 339.103C118.405 337.752 -26.1454 587.627 75.0346 608.371H75.0646Z" fill="white"/>
<path d="M74.9848 608.801C60.3048 605.786 50.0148 597.827 44.2348 585.097V585.096C37.2348 569.663 37.2847 548.2 41.6447 524.135C45.9947 500.109 54.6147 473.674 64.5647 448.421C84.4647 397.919 109.605 352.293 116.325 340.397L116.675 339.783C116.815 339.544 116.985 339.258 117.155 338.971C117.255 338.799 117.355 338.627 117.455 338.465L117.795 338.668L117.855 338.701L117.915 338.726C119.435 339.394 131.195 345.2 139.055 368.077C146.945 391 150.935 431.107 136.705 500.372L136.695 500.378L136.675 500.512L112.155 524.192L110.255 526.028L112.895 526.084C139.545 526.643 169.165 529.824 197.915 532.912L198.665 532.992L199.155 533.045C229.605 536.328 261.125 539.726 289.235 540.008H289.245H289.565L289.665 540.331C289.665 540.332 289.665 540.334 289.675 540.335C289.795 540.725 290.055 541.422 290.395 542.329C290.455 542.476 290.515 542.628 290.575 542.786C294.825 554.087 297.415 562.462 298.455 568.438C298.985 571.427 299.105 573.755 298.895 575.52C298.675 577.28 298.145 578.383 297.415 579.059C284.125 591.5 262.435 600.747 236.535 606.875C211.445 612.813 182.535 615.795 153.765 615.968L153.795 615.945H151.135C124.415 615.945 97.9648 613.53 74.9848 608.801ZM296.815 578.371V578.37C297.455 577.776 297.865 576.833 298.035 575.496C298.205 574.152 298.155 572.296 297.745 569.72C296.935 564.565 294.685 556.318 289.705 543.109V543.098C289.595 542.828 289.505 542.58 289.425 542.341L289.395 542.257C289.315 542.051 289.245 541.847 289.165 541.656L288.905 540.961L288.155 540.951C260.155 540.574 228.905 537.218 198.585 533.948C168.305 530.68 136.945 527.311 109.095 526.964H109.085H107.965L135.555 500.284L135.805 500.047L135.865 499.714C161.495 374.369 126.455 345.063 118.775 340.304L117.805 339.701L117.235 340.697C110.735 352.186 85.6748 397.552 65.7348 447.792C55.7648 472.911 47.0646 499.284 42.6146 523.273C38.1646 547.221 37.9147 568.982 45.0647 584.748V584.749C50.7147 597.194 60.8647 605.013 75.1347 607.939L75.7147 608.058L75.7446 608.026C112.515 615.478 157.915 617.119 198.985 612.433C219.625 610.077 239.195 606.12 256.035 600.483C272.865 594.85 287.035 587.518 296.815 578.371Z" fill="white" stroke="#151924" stroke-width="2.20016"/>
<path d="M239.295 65.6398C264.345 59.8168 292.305 67.8668 309.505 89.5708L310.675 91.1348C326.085 111.774 330.015 146.221 324.765 179.11C322.145 195.505 317.255 211.396 310.475 224.833C303.675 238.285 295.025 249.175 284.935 255.71L285.785 257.022L284.935 255.71C269.725 265.565 251.625 263.562 232.695 258.587C227.945 257.335 222.035 253.09 215.945 246.023C209.885 239.003 203.795 229.371 198.635 217.66C188.305 194.242 181.735 162.64 186.465 127.268C191.195 91.9898 213.725 71.5838 239.295 65.6398Z" fill="white" stroke="#151924" stroke-width="3.39231"/>
<path d="M258.995 175.312C258.995 175.312 255.085 184.052 259.945 189.896C264.815 195.739 258.845 199.281 255.165 197.729" stroke="#151924" stroke-width="4.18174" stroke-miterlimit="10" stroke-linejoin="round"/>
<path d="M176.625 159.114C178.215 158.646 179.535 158.672 180.655 159.03C181.785 159.389 182.805 160.115 183.735 161.201C185.625 163.409 187.015 166.97 188.005 171.306C189.985 179.939 190.225 190.972 190.245 198.39C190.245 200.156 190.105 201.517 189.865 202.534C189.625 203.562 189.305 204.151 189.015 204.465C188.755 204.741 188.495 204.839 188.175 204.833C187.805 204.827 187.275 204.673 186.585 204.256C185.195 203.42 183.515 201.75 181.745 199.41C179.985 197.093 178.195 194.203 176.565 191.023C173.305 184.64 170.785 177.227 170.415 171.078C170.235 168.005 170.605 165.348 171.595 163.306C172.565 161.31 174.165 159.839 176.625 159.114Z" fill="white" stroke="#151924" stroke-width="2.42982"/>
<path d="M179.295 172.528C179.715 171.175 181.765 171.799 181.345 173.153C178.845 181.345 181.345 186.17 184.715 188.01C185.235 188.287 185.415 188.947 185.135 189.468C183.265 192.904 175.725 184.261 179.295 172.528Z" fill="#151924"/>
<path d="M334.874 158.735C337.344 159.461 338.944 160.931 339.914 162.928C340.904 164.97 341.264 167.627 341.084 170.699C340.724 176.848 338.194 184.261 334.934 190.644C333.314 193.824 331.524 196.715 329.774 199.032C327.994 201.371 326.304 203.041 324.914 203.878C324.224 204.295 323.694 204.448 323.324 204.455C323.004 204.46 322.744 204.362 322.494 204.087C322.204 203.772 321.884 203.183 321.634 202.155C321.404 201.139 321.274 199.777 321.274 198.012C321.284 190.594 321.524 179.56 323.494 170.927C324.484 166.591 325.884 163.031 327.774 160.822C328.704 159.736 329.724 159.01 330.854 158.651C331.974 158.293 333.294 158.268 334.874 158.735Z" fill="white" stroke="#151924" stroke-width="2.42982"/>
<path d="M332.165 172.15C331.755 170.796 329.704 171.421 330.114 172.775C332.614 180.966 330.114 185.791 326.754 187.631C326.234 187.909 326.055 188.568 326.335 189.089C328.205 192.525 335.745 183.882 332.165 172.15Z" fill="#151924"/>
<path d="M228.114 176.765C223.464 176.765 219.814 159.027 231.094 159.027C237.134 159.027 235.714 176.765 228.114 176.765Z" fill="#151924"/>
<path d="M290.125 176.765C294.775 176.765 298.425 159.027 287.145 159.027C281.105 159.027 282.525 176.765 290.125 176.765Z" fill="#151924"/>
<path d="M210.944 150.478C214.094 148.319 223.574 144.409 236.344 146.04" stroke="#151924" stroke-width="4.84616" stroke-linecap="round"/>
<path d="M305.354 150.856C302.204 148.697 292.724 144.787 279.944 146.419" stroke="#151924" stroke-width="4.84616" stroke-linecap="round"/>
<path d="M242.645 227.684C247.015 229.66 257.925 233.021 266.565 230.649" stroke="#151924" stroke-width="4.84616" stroke-linecap="round"/>
<path d="M182.285 101.769C182.285 83.3532 202.535 69.5412 212.665 64.9382C219.175 62.1252 228.365 59.3612 239.125 57.8112C226.155 39.0342 220.145 3.24416 265.355 3.00116C310.565 2.75816 297.075 40.8742 284.675 59.9632C303.785 63.2002 315.235 69.9652 332.625 87.7652C383.905 140.274 339.115 202.186 340.815 216.582C342.165 228.098 351.535 236.34 356.055 239.022C347.875 238.599 327.125 233.518 325.095 216.582C322.555 195.412 331.835 183.088 315.825 160.214C299.815 137.34 267.785 144.202 249.945 94.7942C249.325 101.046 241.495 117.211 215.175 131.85C182.285 150.149 195.675 231.635 203.215 236.985L198.025 234.515C159.245 210.852 170.225 165.912 178.075 146.846C170.785 154.366 158.325 155.66 151.895 155.175C162.025 145.046 182.285 120.184 182.285 101.769Z" fill="#151924"/>
<path d="M239.125 57.8112C228.365 59.3612 219.175 62.1252 212.665 64.9382C202.535 69.5412 182.285 83.3532 182.285 101.769C182.285 120.184 162.025 145.046 151.895 155.175C159.875 155.777 177.125 153.64 182.285 140.274C188.725 123.567 142.645 200.728 198.025 234.515L203.215 236.985C195.675 231.635 182.285 150.149 215.175 131.85C241.495 117.211 249.325 101.046 249.945 94.7942C267.785 144.202 299.815 137.34 315.825 160.214C331.835 183.088 322.555 195.412 325.095 216.582C327.125 233.518 347.875 238.599 356.055 239.022C351.535 236.34 342.165 228.098 340.815 216.582C339.115 202.186 383.905 140.274 332.625 87.7652C315.235 69.9652 303.785 63.2002 284.675 59.9632M239.125 57.8112C226.155 39.0342 220.145 3.24416 265.355 3.00116C310.565 2.75816 297.075 40.8742 284.675 59.9632M239.125 57.8112C250.175 56.2202 271.515 57.7332 284.675 59.9632" stroke="#151924" stroke-width="4.84616"/>
<path d="M449.575 611.453C439.735 661.774 260.895 628.206 202.995 578.671C199.535 575.717 220.225 534.951 223.485 534.856C245.525 534.259 327.745 532.939 366.535 549.975C365.555 546.737 355.125 351.363 398.845 354.003C445.645 356.832 458.595 565.407 449.605 611.453H449.575Z" fill="white"/>
<path d="M202.675 579.029V579.025C202.395 578.794 202.105 578.421 202.115 577.34L203.445 578.471C226.985 598.508 270.755 615.906 314.765 626.134C336.795 631.254 358.935 634.589 378.695 635.555C398.445 636.521 415.915 635.128 428.565 630.722C439.795 626.802 446.775 620.719 448.865 612.464L449.355 612.562L449.795 610.407L449.315 610.309C451.225 599.692 452.045 582.137 451.755 561.122C451.455 539.357 449.955 513.803 447.195 488.244C444.435 462.688 440.415 437.105 435.055 415.289C429.715 393.517 423.005 375.346 414.795 364.739C409.895 358.387 404.505 354.817 398.785 354.477C394.085 354.201 390.005 356.234 386.355 360.414V360.415C382.795 364.504 379.845 370.458 377.395 377.668C374.945 384.892 372.965 393.455 371.375 402.825C368.195 421.565 366.545 443.628 365.785 464.864C365.035 486.105 365.175 506.548 365.575 522.057C365.775 529.813 366.045 536.338 366.295 541.116C366.425 543.504 366.545 545.46 366.665 546.916C366.775 548.341 366.875 549.356 366.965 549.811V549.815L367.155 550.746L366.335 550.408C347.935 542.345 319.945 538.387 292.815 536.532C265.645 534.675 239.195 534.919 223.775 535.328L223.435 535.337L223.165 535.533C222.455 536.042 221.635 537.061 220.785 538.283C219.905 539.55 218.915 541.173 217.845 543.026C215.725 546.736 213.315 551.421 211.075 556.133C208.825 560.845 206.745 565.603 205.265 569.458C204.525 571.383 203.935 573.103 203.555 574.487C203.365 575.179 203.215 575.806 203.135 576.346C203.125 576.408 203.115 576.471 203.115 576.533H202.175C202.325 575.226 202.815 573.319 203.815 570.49C205.315 566.264 209.355 557.135 213.575 549.041C215.675 544.995 217.815 541.243 219.685 538.507C220.615 537.135 221.465 536.054 222.185 535.325C222.545 534.96 222.845 534.709 223.095 534.554C223.345 534.392 223.465 534.384 223.455 534.384C238.545 533.976 264.385 533.718 291.165 535.467C317.985 537.218 345.615 540.976 364.365 548.543L365.975 549.196L365.865 547.455C365.215 536.822 363.455 498.266 365.125 458.258C365.965 438.253 367.665 417.913 370.775 400.532C373.895 383.096 378.415 368.834 384.775 360.816V360.815C388.915 355.583 393.625 353.211 398.805 353.53C404.605 353.881 410.215 357.335 415.515 364.169C423.715 374.766 430.545 392.799 436.015 414.714C441.475 436.589 445.555 462.19 448.325 487.809C453.875 539.091 454.175 590.229 450.005 611.555C448.255 620.459 441.305 627.27 428.845 631.598C418.415 635.218 404.765 636.911 389.205 636.912C359.045 636.91 321.915 630.585 287.545 620.167C253.145 609.742 221.645 595.259 202.675 579.029Z" stroke="#151924" stroke-width="2.20016"/>
<path d="M132.435 530.832C129.505 533.274 178.055 560.946 202.805 576.897C202.805 571.281 213.655 547.672 223.175 534.902L223.035 534.755C212.725 524.38 193.945 505.487 191.975 506.96C189.515 508.809 202.845 528.695 197.345 530.832C191.855 532.969 153.795 482.702 148.305 483.211C142.805 483.72 183.205 529 180.455 528.695C177.705 528.389 136.095 487.688 133.345 491.554C130.595 495.421 172.525 533.579 170.275 534.902C168.035 536.225 130.795 503.053 127.745 506.512C124.695 509.972 174.145 547.519 170.275 548.944C166.415 550.369 136.095 527.779 132.435 530.832Z" fill="white" stroke="#151924" stroke-width="3"/>
</g>
<defs>
<clipPath id="clip0_277_2492">
<rect width="510" height="741" fill="white"/>
</clipPath>
</defs>
</svg>
