<svg width="3028" height="1460" viewBox="0 0 3028 1460" fill="none" xmlns="http://www.w3.org/2000/svg">
<path d="M1714.03 1123.99C1719.83 1102.97 1719.06 1057.64 1717.96 1037.6L1768.08 1038.96C1766.21 1045.71 1762.5 1063.25 1762.6 1079.44C1762.7 1095.63 1769.94 1111.81 1773.55 1117.88C1769.56 1120.93 1758.38 1127.81 1745.55 1130.86C1732.72 1133.92 1719.19 1127.55 1714.03 1123.99Z" fill="white" stroke="#151924" stroke-width="4.18"/>
<path d="M1228.39 1016.87C1239.39 1025.35 1251.41 1027.49 1266.91 1018.54L1264.71 942.36L1215.56 943.73L1228.39 1016.87Z" fill="white"/>
<path d="M965.9 1016.17L1004.83 1019.88L1011.79 947.561L964.18 948.911L965.9 1016.17Z" fill="white"/>
<path d="M1212.5 982.3C1212.84 980.92 1213.14 979.76 1213.37 978.87L1271.76 984.38C1271.9 985.61 1272.09 987.37 1272.32 989.55C1272.79 993.96 1273.44 1000.05 1274.16 1006.81C1275.59 1020.32 1277.29 1036.43 1278.32 1046.89C1278.87 1052.43 1281.2 1060.38 1283.96 1069.1C1284.73 1071.5 1285.53 1073.97 1286.34 1076.49C1288.52 1083.23 1290.8 1090.3 1292.76 1097.23C1295.46 1106.75 1297.46 1115.77 1297.72 1123.02C1297.98 1130.45 1296.39 1135.07 1293.07 1137.13C1289.6 1139.28 1284.66 1138.95 1278.42 1136.15C1272.28 1133.39 1265.51 1128.5 1258.97 1122.72C1252.47 1116.96 1246.31 1110.42 1241.4 1104.46C1236.45 1098.45 1232.92 1093.2 1231.5 1090.02C1229.9 1086.43 1227.09 1081.25 1223.9 1075.39C1223.64 1074.92 1223.38 1074.45 1223.12 1073.97C1220.1 1068.44 1216.75 1062.31 1213.64 1056.19C1210.26 1049.53 1207.19 1042.95 1205.13 1037.2C1203.03 1031.33 1202.16 1026.8 1202.68 1024.01C1203.98 1017.16 1206.77 1005.4 1209.26 995.29C1210.49 990.25 1211.65 985.65 1212.5 982.3Z" fill="white" stroke="#151924" stroke-width="4.84616"/>
<path d="M955.459 989.61C955.699 987.45 955.899 985.69 956.029 984.47L1014.44 979.03C1014.66 979.92 1014.95 981.08 1015.3 982.45C1016.14 985.8 1017.28 990.41 1018.51 995.45C1020.97 1005.55 1023.74 1017.32 1025.04 1024.17C1025.57 1026.95 1024.7 1031.48 1022.58 1037.36C1020.52 1043.1 1017.44 1049.68 1014.04 1056.34C1010.84 1062.59 1007.4 1068.85 1004.3 1074.48C1004.11 1074.83 1003.92 1075.17 1003.73 1075.51C1000.52 1081.36 997.689 1086.52 996.069 1090.09V1090.1C994.649 1093.25 991.109 1098.49 986.139 1104.49C981.219 1110.44 975.049 1116.98 968.529 1122.73C961.979 1128.51 955.189 1133.39 949.039 1136.15C942.799 1138.95 937.869 1139.28 934.419 1137.14C931.119 1135.05 929.549 1130.43 929.829 1123.01C930.099 1115.75 932.119 1106.74 934.829 1097.23C936.789 1090.37 939.059 1083.37 941.229 1076.67C942.069 1074.1 942.889 1071.58 943.669 1069.13C946.439 1060.41 948.779 1052.45 949.329 1046.9C950.359 1036.4 952.089 1020.3 953.559 1006.83C954.299 1000.09 954.969 994.01 955.459 989.61Z" fill="white" stroke="#151924" stroke-width="4.84616"/>
<path d="M1114.93 470.365L1110.86 470.248C1062.43 666.299 1054.96 734.439 1051.46 785.549C1051.12 790.429 1050.82 795.159 1050.53 799.829C1047.76 843.769 1045.32 882.429 1015.88 997.779C1015.73 998.369 1015.21 998.759 1014.66 998.779L1014.37 998.729C1007.72 997.639 1001.8 996.679 996.529 995.819C977.149 992.659 966.609 990.949 960.879 989.739C959.069 989.359 957.789 989.039 956.899 988.759C956.209 988.539 955.829 988.369 955.629 988.259C955.629 988.199 955.639 988.149 955.639 988.089C955.639 988.009 955.639 987.909 955.649 987.749C956.069 964.429 959.099 803.449 966.909 633.459C970.809 548.459 975.909 461.223 982.469 387.828C988.929 315.512 1004.79 339.558 1014.26 309.663L1120.33 319.211L1242.06 300.67C1243.33 304.385 1246.19 318.364 1247.49 325.933C1248.94 334.422 1250.37 345.114 1251.77 357.691C1254.57 382.843 1249.25 332.765 1251.77 370.199C1256.8 445.063 1261.18 539.149 1264.61 631.329C1268.03 723.509 1270.5 813.769 1271.72 880.979C1272.33 914.579 1272.62 942.409 1272.57 961.829C1272.54 971.549 1272.43 979.139 1272.22 984.279C1272.12 986.869 1271.99 988.789 1271.85 990.049C1271.85 990.099 1271.84 990.149 1271.83 990.199L1212.93 989.319H1212.92C1212.84 989.309 1212.76 989.319 1212.68 989.319C1212.52 988.869 1212.33 988.239 1212.11 987.389C1210.65 981.949 1207.99 968.899 1202.21 938.409C1196.44 907.979 1187.57 860.279 1173.68 785.619C1159.77 710.829 1140.83 608.989 1114.93 470.365ZM1211.24 989.799C1211.13 989.859 1211.14 989.829 1211.24 989.789C1211.24 989.799 1211.24 989.799 1211.24 989.799Z" fill="white" stroke="#151924" stroke-width="4.1677"/>
<path d="M1112.65 458.087C1111.91 458.087 1111.27 457.531 1111.18 456.8C1104.69 401.793 1106.91 366.876 1108.55 341.376C1109.96 319.443 1110.8 306.196 1104.78 295.288C1104.4 294.586 1104.63 293.679 1105.36 293.299C1106.07 292.919 1106.97 293.153 1107.35 293.884C1113.82 305.552 1112.94 319.092 1111.51 341.551C1109.87 366.934 1107.65 401.705 1114.11 456.449C1114.2 457.239 1113.64 457.97 1112.82 458.057C1112.76 458.057 1112.7 458.057 1112.65 458.057V458.087Z" fill="#323D4D"/>
<path d="M1098.23 375.705C1096.24 375.705 1094.37 375.325 1092.64 373.833C1087.47 369.33 1084.22 355.849 1080.92 294.7C1080.89 293.881 1081.5 293.209 1082.29 293.15C1083.08 293.063 1083.78 293.735 1083.84 294.525C1086.68 347.017 1089.48 367.195 1094.57 371.611C1096.12 372.956 1097.91 372.868 1100.89 372.605C1103.08 372.43 1105.57 372.196 1108.43 372.781C1109.22 372.927 1109.75 373.716 1109.58 374.506C1109.43 375.296 1108.64 375.822 1107.85 375.646C1105.39 375.149 1103.23 375.354 1101.12 375.529C1100.13 375.617 1099.16 375.705 1098.23 375.705Z" fill="#323D4D"/>
<path d="M885.24 1154.22H849.1L877.12 785.13H933.26L885.24 1154.22Z" fill="#1B0D6B"/>
<path d="M1276.79 787.22H1328.61L1356.33 1152.13H1324.27L1276.79 787.22Z" fill="#1B0D6B" stroke="#1B0D6B" stroke-width="4.18174"/>
<path d="M307.109 1153.26H270.949L298.989 784.17H355.129L307.109 1153.26Z" fill="#1B0D6B"/>
<path d="M698.65 786.26H750.48L778.19 1151.17H746.13L698.65 786.26Z" fill="#1B0D6B" stroke="#1B0D6B" stroke-width="4.18174"/>
<path d="M1490.47 787.22L1442.99 1152.13H1410.93L1438.65 787.22H1490.47Z" fill="#1B0D6B" stroke="#1B0D6B" stroke-width="4.18174"/>
<path d="M1836.36 787.22H1888.18L1915.9 1152.13H1883.83L1836.36 787.22Z" fill="#1B0D6B" stroke="#1B0D6B" stroke-width="4.18174"/>
<path d="M2096.22 787.22L2048.75 1152.13H2016.68L2044.4 787.22H2096.22Z" fill="#1B0D6B" stroke="#1B0D6B" stroke-width="4.18174"/>
<path d="M2442.13 787.22H2493.95L2521.67 1152.13H2489.61L2442.13 787.22Z" fill="#1B0D6B" stroke="#1B0D6B" stroke-width="4.18174"/>
<path d="M2317.12 928.21C2317.5 926.69 2317.82 925.43 2318.06 924.51L2377.01 930.07L2377.03 930.29C2377.17 931.52 2377.36 933.3 2377.59 935.51C2378.07 939.92 2378.72 946.02 2379.43 952.77C2380.87 966.28 2382.56 982.4 2383.59 992.86C2384.14 998.35 2386.45 1006.27 2389.22 1015C2389.99 1017.4 2390.78 1019.86 2391.6 1022.38C2393.78 1029.12 2396.07 1036.2 2398.03 1043.13C2400.72 1052.66 2402.73 1061.71 2402.99 1069.01C2403.25 1076.45 2401.68 1081.24 2398.19 1083.41C2394.58 1085.65 2389.49 1085.26 2383.23 1082.45C2377.04 1079.67 2370.24 1074.76 2363.7 1068.97C2357.17 1063.19 2351.01 1056.64 2346.09 1050.66C2341.14 1044.65 2337.57 1039.37 2336.14 1036.16C2334.55 1032.58 2331.75 1027.41 2328.55 1021.55C2328.29 1021.08 2328.03 1020.6 2327.77 1020.13C2324.75 1014.59 2321.4 1008.46 2318.29 1002.34C2314.9 995.67 2311.83 989.08 2309.76 983.31C2307.66 977.43 2306.76 972.83 2307.3 969.95C2308.6 963.08 2311.4 951.31 2313.88 941.21C2315.11 936.17 2316.27 931.56 2317.12 928.21Z" fill="white" stroke="#151924" stroke-width="4.18174"/>
<path d="M2312.17 808L2409.95 818.74L2387.55 934.81C2387.17 934.88 2386.71 934.96 2386.18 935.06C2384.41 935.37 2381.86 935.79 2378.73 936.23C2372.48 937.12 2363.97 938.08 2354.92 938.39C2345.85 938.69 2336.31 938.34 2327.98 936.63C2319.94 934.98 2313.3 932.13 2309.18 927.69C2309.82 886.03 2310.59 855.61 2311.2 835.58C2311.51 825.49 2311.77 818.04 2311.97 813.11C2312.05 810.91 2312.12 809.21 2312.17 808Z" fill="white" stroke="#151924" stroke-width="4.18174"/>
<path d="M2161.16 930.28L2161.18 930.07L2220.14 924.58C2220.37 925.5 2220.69 926.76 2221.07 928.28C2221.91 931.63 2223.05 936.24 2224.28 941.28C2226.74 951.38 2229.52 963.16 2230.82 970.02C2231.36 972.9 2230.46 977.51 2228.34 983.38C2226.27 989.15 2223.18 995.74 2219.78 1002.4C2216.58 1008.66 2213.14 1014.93 2210.04 1020.55C2209.85 1020.9 2209.66 1021.24 2209.47 1021.58C2206.26 1027.43 2203.44 1032.58 2201.82 1036.14V1036.15C2200.39 1039.34 2196.82 1044.61 2191.85 1050.61C2186.92 1056.57 2180.73 1063.12 2174.19 1068.89C2167.64 1074.68 2160.82 1079.59 2154.63 1082.36C2148.36 1085.18 2143.29 1085.57 2139.7 1083.33C2136.23 1081.15 2134.67 1076.35 2134.95 1068.91C2135.22 1061.61 2137.25 1052.57 2139.96 1043.05C2141.92 1036.18 2144.19 1029.17 2146.37 1022.48C2147.2 1019.91 2148.02 1017.39 2148.8 1014.94C2151.58 1006.21 2153.9 998.29 2154.45 992.77C2155.48 982.28 2157.21 966.18 2158.68 952.7C2159.42 945.96 2160.09 939.88 2160.58 935.49C2160.82 933.29 2161.02 931.51 2161.16 930.28Z" fill="white" stroke="#151924" stroke-width="4.18174"/>
<path d="M2128.42 818.74L2226.26 808.15C2226.31 809.36 2226.37 811.06 2226.45 813.26C2226.64 818.19 2226.89 825.64 2227.18 835.72C2227.75 855.76 2228.46 886.18 2229.02 927.84C2224.88 932.28 2218.23 935.12 2210.18 936.76C2201.83 938.45 2192.29 938.79 2183.22 938.46C2174.16 938.13 2165.64 937.15 2159.39 936.25C2156.27 935.8 2153.71 935.37 2151.94 935.06C2151.41 934.96 2150.95 934.88 2150.57 934.8L2128.42 818.74Z" fill="white" stroke="#151924" stroke-width="4.18174"/>
<path d="M1590.8 1080.8C1590.75 1082.16 1590.05 1088.03 1588.44 1095.05C1586.83 1102.08 1584.27 1110.55 1580.39 1116.93C1579.37 1118.61 1577.57 1120.88 1575.36 1123.51C1573.11 1126.17 1570.35 1129.29 1567.32 1132.69C1566.89 1133.18 1566.45 1133.67 1566 1134.17C1560.23 1140.66 1553.63 1148.07 1547.73 1155.37C1541.34 1163.27 1535.9 1170.88 1533.17 1176.94C1531.8 1179.99 1531.23 1182.4 1531.38 1184.13C1531.45 1184.96 1531.67 1185.6 1532.02 1186.09C1532.36 1186.59 1532.9 1187.05 1533.75 1187.44C1535.59 1188.27 1538.31 1188.6 1541.88 1188.35C1545.42 1188.1 1549.6 1187.31 1554.22 1186.08C1563.46 1183.62 1574.25 1179.49 1584.82 1174.88C1605.99 1165.63 1625.99 1154.58 1630.62 1151.46C1634.79 1148.65 1637.66 1143.61 1638.81 1136.93C1639.96 1130.27 1639.35 1122.14 1636.72 1113.51C1635.26 1108.81 1634.49 1101.24 1634.1 1092.76C1633.72 1084.2 1633.72 1074.48 1633.89 1065.34C1634.07 1056.19 1634.42 1047.61 1634.72 1041.31C1634.87 1038.16 1635.01 1035.58 1635.11 1033.79C1635.12 1033.61 1635.13 1033.44 1635.14 1033.28L1584.7 1035.03C1584.87 1036.14 1585.1 1037.6 1585.37 1039.31C1585.99 1043.31 1586.82 1048.71 1587.65 1054.3C1588.47 1059.89 1589.28 1065.68 1589.88 1070.46C1590.46 1075.14 1590.87 1079.08 1590.8 1080.8ZM1590.8 1080.8C1590.8 1080.81 1590.8 1080.81 1590.8 1080.81L1588.71 1080.73L1590.8 1080.8Z" fill="white" stroke="#151924" stroke-width="4.18174"/>
<path d="M1639.06 1125.09C1640.32 1137.42 1637.05 1147.08 1630.64 1151.38H1630.63C1626 1154.51 1605.98 1165.56 1584.8 1174.8C1574.22 1179.41 1563.44 1183.54 1554.2 1186C1549.58 1187.23 1545.4 1188.02 1541.87 1188.27C1538.3 1188.52 1535.59 1188.19 1533.76 1187.36C1532.18 1186.64 1531.51 1185.59 1531.38 1184.07C1531.22 1182.36 1531.77 1179.98 1533.11 1176.96C1535.79 1170.96 1541.15 1163.43 1547.48 1155.6C1553.45 1148.21 1560.16 1140.68 1566.02 1134.11C1566.34 1133.76 1566.66 1133.4 1566.97 1133.05C1572.1 1127.31 1576.6 1122.24 1579.11 1118.81C1587.56 1123.28 1598.64 1128.71 1607.32 1131.6C1612.76 1133.46 1618.74 1133.01 1624.59 1131.37C1629.49 1129.98 1634.42 1127.72 1639.06 1125.09Z" fill="white" stroke="#151924" stroke-width="4.18174"/>
<path d="M1537.68 841.25L1653.5 846.46L1644.76 1040.99C1644.55 1041.01 1644.33 1041.03 1644.1 1041.05C1642.51 1041.19 1640.22 1041.38 1637.4 1041.58C1631.77 1041.98 1624.04 1042.41 1615.65 1042.55C1607.26 1042.7 1598.25 1042.55 1590.05 1041.79C1582.36 1041.09 1575.53 1039.86 1570.61 1037.92C1560.38 971.44 1552.04 921.72 1546.25 888.57C1543.34 871.9 1541.07 859.42 1539.53 851.11C1538.76 846.95 1538.17 843.84 1537.77 841.76C1537.74 841.58 1537.71 841.41 1537.68 841.25Z" fill="white" stroke="#151924" stroke-width="4.18174"/>
<path d="M1722.23 1151.38C1715.81 1147.08 1712.55 1137.42 1713.8 1125.09C1718.44 1127.72 1723.37 1129.98 1728.28 1131.37C1734.13 1133.01 1740.1 1133.46 1745.54 1131.6C1754.22 1128.71 1765.31 1123.28 1773.76 1118.81C1776.27 1122.24 1780.77 1127.31 1785.9 1133.05C1786.21 1133.4 1786.52 1133.76 1786.84 1134.11C1792.7 1140.68 1799.42 1148.21 1805.39 1155.6C1811.72 1163.43 1817.08 1170.96 1819.75 1176.96C1821.1 1179.98 1821.64 1182.36 1821.49 1184.07C1821.35 1185.59 1820.68 1186.64 1819.1 1187.36C1817.28 1188.19 1814.57 1188.52 1811 1188.27C1807.46 1188.02 1803.29 1187.23 1798.67 1186C1789.43 1183.54 1778.64 1179.41 1768.07 1174.8C1746.88 1165.56 1726.86 1154.51 1722.23 1151.38Z" fill="white" stroke="#151924" stroke-width="4.18174"/>
<path d="M1699.45 846.46L1815.27 841.25C1815.24 841.41 1815.21 841.58 1815.18 841.76C1814.78 843.84 1814.19 846.95 1813.42 851.11C1811.88 859.42 1809.61 871.9 1806.7 888.57C1800.91 921.72 1792.57 971.44 1782.34 1037.92C1777.41 1039.86 1770.59 1041.09 1762.9 1041.79C1754.7 1042.55 1745.69 1042.7 1737.3 1042.55C1728.91 1042.41 1721.18 1041.98 1715.55 1041.58C1712.73 1041.38 1710.44 1041.19 1708.85 1041.05C1708.62 1041.03 1708.4 1041.01 1708.19 1040.99L1699.45 846.46Z" fill="white" stroke="#151924" stroke-width="4.18174"/>
<path d="M536.34 1099.15C536.01 1085.67 532.74 1051.9 529.56 1021.62C527.96 1006.45 526.39 992.13 525.21 981.59C524.63 976.32 524.14 972 523.8 969C523.68 967.94 523.58 967.04 523.49 966.33L597.03 958.74C597.02 959.35 597.02 960.08 597.01 960.9C596.99 963.79 596.97 967.93 596.96 972.98C596.95 983.09 597 996.82 597.27 1011.34C597.54 1025.85 598.03 1041.16 598.87 1054.42C599.71 1067.6 600.93 1078.95 602.7 1085.42C604.53 1092.08 609.73 1100.47 616.1 1109.33C621.19 1116.4 627.16 1123.96 633.03 1131.39C634.56 1133.34 636.09 1135.27 637.6 1137.18C644.89 1146.47 651.61 1155.29 655.96 1162.62C658.13 1166.29 659.65 1169.47 660.37 1172.07C661.11 1174.72 660.91 1176.34 660.29 1177.31C660.07 1177.66 659.58 1178.09 658.59 1178.47C657.59 1178.85 656.22 1179.12 654.47 1179.24C650.96 1179.49 646.27 1179.14 640.7 1178.27C629.6 1176.55 615.43 1172.86 601.17 1168.39C586.93 1163.92 572.68 1158.7 561.42 1153.94C555.79 1151.57 550.94 1149.32 547.22 1147.34C545.37 1146.36 543.82 1145.45 542.61 1144.65C541.37 1143.83 540.59 1143.19 540.19 1142.73C538 1140.26 536.76 1138.06 536.06 1135.79C535.36 1133.49 535.16 1130.98 535.24 1127.8C535.29 1125.8 535.45 1123.5 535.64 1120.84C536.04 1115.3 536.55 1108.21 536.34 1099.15Z" fill="white" stroke="#151924" stroke-width="4.18174"/>
<path d="M536.18 1109.67L582.14 1125.47L583.63 1125.98L584.53 1124.69L584.54 1124.68L584.56 1124.65C584.58 1124.62 584.61 1124.58 584.65 1124.52C584.74 1124.4 584.86 1124.23 585.03 1124C585.36 1123.54 585.86 1122.87 586.5 1122.02C587.78 1120.33 589.65 1117.94 591.99 1115.17C596.26 1110.1 602.05 1103.78 608.63 1098.1C614.61 1108.08 623.98 1119.96 633.09 1131.5C636.35 1135.64 639.58 1139.73 642.61 1143.67C648.72 1151.64 654.02 1159.02 657.32 1165.12C658.97 1168.18 660.05 1170.8 660.51 1172.94C660.91 1174.76 660.81 1176.01 660.44 1176.87L660.21 1177.23C659.99 1177.58 659.51 1178.01 658.51 1178.39C657.51 1178.77 656.14 1179.04 654.39 1179.16C650.88 1179.41 646.19 1179.06 640.62 1178.19C629.52 1176.47 615.35 1172.78 601.1 1168.31C586.85 1163.84 572.6 1158.62 561.34 1153.87C555.71 1151.49 550.86 1149.24 547.14 1147.26C545.29 1146.28 543.74 1145.38 542.53 1144.57C541.29 1143.75 540.51 1143.11 540.12 1142.65H540.11C538.17 1140.44 536.98 1138.44 536.25 1136.41C535.51 1134.37 535.21 1132.18 535.16 1129.54C535.11 1126.91 535.32 1123.92 535.58 1120.23L535.59 1120.1C535.8 1117.08 536.04 1113.64 536.18 1109.67Z" fill="white" stroke="#151924" stroke-width="4.18174"/>
<path d="M490.289 841.14H612.649L632.869 963.21C632.639 963.29 632.399 963.38 632.119 963.47C630.589 964.02 628.279 964.8 625.229 965.69C619.149 967.47 610.119 969.7 598.429 971.51C575.329 975.06 541.829 976.93 499.999 970.22C495.959 931.46 493.519 898.82 492.089 875.78C491.359 864.11 490.889 854.9 490.609 848.62C490.459 845.48 490.369 843.06 490.309 841.44C490.299 841.33 490.299 841.23 490.289 841.14Z" fill="white" stroke="#151924" stroke-width="4.18174"/>
<path d="M430.56 964.46V964.54V964.46ZM430.56 964.46L354.69 956.64L430.56 964.54M430.56 964.46L430.54 964.54L430.56 964.46ZM430.56 964.46H429.86L430.54 964.54M430.56 964.54C430.56 964.54 430.55 964.54 430.54 964.54H430.56ZM430.56 964.54H430.54L430.48 965.25C430.53 964.79 430.56 964.54 430.56 964.54ZM430.56 964.54H430.54H430.56ZM411.56 1142.73H411.55C411.15 1143.19 410.37 1143.83 409.13 1144.65C407.92 1145.45 406.37 1146.36 404.51 1147.34C400.8 1149.32 395.95 1151.57 390.32 1153.94C379.07 1158.7 364.81 1163.92 350.57 1168.39C336.32 1172.86 322.14 1176.55 311.03 1178.27C305.47 1179.14 300.77 1179.49 297.27 1179.24C295.51 1179.12 294.16 1178.85 293.15 1178.47C292.16 1178.09 291.67 1177.66 291.45 1177.31C290.83 1176.34 290.63 1174.72 291.37 1172.07C292.09 1169.47 293.6 1166.29 295.78 1162.62C300.13 1155.29 306.84 1146.47 314.14 1137.18C315.64 1135.27 317.18 1133.34 318.72 1131.39C324.59 1123.96 330.55 1116.4 335.63 1109.33C342 1100.47 347.21 1092.08 349.03 1085.42C350.81 1078.95 352.02 1067.6 352.86 1054.42C353.71 1041.16 354.2 1025.85 354.47 1011.34C354.74 996.82 354.79 983.09 354.77 972.98C354.77 967.93 354.75 963.79 354.73 960.9C354.73 960.08 354.72 959.35 354.72 958.74L428.24 966.33C428.16 967.04 428.07 967.94 427.95 969C427.61 972 427.11 976.32 426.52 981.59C425.35 992.13 423.78 1006.45 422.19 1021.62C419.01 1051.9 415.72 1085.67 415.4 1099.15C415.19 1108.21 415.7 1115.3 416.1 1120.84C416.29 1123.5 416.45 1125.8 416.5 1127.8C416.57 1130.98 416.39 1133.49 415.68 1135.79C414.98 1138.06 413.75 1140.26 411.56 1142.73ZM430.33 966.54C428.64 981.39 418.08 1074.6 417.49 1099.2C417.28 1108.19 417.78 1115 418.18 1120.49C418.96 1131.4 419.36 1137.07 413.11 1144.11L430.33 966.54Z" fill="white"/>
<path d="M430.56 964.46V964.54M430.56 964.46L354.69 956.64L430.56 964.54M430.56 964.46L430.54 964.54M430.56 964.46H429.86L430.54 964.54M430.56 964.54C430.56 964.54 430.55 964.54 430.54 964.54M430.56 964.54H430.54M430.56 964.54C430.56 964.54 430.53 964.79 430.48 965.25L430.54 964.54M411.56 1142.73H411.55C411.15 1143.19 410.37 1143.83 409.13 1144.65C407.92 1145.45 406.37 1146.36 404.51 1147.34C400.8 1149.32 395.95 1151.57 390.32 1153.94C379.07 1158.7 364.81 1163.92 350.57 1168.39C336.32 1172.86 322.14 1176.55 311.03 1178.27C305.47 1179.14 300.77 1179.49 297.27 1179.24C295.51 1179.12 294.16 1178.85 293.15 1178.47C292.16 1178.09 291.67 1177.66 291.45 1177.31C290.83 1176.34 290.63 1174.72 291.37 1172.07C292.09 1169.47 293.6 1166.29 295.78 1162.62C300.13 1155.29 306.84 1146.47 314.14 1137.18C315.64 1135.27 317.18 1133.34 318.72 1131.39C324.59 1123.96 330.55 1116.4 335.63 1109.33C342 1100.47 347.21 1092.08 349.03 1085.42C350.81 1078.95 352.02 1067.6 352.86 1054.42C353.71 1041.16 354.2 1025.85 354.47 1011.34C354.74 996.82 354.79 983.09 354.77 972.98C354.77 967.93 354.75 963.79 354.73 960.9C354.73 960.08 354.72 959.35 354.72 958.74L428.24 966.33C428.16 967.04 428.07 967.94 427.95 969C427.61 972 427.11 976.32 426.52 981.59C425.35 992.13 423.78 1006.45 422.19 1021.62C419.01 1051.9 415.72 1085.67 415.4 1099.15C415.19 1108.21 415.7 1115.3 416.1 1120.84C416.29 1123.5 416.45 1125.8 416.5 1127.8C416.57 1130.98 416.39 1133.49 415.68 1135.79C414.98 1138.06 413.75 1140.26 411.56 1142.73Z" stroke="#151924" stroke-width="4.18174"/>
<path d="M367.21 1124.69L368.12 1125.98L369.6 1125.47L415.57 1109.67C415.7 1113.64 415.94 1117.08 416.15 1120.1L416.16 1120.23C416.42 1123.92 416.63 1126.91 416.58 1129.54C416.54 1132.18 416.23 1134.37 415.5 1136.41C414.77 1138.44 413.58 1140.44 411.63 1142.65C411.23 1143.11 410.46 1143.75 409.22 1144.57C408.01 1145.38 406.46 1146.28 404.6 1147.26C400.89 1149.24 396.03 1151.49 390.4 1153.87C379.15 1158.62 364.89 1163.84 350.65 1168.31C336.4 1172.78 322.23 1176.47 311.12 1178.19C305.56 1179.06 300.86 1179.41 297.36 1179.16C295.6 1179.04 294.24 1178.77 293.24 1178.39C292.23 1178.01 291.75 1177.58 291.53 1177.23L291.3 1176.87C290.93 1176.01 290.83 1174.76 291.23 1172.94C291.69 1170.8 292.77 1168.18 294.43 1165.12C297.72 1159.02 303.02 1151.64 309.14 1143.67C312.17 1139.73 315.4 1135.64 318.66 1131.5C327.77 1119.96 337.14 1108.08 343.12 1098.1C349.7 1103.78 355.49 1110.1 359.76 1115.17C362.09 1117.94 363.96 1120.33 365.25 1122.02C365.89 1122.87 366.38 1123.54 366.72 1124C366.88 1124.23 367.01 1124.4 367.09 1124.52C367.13 1124.58 367.16 1124.62 367.19 1124.65L367.21 1124.68V1124.69Z" fill="white" stroke="#151924" stroke-width="4.18174"/>
<path d="M339.069 841.14H461.429C461.429 841.23 461.419 841.33 461.419 841.44C461.359 843.06 461.259 845.48 461.119 848.62C460.829 854.9 460.359 864.11 459.639 875.78C458.209 898.82 455.769 931.46 451.729 970.22C409.899 976.93 376.389 975.06 353.299 971.51C341.599 969.7 332.579 967.47 326.489 965.69C323.449 964.8 321.139 964.02 319.599 963.47C319.329 963.38 319.079 963.29 318.859 963.21L339.069 841.14Z" fill="white" stroke="#151924" stroke-width="4.18174"/>
<path d="M195.93 290.871H2846.16L2830.65 302.391C2814.36 314.482 2804.29 331.324 2802.76 349.444L2766.99 767.5C2762.6 817.93 2710.73 857.73 2647.44 857.73H394.65C331.26 857.73 279.39 818.01 275.1 767.51L239.328 349.444C239.328 349.443 239.327 349.442 239.327 349.441M195.93 290.871L239.327 349.441M195.93 290.871L211.438 302.391H211.439C227.728 314.482 237.799 331.323 239.327 349.441M195.93 290.871L239.327 349.441" stroke="#151924" stroke-width="4.18174"/>
<path d="M151.988 324.562H2883.44V486.253H151.988V324.562Z" fill="#1B0D6B" stroke="#151924" stroke-width="4.18174" stroke-linejoin="round"/>
<path d="M2936.96 1399.78C2936.53 1407.67 2930.05 1413.94 2922.12 1413.96C2914.19 1413.94 2907.71 1407.74 2907.29 1399.78L2854.6 324.558H2989.64L2936.96 1399.77C2936.96 1399.78 2936.96 1399.78 2936.96 1399.78Z" fill="#1B0D6B" stroke="#151924" stroke-width="4.18174" stroke-linejoin="round"/>
<path d="M119.889 1413.96C111.953 1413.94 105.476 1407.74 105.055 1399.78C105.054 1399.78 105.055 1399.78 105.055 1399.78L52.3672 324.558H187.411L134.722 1399.77C134.722 1399.78 134.722 1399.78 134.722 1399.78C134.301 1407.67 127.817 1413.94 119.889 1413.96Z" fill="#1B0D6B" stroke="#151924" stroke-width="4.18174"/>
<path d="M2987.11 354.057H41.3381C19.7681 354.057 2.87109 339.594 2.87109 322.464C2.87109 305.332 19.6761 290.871 41.3381 290.871H2987.11C3008.68 290.871 3025.58 305.334 3025.58 322.464C3025.58 339.596 3008.77 354.057 2987.11 354.057Z" fill="#151924" stroke="#151924" stroke-width="4.18174" stroke-linejoin="round"/>
<path d="M195.93 290.871H2846.16L2830.65 302.391C2814.36 314.482 2804.29 331.324 2802.76 349.444L2766.99 767.5C2762.6 817.93 2710.73 857.73 2647.44 857.73H394.65C331.26 857.73 279.39 818.01 275.1 767.51L239.328 349.444C239.328 349.443 239.327 349.442 239.327 349.441M195.93 290.871L239.327 349.441L195.93 290.871ZM195.93 290.871L211.438 302.391H211.439C227.728 314.482 237.799 331.323 239.327 349.441M195.93 290.871L239.327 349.441L195.93 290.871Z" fill="#1B0D6B"/>
<path d="M274.96 327.44C274.49 316.992 273.89 303.831 273.17 290.871H2768.72C2768 303.831 2767.4 316.991 2766.92 327.439C2766.48 337.347 2766.14 344.815 2765.91 347.36V347.37L2730.13 765.43C2727.12 800.09 2691.12 827.87 2647.33 827.87H394.56C350.77 827.87 314.68 800.09 311.76 765.44L275.98 347.37V347.36C275.75 344.815 275.41 337.348 274.96 327.44Z" fill="white" stroke="#151924" stroke-width="4.18174"/>
</svg>
