<svg width="25" height="25" viewBox="0 0 25 25" fill="none" xmlns="http://www.w3.org/2000/svg">
<mask id="mask0_357_2633" style="mask-type:alpha" maskUnits="userSpaceOnUse" x="0" y="0" width="25" height="25">
<rect x="0.221436" y="0.978271" width="24" height="24" fill="#D9D9D9"/>
</mask>
<g mask="url(#mask0_357_2633)">
<path d="M10.2214 16.5533L15.7964 12.9783L10.2214 9.40327V16.5533ZM12.2214 21.9783C10.9714 21.9783 9.80077 21.7409 8.70944 21.2663C7.61744 20.7909 6.66744 20.1489 5.85944 19.3403C5.05077 18.5323 4.40877 17.5823 3.93344 16.4903C3.45877 15.3989 3.22144 14.2283 3.22144 12.9783C3.22144 11.7283 3.45877 10.5573 3.93344 9.46527C4.40877 8.37394 5.05077 7.42394 5.85944 6.61527C6.66744 5.80727 7.61744 5.1656 8.70944 4.69027C9.80077 4.2156 10.9714 3.97827 12.2214 3.97827C13.4714 3.97827 14.6424 4.2156 15.7344 4.69027C16.8258 5.1656 17.7758 5.80727 18.5844 6.61527C19.3924 7.42394 20.0341 8.37394 20.5094 9.46527C20.9841 10.5573 21.2214 11.7283 21.2214 12.9783C21.2214 14.2283 20.9841 15.3989 20.5094 16.4903C20.0341 17.5823 19.3924 18.5323 18.5844 19.3403C17.7758 20.1489 16.8258 20.7909 15.7344 21.2663C14.6424 21.7409 13.4714 21.9783 12.2214 21.9783ZM12.2214 20.9783C14.4548 20.9783 16.3464 20.2033 17.8964 18.6533C19.4464 17.1033 20.2214 15.2116 20.2214 12.9783C20.2214 10.7449 19.4464 8.85327 17.8964 7.30327C16.3464 5.75327 14.4548 4.97827 12.2214 4.97827C9.9881 4.97827 8.09644 5.75327 6.54644 7.30327C4.99644 8.85327 4.22144 10.7449 4.22144 12.9783C4.22144 15.2116 4.99644 17.1033 6.54644 18.6533C8.09644 20.2033 9.9881 20.9783 12.2214 20.9783Z" fill="#1C1B1F"/>
</g>
</svg>
