<svg width="24" height="25" viewBox="0 0 24 25" fill="none" xmlns="http://www.w3.org/2000/svg">
<mask id="mask0_384_9930" style="mask-type:alpha" maskUnits="userSpaceOnUse" x="0" y="0" width="24" height="25">
<rect y="0.796204" width="24" height="24" fill="#D9D9D9"/>
</mask>
<g mask="url(#mask0_384_9930)">
<path d="M18 22.2962C17.3 22.2962 16.7083 22.0545 16.225 21.5712C15.7417 21.0879 15.5 20.4962 15.5 19.7962C15.5 19.6629 15.5127 19.5252 15.538 19.3832C15.5627 19.2419 15.6 19.1045 15.65 18.9712L7.9 14.4212C7.65 14.6879 7.36267 14.9002 7.038 15.0582C6.71267 15.2169 6.36667 15.2962 6 15.2962C5.3 15.2962 4.70833 15.0545 4.225 14.5712C3.74167 14.0879 3.5 13.4962 3.5 12.7962C3.5 12.0962 3.74167 11.5045 4.225 11.0212C4.70833 10.5379 5.3 10.2962 6 10.2962C6.36667 10.2962 6.71267 10.3755 7.038 10.5342C7.36267 10.6922 7.65 10.9045 7.9 11.1712L15.65 6.6212C15.6 6.48787 15.5627 6.3502 15.538 6.2082C15.5127 6.06687 15.5 5.92954 15.5 5.7962C15.5 5.0962 15.7417 4.50454 16.225 4.0212C16.7083 3.53787 17.3 3.2962 18 3.2962C18.7 3.2962 19.2917 3.53787 19.775 4.0212C20.2583 4.50454 20.5 5.0962 20.5 5.7962C20.5 6.4962 20.2583 7.08787 19.775 7.5712C19.2917 8.05454 18.7 8.2962 18 8.2962C17.6333 8.2962 17.2873 8.21687 16.962 8.0582C16.6373 7.9002 16.35 7.68787 16.1 7.4212L8.35 11.9712C8.4 12.1045 8.43767 12.2419 8.463 12.3832C8.48767 12.5252 8.5 12.6629 8.5 12.7962C8.5 12.9295 8.48767 13.0669 8.463 13.2082C8.43767 13.3502 8.4 13.4879 8.35 13.6212L16.1 18.1712C16.35 17.9045 16.6373 17.6922 16.962 17.5342C17.2873 17.3755 17.6333 17.2962 18 17.2962C18.7 17.2962 19.2917 17.5379 19.775 18.0212C20.2583 18.5045 20.5 19.0962 20.5 19.7962C20.5 20.4962 20.2583 21.0879 19.775 21.5712C19.2917 22.0545 18.7 22.2962 18 22.2962ZM18 7.2962C18.4167 7.2962 18.7707 7.1502 19.062 6.8582C19.354 6.56687 19.5 6.21287 19.5 5.7962C19.5 5.37954 19.354 5.02554 19.062 4.7342C18.7707 4.4422 18.4167 4.2962 18 4.2962C17.5833 4.2962 17.2293 4.4422 16.938 4.7342C16.646 5.02554 16.5 5.37954 16.5 5.7962C16.5 6.21287 16.646 6.56687 16.938 6.8582C17.2293 7.1502 17.5833 7.2962 18 7.2962ZM6 14.2962C6.41667 14.2962 6.77067 14.1502 7.062 13.8582C7.354 13.5669 7.5 13.2129 7.5 12.7962C7.5 12.3795 7.354 12.0255 7.062 11.7342C6.77067 11.4422 6.41667 11.2962 6 11.2962C5.58333 11.2962 5.22933 11.4422 4.938 11.7342C4.646 12.0255 4.5 12.3795 4.5 12.7962C4.5 13.2129 4.646 13.5669 4.938 13.8582C5.22933 14.1502 5.58333 14.2962 6 14.2962ZM18 21.2962C18.4167 21.2962 18.7707 21.1502 19.062 20.8582C19.354 20.5669 19.5 20.2129 19.5 19.7962C19.5 19.3795 19.354 19.0255 19.062 18.7342C18.7707 18.4422 18.4167 18.2962 18 18.2962C17.5833 18.2962 17.2293 18.4422 16.938 18.7342C16.646 19.0255 16.5 19.3795 16.5 19.7962C16.5 20.2129 16.646 20.5669 16.938 20.8582C17.2293 21.1502 17.5833 21.2962 18 21.2962Z" fill="white"/>
</g>
</svg>
