<svg width="25" height="25" viewBox="0 0 25 25" fill="none" xmlns="http://www.w3.org/2000/svg">
<mask id="mask0_357_2642" style="mask-type:alpha" maskUnits="userSpaceOnUse" x="0" y="0" width="25" height="25">
<rect x="0.0437012" y="0.978271" width="24" height="24" fill="#D9D9D9"/>
</mask>
<g mask="url(#mask0_357_2642)">
<path d="M9.8437 16.4783H10.8437V9.47827H9.8437V16.4783ZM13.2437 16.4783H14.2437V9.47827H13.2437V16.4783ZM12.0437 21.9783C10.7937 21.9783 9.62303 21.7409 8.5317 21.2663C7.4397 20.7909 6.4897 20.1489 5.6817 19.3403C4.87303 18.5323 4.23103 17.5823 3.7557 16.4903C3.28103 15.3989 3.0437 14.2283 3.0437 12.9783C3.0437 11.7283 3.28103 10.5573 3.7557 9.46527C4.23103 8.37394 4.87303 7.42394 5.6817 6.61527C6.4897 5.80727 7.4397 5.1656 8.5317 4.69027C9.62303 4.2156 10.7937 3.97827 12.0437 3.97827C13.2937 3.97827 14.4647 4.2156 15.5567 4.69027C16.648 5.1656 17.598 5.80727 18.4067 6.61527C19.2147 7.42394 19.8564 8.37394 20.3317 9.46527C20.8064 10.5573 21.0437 11.7283 21.0437 12.9783C21.0437 14.2283 20.8064 15.3989 20.3317 16.4903C19.8564 17.5823 19.2147 18.5323 18.4067 19.3403C17.598 20.1489 16.648 20.7909 15.5567 21.2663C14.4647 21.7409 13.2937 21.9783 12.0437 21.9783ZM12.0437 20.9783C14.277 20.9783 16.1687 20.2033 17.7187 18.6533C19.2687 17.1033 20.0437 15.2116 20.0437 12.9783C20.0437 10.7449 19.2687 8.85327 17.7187 7.30327C16.1687 5.75327 14.277 4.97827 12.0437 4.97827C9.81037 4.97827 7.9187 5.75327 6.3687 7.30327C4.8187 8.85327 4.0437 10.7449 4.0437 12.9783C4.0437 15.2116 4.8187 17.1033 6.3687 18.6533C7.9187 20.2033 9.81037 20.9783 12.0437 20.9783Z" fill="#1C1B1F"/>
</g>
</svg>
