<svg width="16" height="16" viewBox="0 0 16 16" fill="none" xmlns="http://www.w3.org/2000/svg">
<path d="M6.12346 11.1572L10.6538 8.25429L6.12346 5.35135V11.1572ZM7.75087 15.9075C6.69526 15.9075 5.7021 15.7058 4.7714 15.3023C3.84011 14.8994 3.02992 14.3534 2.34084 13.6643C1.65176 12.9752 1.10548 12.1651 0.701996 11.2338C0.299103 10.3031 0.0976562 9.30991 0.0976562 8.25429C0.0976562 7.19867 0.299103 6.20522 0.701996 5.27393C1.10548 4.34323 1.65176 3.53334 2.34084 2.84426C3.02992 2.15518 3.84011 1.60889 4.7714 1.20541C5.7021 0.802521 6.69526 0.601074 7.75087 0.601074C8.80649 0.601074 9.79994 0.802521 10.7312 1.20541C11.6619 1.60889 12.4718 2.15518 13.1609 2.84426C13.85 3.53334 14.3963 4.34323 14.7997 5.27393C15.2026 6.20522 15.4041 7.19867 15.4041 8.25429C15.4041 9.30991 15.2026 10.3031 14.7997 11.2338C14.3963 12.1651 13.85 12.9752 13.1609 13.6643C12.4718 14.3534 11.6619 14.8994 10.7312 15.3023C9.79994 15.7058 8.80649 15.9075 7.75087 15.9075ZM7.75087 15.2917C9.71549 15.2917 11.3796 14.61 12.7431 13.2465C14.1066 11.883 14.7883 10.2189 14.7883 8.25429C14.7883 6.28967 14.1066 4.62561 12.7431 3.26211C11.3796 1.8986 9.71549 1.21685 7.75087 1.21685C5.78625 1.21685 4.12219 1.8986 2.75869 3.26211C1.39518 4.62561 0.713432 6.28967 0.713432 8.25429C0.713432 10.2189 1.39518 11.883 2.75869 13.2465C4.12219 14.61 5.78625 15.2917 7.75087 15.2917Z" fill="#1D1958"/>
</svg>
