<svg width="24" height="23" viewBox="0 0 24 23" fill="none" xmlns="http://www.w3.org/2000/svg">
<g clip-path="url(#clip0_233_1943)">
<circle cx="12.0207" cy="11.4377" r="11.4382" fill="#FFF500"/>
<path d="M15.6408 16.8752C14.9131 18.1445 14.1941 19.0166 13.6551 19.5726C13.3812 19.8552 13.1537 20.0562 12.9953 20.1862C12.916 20.2512 12.8541 20.2985 12.8121 20.3293C12.8027 20.3362 12.7944 20.3423 12.787 20.3476C12.7642 20.3343 12.7322 20.3156 12.6921 20.292C12.6046 20.2404 12.4783 20.1654 12.3233 20.0716C12.0133 19.884 11.5889 19.6215 11.131 19.3218C10.2406 18.7391 9.23214 18.0211 8.68768 17.4412C8.99542 17.1592 9.28284 16.9351 9.54331 16.7339C9.55735 16.7231 9.57131 16.7123 9.58521 16.7015C9.84325 16.5023 10.0763 16.3224 10.2713 16.1298C10.478 15.9257 10.6441 15.7053 10.7564 15.4277C10.8685 15.1504 10.925 14.8205 10.9189 14.3995L10.9189 14.3994C10.9159 14.2017 10.918 13.6976 10.9219 13.238C10.9239 13.0084 10.9262 12.7903 10.9287 12.6277C10.9299 12.5463 10.9311 12.479 10.9323 12.4311C10.9324 12.4281 10.9324 12.4252 10.9325 12.4224L13.6354 12.3918C13.6322 12.5807 13.6244 12.7646 13.6165 12.945C13.6159 12.9579 13.6153 12.9707 13.6148 12.9835C13.6063 13.1744 13.5981 13.3618 13.5955 13.5453C13.5899 13.9372 13.6102 14.3165 13.7117 14.6902C13.9126 15.4301 14.427 16.131 15.6408 16.8752Z" fill="white" stroke="#151924" stroke-width="0.150021"/>
<path d="M11.467 5.45595C12.5748 5.19842 13.8116 5.55443 14.5721 6.51423L14.6238 6.58343C15.3054 7.49613 15.4792 9.01953 15.2469 10.474C15.131 11.1991 14.915 11.9018 14.6148 12.496C14.3142 13.0909 13.9318 13.5725 13.4856 13.8615C12.813 14.2974 12.0126 14.2088 11.1753 13.9887C10.9652 13.9334 10.704 13.7456 10.4344 13.4331C10.1667 13.1227 9.89734 12.6967 9.66891 12.1788C9.21213 11.1432 8.92154 9.74563 9.13063 8.18131C9.33979 6.62124 10.3365 5.71878 11.467 5.45595Z" fill="white" stroke="#151924" stroke-width="0.150021"/>
<path d="M12.3384 10.3062C12.3384 10.3062 12.1656 10.6926 12.3806 10.951C12.5956 11.2094 12.3318 11.3661 12.169 11.2975" stroke="#151924" stroke-width="0.184932" stroke-miterlimit="10" stroke-linejoin="round"/>
<path d="M8.69533 9.5898L8.69538 9.58979C8.76537 9.56913 8.82373 9.57026 8.87331 9.58607C8.92314 9.60197 8.96834 9.63406 9.00948 9.6821C9.09312 9.77975 9.15479 9.93723 9.19865 10.129C9.28599 10.5108 9.2965 10.9987 9.29727 11.3267C9.29746 11.4048 9.29129 11.465 9.28076 11.51C9.27012 11.5555 9.25591 11.5815 9.24301 11.5954C9.23169 11.6076 9.22026 11.6119 9.20616 11.6117C9.18972 11.6114 9.16635 11.6046 9.13574 11.5862C9.07431 11.5492 8.99994 11.4753 8.92142 11.3719C8.84365 11.2694 8.76455 11.1416 8.69271 11.0009C8.54854 10.7187 8.43674 10.3908 8.4207 10.1189C8.41268 9.98302 8.42885 9.8655 8.47273 9.77521C8.51565 9.6869 8.58624 9.62189 8.69533 9.5898Z" fill="white" stroke="#151924" stroke-width="0.107456"/>
<path d="M8.81375 10.1828C8.83217 10.1229 8.92274 10.1506 8.90432 10.2104C8.79379 10.5727 8.90431 10.7861 9.05322 10.8675C9.07624 10.8797 9.08392 10.9089 9.07164 10.9319C8.98874 11.0839 8.65563 10.7017 8.81375 10.1828V10.1828Z" fill="#151924"/>
<path d="M15.694 9.57318L15.694 9.5732C15.8031 9.60528 15.8737 9.6703 15.9166 9.75861C15.9605 9.8489 15.9767 9.96641 15.9686 10.1023C15.9526 10.3742 15.8408 10.702 15.6966 10.9843C15.6248 11.125 15.5457 11.2528 15.4679 11.3553C15.3894 11.4587 15.315 11.5326 15.2536 11.5696C15.223 11.588 15.1996 11.5948 15.1832 11.5951C15.1691 11.5953 15.1576 11.591 15.1463 11.5788C15.1334 11.5649 15.1192 11.5389 15.1086 11.4934C15.098 11.4484 15.0919 11.3882 15.0921 11.3101L15.0921 11.3101C15.0928 10.9821 15.1033 10.4942 15.1907 10.1124C15.2345 9.92063 15.2962 9.76315 15.3798 9.6655C15.421 9.61746 15.4662 9.58537 15.516 9.56947C15.5656 9.55366 15.624 9.55253 15.694 9.57318Z" fill="white" stroke="#151924" stroke-width="0.107456"/>
<path d="M15.574 10.1657C15.5556 10.1059 15.465 10.1335 15.4834 10.1934C15.594 10.5556 15.4834 10.769 15.3345 10.8504C15.3115 10.8626 15.3038 10.8918 15.3161 10.9148C15.399 11.0668 15.7321 10.6846 15.574 10.1657Z" fill="#151924"/>
<path d="M10.9723 10.3704C10.7666 10.3704 10.6054 9.58594 11.1043 9.58594C11.3714 9.58594 11.3084 10.3704 10.9723 10.3704Z" fill="#151924"/>
<path d="M13.7151 10.3704C13.9208 10.3704 14.082 9.58594 13.5831 9.58594C13.316 9.58594 13.3789 10.3704 13.7151 10.3704Z" fill="#151924"/>
<path d="M17.9796 34.612H17.9796C17.0347 34.5726 15.7252 34.7081 14.3109 34.8545L14.3073 34.8549C12.8896 35.0016 11.3646 35.1594 9.98472 35.1658C8.60299 35.1723 7.37582 35.0266 6.54912 34.573C6.13712 34.3469 5.82628 34.0452 5.64406 33.6488C5.46173 33.2521 5.40596 32.7556 5.51282 32.1363L5.46912 32.1288L5.51282 32.1363C5.87873 30.0143 5.75877 27.2099 5.64726 24.6027C5.63495 24.315 5.62274 24.0296 5.6113 23.7479C5.5537 22.3289 5.51547 21.0006 5.58048 19.9103C5.61299 19.3652 5.67122 18.8811 5.76526 18.4756C5.85943 18.0696 5.98872 17.7461 6.16106 17.5195L6.16107 17.5195C6.19951 17.4689 6.28554 17.4085 6.41639 17.3418C6.54517 17.2761 6.71064 17.2076 6.9005 17.1383C7.28007 16.9997 7.7529 16.8594 8.21537 16.7339C8.67763 16.6085 9.1286 16.4981 9.46407 16.4189C9.63178 16.3794 9.77058 16.3477 9.86743 16.3259L9.97793 16.3012C10.3328 17.2208 11.3108 17.6098 12.3183 17.5872C13.327 17.5645 14.3881 17.1298 14.9258 16.375C15.538 16.5905 16.2843 16.944 16.9493 17.3C17.6194 17.6587 18.2028 18.0178 18.482 18.2387C18.5956 18.528 18.6954 18.997 18.7794 19.6004C18.8645 20.211 18.9331 20.9556 18.9845 21.7835C19.0874 23.4393 19.1215 25.4265 19.0822 27.3385C19.043 29.2508 18.9304 31.0864 18.7401 32.4393C18.6449 33.1163 18.5305 33.6698 18.3972 34.0513C18.3304 34.2423 18.26 34.3869 18.187 34.4819C18.1138 34.5773 18.0445 34.6147 17.9796 34.612Z" fill="white" stroke="#151924" stroke-width="0.0972992"/>
<path d="M9.88347 35.2861C8.14459 35.2861 6.65314 35.0372 5.88308 34.213C5.40771 33.7042 5.24369 32.9981 5.3952 32.1155C5.75937 30.0069 5.64123 27.263 5.52725 24.6082C5.38686 21.3292 5.26593 18.4978 6.06517 17.4469C6.4363 16.9605 9.6291 16.2543 9.99189 16.1751L10.0517 16.1626L10.0725 16.2196C10.3158 16.8951 10.9315 17.3288 11.8044 17.4414C12.9984 17.5943 14.2786 17.105 14.8471 16.2766L14.8777 16.2335L14.9277 16.2502C16.1926 16.688 18.0052 17.7069 18.5626 18.1531L18.5765 18.1642L18.5834 18.1809C19.4688 20.3882 19.466 32.8744 18.2971 34.5257C18.1984 34.6647 18.0886 34.7356 17.9718 34.7287C17.035 34.6897 15.7145 34.826 14.3161 34.9705C12.8428 35.1234 11.2818 35.2847 9.88208 35.2847L9.88347 35.2861ZM9.96409 16.3252C8.95079 16.5476 6.45854 17.162 6.17637 17.5317C5.40771 18.5423 5.53281 21.4863 5.66625 24.6026C5.78022 27.2644 5.89698 30.0166 5.53142 32.1391C5.38547 32.9884 5.53281 33.6361 5.98316 34.1171C7.32728 35.5543 11.033 35.1707 14.3022 34.8329C15.7061 34.6884 17.0308 34.5508 17.9788 34.5897C18.0455 34.5925 18.115 34.5438 18.1845 34.4451C19.3382 32.8133 19.334 20.4869 18.4625 18.249C17.9037 17.8083 16.1704 16.8367 14.9319 16.3975C14.3217 17.2398 13.0096 17.7347 11.7878 17.579C10.8982 17.465 10.2365 17.0077 9.96409 16.3238V16.3252Z" fill="#151924"/>
<path d="M9.83687 16.3633C9.60542 17.1338 9.62302 18.652 10.9167 18.7178C12.2103 18.7836 12.3648 18.0358 12.2795 17.6155" stroke="#151924" stroke-width="0.150021" stroke-linecap="round"/>
<path d="M14.9213 16.4399C15.1528 17.2104 15.0984 18.5709 13.8047 18.6367C12.511 18.7025 12.3056 18.0223 12.3909 17.602" stroke="#151924" stroke-width="0.150021" stroke-linecap="round"/>
<path d="M4.20413 29.4576C7.43585 30.1192 12.2772 29.7801 14.0244 28.1454C14.2676 27.9175 13.7214 26.5942 13.6755 26.4552C11.1874 26.4288 8.18228 25.8659 5.7081 25.8367L6.90905 24.6774C8.19618 18.4072 6.08478 17.5496 6.08478 17.5496C6.12092 17.4898 -0.271631 28.5402 4.20274 29.4576H4.20413Z" fill="white"/>
<path d="M2.84026 28.4284C3.09605 28.9914 3.55095 29.3434 4.19991 29.4767L4.19993 29.4767C5.21643 29.6858 6.38624 29.7926 7.56779 29.7926H7.68531L7.68427 29.7936C8.95616 29.786 10.2348 29.6541 11.3445 29.3915C12.4897 29.1205 13.4491 28.7116 14.0369 28.1614L14.0369 28.1614C14.0689 28.1315 14.0927 28.0827 14.1022 28.0049C14.1116 27.9268 14.106 27.8239 14.0829 27.6917C14.0366 27.4274 13.9223 27.0571 13.7342 26.5573L2.84026 28.4284ZM2.84026 28.4284C2.53069 27.7459 2.5327 26.7967 2.72558 25.7324C2.91814 24.6699 3.29937 23.5009 3.73933 22.3841C4.61919 20.1507 5.73129 18.133 6.02835 17.6069L6.04277 17.5813L6.06485 17.5438L6.07814 17.5215L6.09346 17.5304L6.09329 17.5307L6.0985 17.533C6.1658 17.5625 6.6858 17.8193 7.03373 18.831C7.38236 19.8447 7.55882 21.6184 6.9294 24.6816L6.92935 24.6818L6.92815 24.6878L5.84377 25.735L5.75971 25.8162L5.87655 25.8186C7.05503 25.8434 8.36495 25.984 9.6367 26.1206L9.6698 26.1242L9.66982 26.1242L9.69152 26.1265C11.038 26.2717 12.4319 26.4219 13.6749 26.4344H13.6754H13.6897L13.6942 26.4487C13.6943 26.4488 13.6943 26.4489 13.6943 26.4489L13.6943 26.449L2.84026 28.4284ZM5.70799 25.8576H5.6587L6.87882 24.6777L6.88965 24.6672L6.89266 24.6524C8.02581 19.1092 6.47648 17.8132 6.13671 17.6028L6.09367 17.5761L6.06874 17.6202C5.78131 18.1282 4.67292 20.1345 3.79115 22.3563C3.35031 23.4671 2.96543 24.6335 2.76846 25.6943C2.57183 26.7534 2.56077 27.7158 2.87675 28.413L2.87678 28.413C3.12695 28.9634 3.57554 29.3092 4.20677 29.4386L4.23241 29.4438L4.23382 29.4424C5.85972 29.772 7.86775 29.8446 9.68366 29.6373C10.5965 29.5331 11.4621 29.3581 12.2069 29.1088C12.9511 28.8597 13.5778 28.5355 14.0103 28.131L14.0103 28.1309C14.0384 28.1046 14.0566 28.063 14.0642 28.0038C14.0718 27.9444 14.0694 27.8623 14.0515 27.7484C14.0156 27.5204 13.9159 27.1557 13.6959 26.5715L13.6957 26.5711C13.6911 26.5591 13.6871 26.5481 13.6833 26.5376C13.6796 26.5273 13.6759 26.5169 13.6722 26.5073L13.6603 26.4765L13.6274 26.4761C12.3889 26.4595 11.0068 26.311 9.66634 26.1664C8.32694 26.0219 6.9401 25.8729 5.7086 25.8576H5.70799Z" fill="white" stroke="#151924" stroke-width="0.0972992"/>
<path d="M20.7659 29.5941C20.3308 31.8195 12.4218 30.3349 9.86141 28.1443C9.70851 28.0137 10.6231 26.2109 10.7677 26.2067C11.7421 26.1803 15.3783 26.1219 17.0935 26.8753C17.0504 26.7321 16.589 18.0919 18.5224 18.2087C20.5921 18.3338 21.1648 27.5578 20.7673 29.5941H20.7659Z" fill="white"/>
<path d="M9.84744 28.16L9.84724 28.1599C9.83517 28.1496 9.82222 28.1332 9.82283 28.0853L9.88158 28.1353C10.9226 29.0214 12.8583 29.7909 14.8044 30.2432C15.7786 30.4696 16.7576 30.6171 17.6319 30.6598C18.5051 30.7025 19.2779 30.6409 19.837 30.4461L19.837 30.4461C20.3339 30.2727 20.6425 30.0037 20.735 29.6386L20.7564 29.643L20.7661 29.5953L20.7759 29.5477L20.7547 29.5433C20.839 29.0738 20.8755 28.2975 20.8627 27.3681C20.8494 26.4056 20.7831 25.2755 20.6611 24.1452C20.5391 23.015 20.3612 21.8836 20.1243 20.9188C19.8879 19.956 19.5912 19.1524 19.2284 18.6834C19.0113 18.4024 18.7732 18.2445 18.52 18.2295L18.52 18.2295C18.3124 18.2173 18.1319 18.3072 17.9704 18.492L17.9703 18.4921C17.8128 18.6729 17.6826 18.9362 17.5744 19.2551C17.466 19.5746 17.3784 19.9533 17.308 20.3676C17.1672 21.1964 17.0942 22.1721 17.0608 23.1112C17.0274 24.0506 17.0336 24.9546 17.0514 25.6405C17.0603 25.9835 17.0722 26.272 17.0834 26.4834C17.0891 26.589 17.0946 26.6755 17.0995 26.7399C17.1043 26.8029 17.1088 26.8478 17.1128 26.8679L17.1128 26.8681L17.1211 26.9092L17.0855 26.8945C17.0854 26.8944 17.0852 26.8944 17.0851 26.8943C16.2712 26.5377 15.0335 26.3627 13.8339 26.2807C12.6324 26.1985 11.4624 26.2093 10.7806 26.2274L10.7657 26.2278L10.7536 26.2365C10.7221 26.259 10.6858 26.304 10.6484 26.3581C10.6096 26.4141 10.5654 26.4859 10.5185 26.5679C10.4246 26.7319 10.318 26.9391 10.2188 27.1475C10.1196 27.3558 10.0273 27.5663 9.96199 27.7368C9.92939 27.8219 9.9032 27.8979 9.8863 27.9592C9.87785 27.9897 9.87148 28.0175 9.86787 28.0414C9.86745 28.0441 9.86706 28.0469 9.8667 28.0497H9.82533C9.83214 27.9919 9.85353 27.9075 9.8978 27.7824C9.9642 27.5955 10.1428 27.1918 10.3293 26.8338C10.4225 26.6549 10.5169 26.489 10.5995 26.368C10.641 26.3073 10.6783 26.2595 10.7102 26.2272C10.7262 26.2111 10.7396 26.2 10.7504 26.1932C10.7613 26.1863 10.7663 26.1857 10.7666 26.1857L10.7666 26.1857C11.4337 26.1676 12.5763 26.1562 13.7607 26.2335C14.9467 26.311 16.1687 26.4772 16.9977 26.8118L17.0693 26.8407L17.0645 26.7637C17.0354 26.2935 16.9576 24.5884 17.0317 22.8191C17.0688 21.9344 17.1438 21.0349 17.2814 20.2662C17.4195 19.4952 17.6193 18.8644 17.9006 18.5098L17.9006 18.5098C18.0838 18.2784 18.2921 18.1735 18.5211 18.1876L18.5212 18.1876C18.7774 18.2031 19.0257 18.3559 19.2598 18.6581C19.6227 19.1267 19.9247 19.9242 20.1666 20.8934C20.4081 21.8608 20.5884 22.993 20.711 24.1259C20.9564 26.3938 20.9699 28.6553 20.7851 29.5984C20.7077 29.9922 20.4004 30.2934 19.8495 30.4848C19.3883 30.6449 18.7844 30.7198 18.0967 30.7198C16.7627 30.7197 15.1207 30.44 13.6006 29.9793C12.0793 29.5182 10.6864 28.8778 9.84744 28.16Z" fill="white" stroke="#151924" stroke-width="0.0972992"/>
<path d="M10.2134 9.20754C10.3525 9.11205 10.7719 8.93912 11.3368 9.01128" stroke="#151924" stroke-width="0.214315" stroke-linecap="round"/>
<path d="M14.3886 9.22463C14.2495 9.12914 13.8301 8.95621 13.2652 9.02837" stroke="#151924" stroke-width="0.214315" stroke-linecap="round"/>
<path d="M11.6152 12.6226C11.8087 12.71 12.2912 12.8586 12.6732 12.7537" stroke="#151924" stroke-width="0.214315" stroke-linecap="round"/>
<path d="M8.94609 7.05347C8.94609 6.23906 9.84197 5.62826 10.2899 5.42466C10.5777 5.30026 10.984 5.17803 11.4599 5.10949C10.8864 4.2791 10.6207 2.69633 12.6201 2.68558C14.6195 2.67483 14.0227 4.3605 13.4744 5.20468C14.3196 5.34781 14.8259 5.64699 15.5946 6.43418C17.8624 8.75632 15.8821 11.4943 15.957 12.1309C16.0169 12.6402 16.4313 13.0047 16.6311 13.1233C16.269 13.1046 15.3515 12.8799 15.2617 12.1309C15.1493 11.1947 15.5599 10.6497 14.8518 9.63813C14.1437 8.62655 12.7275 8.93003 11.9384 6.74501C11.9108 7.02151 11.5646 7.73636 10.4008 8.38378C8.94609 9.19304 9.53841 12.7966 9.87179 13.0332L9.64218 12.924C7.92713 11.8775 8.41283 9.89013 8.75992 9.04696C8.43752 9.37951 7.88674 9.43675 7.60229 9.41528C8.05023 8.96735 8.94609 7.86788 8.94609 7.05347Z" fill="#151924"/>
<path d="M11.4599 5.10949C10.984 5.17803 10.5777 5.30026 10.2899 5.42466C9.84197 5.62826 8.94609 6.23906 8.94609 7.05347C8.94609 7.86788 8.05023 8.96735 7.60229 9.41528C7.95519 9.44191 8.71801 9.3474 8.94609 8.75632C9.23119 8.01748 7.19341 11.4298 9.64218 12.924L9.87179 13.0332C9.53841 12.7966 8.94609 9.19304 10.4008 8.38378C11.5646 7.73636 11.9108 7.02151 11.9384 6.74501C12.7275 8.93003 14.1437 8.62655 14.8518 9.63813C15.5599 10.6497 15.1493 11.1947 15.2617 12.1309C15.3515 12.8799 16.269 13.1046 16.6311 13.1233C16.4313 13.0047 16.0169 12.6402 15.957 12.1309C15.8821 11.4943 17.8624 8.75632 15.5946 6.43418C14.8259 5.64699 14.3196 5.34781 13.4744 5.20468M11.4599 5.10949C10.8864 4.2791 10.6207 2.69633 12.6201 2.68558C14.6195 2.67483 14.0227 4.3605 13.4744 5.20468M11.4599 5.10949C11.9485 5.03912 12.8921 5.10606 13.4744 5.20468" stroke="#151924" stroke-width="0.214315"/>
<path d="M22.627 18.2622C21.1887 19.1261 20.7935 20.8171 20.8624 22.1129C20.936 23.4088 21.7998 25.3847 21.9423 26.1796C22.0847 26.97 22.264 28.808 22.627 29.5249C22.9854 30.2463 23.2381 32.2222 23.2381 32.2222V32.6542C23.2381 32.6542 23.7022 32.3141 25.5173 31.7306C27.7781 31.0045 29.2486 31.1791 30.1446 31.2159C31.0453 31.2527 31.7621 31.3951 31.7621 31.3951C31.7621 31.3951 31.0269 27.3008 30.719 26.5381C30.4111 25.7707 30.2227 24.2772 30.2227 23.9326" stroke="#151924" stroke-width="0.289494" stroke-miterlimit="10"/>
</g>
<defs>
<clipPath id="clip0_233_1943">
<rect x="0.58252" width="22.8764" height="22.8764" rx="11.4382" fill="white"/>
</clipPath>
</defs>
</svg>
